<?xml version="1.0" standalone="no"?>
<!DOCTYPE svg PUBLIC "-//W3C//DTD SVG 1.1//EN" "http://www.w3.org/Graphics/SVG/1.1/DTD/svg11.dtd" >
<svg xmlns="http://www.w3.org/2000/svg" xmlns:xlink="http://www.w3.org/1999/xlink" version="1.1">
<metadata>
Created by FontForge 20190801 at Thu Oct 12 04:59:51 2017
 By root
Copyright (c) 2003 by Bitstream, Inc. All Rights Reserved.
DejaVu changes are in public domain
Changes by Saber Rastikerdar are in public domain.
Non-Arabic(Latin) glyphs and data in extended version are imported from Roboto font under the Apache License, Version 2.0.
</metadata>
<defs>
<font id="Vazir-Medium" horiz-adv-x="0" >
  <font-face 
    font-family="Vazir"
    font-weight="500"
    font-stretch="normal"
    units-per-em="2048"
    panose-1="2 11 6 3 3 8 4 2 2 4"
    ascent="1638"
    descent="-410"
    x-height="1082"
    cap-height="1456"
    bbox="-1038 -970.357 3294 2364"
    underline-thickness="100"
    underline-position="-600"
    unicode-range="U+0002-FFFD"
  />
<missing-glyph horiz-adv-x="507" 
 />
    <glyph glyph-name="uni0622" unicode="&#x627;&#x653;" horiz-adv-x="683" 
d="M249 1293.01h173h20v-17.9824v-1256.14v-17.9834h-20h-173h-20v17.9834v1256.14v17.9824h20zM252 1489q-111 15 -203 -94l-101 126q118 170 288 143l149 -24q99 -16 219 46l66 -157q-129 -80 -277 -60z" />
    <glyph glyph-name="uni0623" unicode="&#x627;&#x654;" horiz-adv-x="487" 
d="M166 1230.32h173h20v-17.084v-1193.3v-17.083h-20h-173h-20v17.083v1193.3v17.084h20zM102 1459q-62 58 -62 155q0 92 61 157q73 76 185 76q78 0 146 -44l5 -3v-5l1 -132v-19l-16 11q-15 10 -30 17t-31 12q-15 5 -30 8q-16 2 -31 2q-30 0 -52 -8q-23 -8 -38 -23
q-4 -4 -7.5 -9t-6.5 -9q-3 -5 -5 -10q-2 -6 -3 -11t-2 -11t-1 -12q1 -26 22 -47q22 -21 66 -38q11 -4 19 -2q25 5 140 27l12 3v-12v-126v-8l-8 -2l-406 -98l-13 -3v13v123v8l8 2z" />
    <glyph glyph-name="afii57412" unicode="&#x648;&#x654;" horiz-adv-x="900" 
d="M310 986q-62 58 -62 155q0 92 61 157q73 76 185 76q78 0 146 -44l5 -3v-5l1 -132v-19l-16 11q-15 10 -30 17t-31 12q-15 5 -30 8q-16 2 -31 2q-30 0 -52 -8q-23 -8 -38 -23q-4 -4 -7.5 -9t-6.5 -9q-3 -5 -5 -10q-2 -6 -3 -11t-2 -11t-1 -12q1 -26 22 -47q22 -21 66 -38
q11 -4 19 -2q25 5 140 27l12 3v-12v-126v-8l-8 -2l-406 -98l-13 -3v13v123v8l8 2zM610 236q-24 299 -173 299q-82 0 -118 -107q-8 -25 -12.5 -49t-4.5 -46q0 -60 41.5 -88.5t135.5 -28.5q63 1 131 20zM478 -2q-188 0 -286.5 81t-98.5 239q0 126 54 238q99 208 302 208
q218 0 311 -242q62 -161 61 -362q-2 -288 -180 -451t-526 -199l-17 -2l-4 17l-43 170l-5 23l23 2q433 44 528 289q-32 -4 -54.5 -6t-38.5 -3.5t-26 -1.5z" />
    <glyph glyph-name="uni0625" unicode="&#x627;&#x655;" horiz-adv-x="487" 
d="M107 -505q-62 58 -62 155q0 92 61 157q73 76 185 76q78 0 146 -44l5 -3v-5l1 -132v-19l-16 11q-15 10 -30 17t-31 12q-15 5 -30 8q-16 2 -31 2q-30 0 -52 -8q-23 -8 -38 -23q-4 -4 -7.5 -9t-6.5 -9q-3 -5 -5 -10q-2 -6 -3 -11t-2 -11t-1 -12q1 -26 22 -47q22 -21 66 -38
q11 -4 19 -2q25 5 140 27l12 3v-12v-126v-8l-8 -2l-406 -98l-13 -3v13v123v8l8 2zM161 1438h173h20v-20v-1397v-20h-20h-173h-20v20v1397v20h20z" />
    <glyph glyph-name="afii57414" unicode="&#x64a;&#x654;" horiz-adv-x="1524" 
d="M362 782q-62 58 -62 155q0 92 61 157q73 76 185 76q78 0 146 -44l5 -3v-5l1 -132v-19l-16 11q-15 10 -30 17t-31 12q-15 5 -30 8q-16 2 -31 2q-30 0 -52 -8q-23 -8 -38 -23q-4 -4 -7.5 -9t-6.5 -9q-3 -5 -5 -10q-2 -6 -3 -11t-2 -11t-1 -12q1 -26 22 -47q22 -21 66 -38
q11 -4 19 -2q25 5 140 27l12 3v-12v-126v-8l-8 -2l-406 -98l-13 -3v13v123v8l8 2zM298 61q0 -115 48.5 -191t149 -114.5t255.5 -39.5q174 0 310 63q69 33 122 86q49 51 49 115q0 19 -12.5 28t-46.5 9l-113 1q-130 0 -199.5 55.5t-69.5 163.5q0 197 125 334q161 175 451 175
h21h20v-20v-193v-20h-20h-22q-77 0 -140.5 -17.5t-112.5 -52.5q-99 -69 -101 -167q0 -21 9 -27q11 -10 41 -10h119q62 1 110 -13t80.5 -41.5t49.5 -69t17 -95.5q0 -303 -300 -440q-173 -79 -392 -79q-327 0 -495 140t-168 417q0 219 141 537l8 18l18 -7l159 -66l19 -7
l-9 -19q-121 -275 -121 -453z" />
    <glyph glyph-name="uni06C0" unicode="&#x647;&#x654;" horiz-adv-x="942" 
d="M184 1274q60 -13 113 -13q77 0 131 12t83 36q43 35 43 72q0 15 -27 16l-100 2q-62 2 -94.5 35t-32.5 96q0 127 130 210q91 58 252 59h11l-1 -11l-9 -126l-1 -9h-9q-56 -1 -98.5 -9t-71 -22.5t-44 -34.5t-18.5 -46l100 -3q125 -3 147 -109q20 -103 -70 -202
q-101 -110 -328 -110q-61 0 -129 11l-10 2l2 10l19 125l1 11zM462 638q-34 -31 -62 -61t-48 -57.5t-33.5 -53.5t-20 -49.5t-6.5 -45.5q0 -75 44 -111t139 -36q97 0 141.5 36t43.5 112q0 12 -3 25.5t-9 28t-15 30t-21 32.5t-27.5 35t-34 36.5t-40.5 38.5t-48 40zM404 992
q467 -340 467 -626q0 -200 -174 -308q-29 -18 -63 -30t-73.5 -18t-84.5 -6q-126 0 -215 45q-180 90 -180 317q0 207 228 436l-29 25l-14 12l11 15l100 133l11 16z" />
    <glyph glyph-name="fi" unicode="fi" horiz-adv-x="1214" 
d="M202 0v20v879h-151h-20v20v143v20h20h151v74q0 96 29 170q29 75 86 127q20 17 42.5 31.5t47.5 26t53 20.5t58 14.5t62 8.5t66 3q41 0 80.5 -4.5t77.5 -13.5q70 -18 144 -44l16 -6l-3 -17l-31 -156l-5 -24l-22 9q-9 4 -18.5 7.5t-19.5 6.5t-20.5 6.5t-22 7t-23.5 6.5
q-63 15 -138 15q-61 0 -103.5 -12t-66.5 -36q-25 -23 -38 -59.5t-13 -86.5v-74h218h21v-20v-143v-20h-21h-218v-879v-20h-21h-197h-20zM1053 0h-20h-186h-20v20v1042v20h20h186h20v-20v-1042v-20z" />
    <glyph glyph-name="uniFBA5.fina" unicode="&#xfeea;&#x654;" horiz-adv-x="1063" arabic-form="final" 
d="M338 1205q60 -13 113 -13q77 0 131 12t83 36q43 35 43 72q0 15 -27 16l-100 2q-62 2 -94.5 35t-32.5 96q0 127 130 210q91 58 252 59h11l-1 -11l-9 -126l-1 -9h-9q-56 -1 -98.5 -9t-71 -22.5t-44 -34.5t-18.5 -46l100 -3q125 -3 147 -109q20 -103 -70 -202
q-101 -110 -328 -110q-61 0 -129 11l-10 2l2 10l19 125l1 11zM91 426q0 304 516 467l-5 28l-4 20l19 4l163 33l20 4l3 -21l83 -591q7 -50 27 -82.5t54.5 -48t84.5 -15.5h20q14 0 23 -8t12 -24t4 -27.5t1 -32.5v-24v-5q0 -24 -1 -37t-4 -31t-12 -26.5t-23 -8.5h-24
q-270 0 -335 211q-58 -44 -122 -66.5t-135 -22.5q-234 0 -328 155q-37 62 -37 149zM638 687q-166 -63 -247.5 -126.5t-81.5 -122.5q0 -26 7.5 -44.5t24.5 -31.5t44 -19.5t64 -6.5q72 0 144 44q85 52 67 170l-21 133z" />
    <glyph glyph-name="uniFDF2" unicode="&#x627;&#xfedf;&#xfee0;&#xfeea;" horiz-adv-x="2779" arabic-form="isolated" 
d="M1332 1723v402v10h10h88h10v-10v-402v-10h-10h-88h-10v10zM1433 1621q1 -21 1.5 -41.5t1.5 -41.5q-1 -44 13 -63t43 -19q30 0 45 22t16 69q0 5 -0.5 10t-1 11t-1 12.5t-1.5 14t-2.5 15t-3 16t-3.5 18t-4 19.5l-2 10l11 2l88 14l8 1l3 -8q18 -64 18 -125
q0 -104 -39.5 -158.5t-117.5 -54.5q-59 -1 -102 43q-37 -107 -156 -107q-72 0 -109 45.5t-39 132.5q-1 61 13 112l3 9l9 -1l78 -13l10 -2l-2 -10q-10 -46 -9 -81q0 -39 14 -56.5t44 -17.5q36 0 55 24.5t21 79.5q2 50 1 118v10h10h77h10v-9zM91 426q0 304 516 467l-5 28
l-4 20l19 4l163 33l20 4l3 -21l83 -591q7 -50 27 -82.5t54.5 -48t84.5 -15.5h20q14 0 23 -8t12 -24t4 -27.5t1 -32.5v-24v-5q0 -24 -1 -37t-4 -31t-12 -26.5t-23 -8.5h-24q-270 0 -335 211q-58 -44 -122 -66.5t-135 -22.5q-234 0 -328 155q-37 62 -37 149zM638 687
q-166 -63 -247.5 -126.5t-81.5 -122.5q0 -26 7.5 -44.5t24.5 -31.5t44 -19.5t64 -6.5q72 0 144 44q85 52 67 170l-21 133zM1084 0h-29q-47 0 -72 29q-26 29 -26 79v19q0 31 12 52q11 22 33.5 33.5t52.5 11.5h31q108 0 159 55q52 55 52 172v713v20h20h174h20v-20v-713
q0 -117 45 -172t138 -55h11q51 0 51 -97v-19q0 -27 -2 -44q-3 -19 -8 -31q-4 -9 -9 -16t-14 -12q-8 -5 -18 -5h-8q-196 0 -303 130q-106 -130 -310 -130zM1696 0q-47 0 -72 29q-26 29 -26 79v19q0 31 12 52q11 22 33.5 33.5t52.5 11.5h58q45 0 78 11t55 35q22 23 33 59
q10 37 10 86v912v20h20h174h20v-20v-918q0 -202 -100 -305q-101 -104 -296 -104h-52zM2444 1438h173h20v-20v-1397v-20h-20h-173h-20v20v1397v20h20z" />
    <glyph glyph-name="uniFE70" unicode="&#x20;&#x64b;" horiz-adv-x="791" arabic-form="isolated" 
d="M36 1076v104v7l6 2l455 187l14 5v-15v-103v-7l-6 -3l-456 -186l-13 -5v14zM36 1288v104v7l6 2l455 187l14 5v-15v-103v-7l-6 -3l-456 -186l-13 -5v14z" />
    <glyph glyph-name="uniFE72" unicode="&#x20;&#x64c;" horiz-adv-x="791" arabic-form="isolated" 
d="M314 1711q-4 -5 -7.5 -10.5t-5.5 -11.5t-3 -12t-1 -13q0 -25 14.5 -43.5t44.5 -31.5q6 -2 12.5 -4.5t14.5 -5.5t18 -6t21 -6q22 40 22 82q0 46 -17 67t-54 20q-9 0 -17.5 -1.5t-16 -4.5t-13.5 -8t-12 -11zM48 1515q2 -111 33 -163.5t90 -52.5q68 1 142 72q39 40 76 108
l-17 4q-34 7 -61 17.5t-47.5 24.5t-34.5 31q-17 23 -25.5 47.5t-8.5 51.5q0 53 18 89q47 91 156 91q76 1 122 -44q17 -16 28.5 -37.5t17 -47t5.5 -56.5q1 -37 -18 -100h17q29 -2 59 -2l9 -1v-9v-79v-10h-10q-40 1 -51 2l-69 7q-47 -110 -133 -184q-83 -73 -173 -73
q-196 -1 -201 313v10h10h56h10v-9z" />
    <glyph glyph-name="uniFE74" unicode="&#x20;&#x64d;" horiz-adv-x="791" arabic-form="isolated" 
d="M41 -446v104v6l6 3l456 186l14 6v-15v-104v-6l-7 -3l-455 -186l-14 -6v15zM41 -234v104v6l6 3l456 186l14 6v-15v-104v-6l-7 -3l-455 -186l-14 -6v15z" />
    <glyph glyph-name="uniFE76" unicode="&#x20;&#x64e;" horiz-adv-x="791" arabic-form="isolated" 
d="M5 1349v104v6l6 3l456 186l14 6v-15v-104v-6l-7 -3l-455 -186l-14 -6v15z" />
    <glyph glyph-name="uniFE78" unicode="&#x20;&#x64f;" horiz-adv-x="791" arabic-form="isolated" 
d="M532 1454q-61 0 -100 5l-26 3q-128 -177 -368 -189l-10 -1v11v78v10h9q173 7 261 120q-38 10 -77 32q-92 51 -92 143q1 33 10.5 61.5t27.5 51.5q49 59 135 59q21 0 41 -4t37.5 -13t33.5 -21q11 -9 20.5 -20t17 -23.5t12.5 -25.5q11 -30 11 -66q-1 -18 -3.5 -36.5t-7 -37
t-11.5 -36.5l6 -1q20 -1 38 -1.5t34 -0.5l11 1v-11v-78v-10h-10zM353 1572l3 6q20 46 20 86q0 36 -21 54q-5 4 -9.5 7t-9.5 5.5t-10 4t-10 2t-10 0.5q-40 1 -62 -27q-15 -20 -15 -48q0 -41 60 -68q20 -10 64 -22z" />
    <glyph glyph-name="uniFE7A" unicode="&#x20;&#x650;" horiz-adv-x="791" arabic-form="isolated" 
d="M52 -346v104v7l6 2l456 187l13 5v-15v-103v-7l-6 -3l-455 -186l-14 -5v14z" />
    <glyph glyph-name="uniFE7C" unicode="&#x20;&#x651;" horiz-adv-x="791" arabic-form="isolated" 
d="M337 1769q1 -21 1.5 -41.5t1.5 -41.5q-1 -44 13 -63t43 -19q30 0 45 22t16 69q0 5 -0.5 10t-1 11t-1 12.5t-1.5 14t-2.5 15t-3 16t-3.5 18t-4 19.5l-2 10l11 2l88 14l8 1l3 -8q18 -64 18 -125q0 -104 -39.5 -158.5t-117.5 -54.5q-59 -1 -102 43q-37 -107 -156 -107
q-72 0 -109 45.5t-39 132.5q-1 61 13 112l3 9l9 -1l78 -13l10 -2l-2 -10q-10 -46 -9 -81q0 -39 14 -56.5t44 -17.5q36 0 55 24.5t21 79.5q2 50 1 118v10h10h77h10v-9z" />
    <glyph glyph-name="uniFE7E" unicode="&#x20;&#x652;" horiz-adv-x="791" arabic-form="isolated" 
d="M107 1462q0 86 59.5 145.5t145.5 59.5t146 -60q30 -29 45 -66t15 -79q0 -86 -60 -146q-30 -30 -66.5 -45t-79.5 -15q-86 0 -145.5 60t-59.5 146zM214 1461q-1 -43 29 -72q29 -30 72 -30q42 0 72 30q10 9 16.5 20.5t10 24t3.5 27.5q-1 42 -30 72q-30 29 -72 29
q-43 0 -72 -29q-30 -30 -29 -72z" />
    <glyph glyph-name="uniFEF5" unicode="&#xfedf;&#xfe82;" horiz-adv-x="1219" arabic-form="isolated" 
d="M213 1522q-111 15 -203 -94l-101 126q118 170 288 143l149 -24q99 -16 219 46l66 -157q-129 -80 -277 -60zM279 1366q292 -707 398 -1097q196 77 196 391v758v20h20h173h20v-20v-759q0 -325 -174 -491q-174 -165 -516 -165q-140 0 -227 16l-16 3v17v181v23l23 -3
q155 -20 298 -13q-103 351 -397 1029l-7 16l15 9l165 94l20 12z" />
    <glyph glyph-name="uniFEF6" unicode="&#xfee0;&#xfe82;" horiz-adv-x="1293" arabic-form="final" 
d="M677 269q196 77 196 391v758v20h20h173h20v-20v-849q0 -120 22.5 -197t64.5 -113q41 -35 104 -35h25q10 0 17 -4t12 -12q4 -9 6 -16q3 -7 4 -21t1 -21.5v-22.5v-19v-6q0 -24 -0.5 -37t-4.5 -31q-3 -18 -12 -26t-23 -8h-39q-117 0 -197 52t-118 153q-172 -202 -552 -202
q-140 0 -227 16l-16 3v17v181v23l23 -3q152 -20 298 -13q-106 356 -397 1029l-7 16l15 9l165 94l20 12l9 -21q292 -706 398 -1097zM213 1522q-111 15 -203 -94l-101 126q118 170 288 143l149 -24q99 -16 219 46l66 -157q-129 -80 -277 -60z" />
    <glyph glyph-name="uniFEF7" unicode="&#xfedf;&#xfe84;" horiz-adv-x="1219" arabic-form="isolated" 
d="M55 1535q-62 58 -62 155q0 92 61 157q73 76 185 76q78 0 146 -44l5 -3v-5l1 -132v-19l-16 11q-15 10 -30 17t-31 12q-15 5 -30 8q-16 2 -31 2q-30 0 -52 -8q-23 -8 -38 -23q-4 -4 -7.5 -9t-6.5 -9q-3 -5 -5 -10q-2 -6 -3 -11t-2 -11t-1 -12q1 -26 22 -47q22 -21 66 -38
q11 -4 19 -2q25 5 140 27l12 3v-12v-126v-8l-8 -2l-406 -98l-13 -3v13v123v8l8 2zM279 1366q292 -707 398 -1097q196 77 196 391v758v20h20h173h20v-20v-759q0 -325 -174 -491q-174 -165 -516 -165q-140 0 -227 16l-16 3v17v181v23l23 -3q155 -20 298 -13
q-103 351 -397 1029l-7 16l15 9l165 94l20 12z" />
    <glyph glyph-name="uniFEF8" unicode="&#xfee0;&#xfe84;" horiz-adv-x="1293" arabic-form="final" 
d="M677 269q196 77 196 391v758v20h20h173h20v-20v-849q0 -120 22.5 -197t64.5 -113q41 -35 104 -35h25q10 0 17 -4t12 -12q4 -9 6 -16q3 -7 4 -21t1 -21.5v-22.5v-19v-6q0 -24 -0.5 -37t-4.5 -31q-3 -18 -12 -26t-23 -8h-39q-117 0 -197 52t-118 153q-172 -202 -552 -202
q-140 0 -227 16l-16 3v17v181v23l23 -3q152 -20 298 -13q-106 356 -397 1029l-7 16l15 9l165 94l20 12l9 -21q292 -706 398 -1097zM55 1535q-62 58 -62 155q0 92 61 157q73 76 185 76q78 0 146 -44l5 -3v-5l1 -132v-19l-16 11q-15 10 -30 17t-31 12q-15 5 -30 8q-16 2 -31 2
q-30 0 -52 -8q-23 -8 -38 -23q-4 -4 -7.5 -9t-6.5 -9q-3 -5 -5 -10q-2 -6 -3 -11t-2 -11t-1 -12q1 -26 22 -47q22 -21 66 -38q11 -4 19 -2q25 5 140 27l12 3v-12v-126v-8l-8 -2l-406 -98l-13 -3v13v123v8l8 2z" />
    <glyph glyph-name="uniFEF9" unicode="&#xfedf;&#xfe88;" horiz-adv-x="1219" arabic-form="isolated" 
d="M147 -497q-62 58 -62 155q0 92 61 157q73 76 185 76q78 0 146 -44l5 -3v-5l1 -132v-19l-16 11q-15 10 -30 17t-31 12q-15 5 -30 8q-16 2 -31 2q-30 0 -52 -8q-23 -8 -38 -23q-4 -4 -7.5 -9t-6.5 -9q-3 -5 -5 -10q-2 -6 -3 -11t-2 -11t-1 -12q1 -26 22 -47q22 -21 66 -38
q11 -4 19 -2q25 5 140 27l12 3v-12v-126v-8l-8 -2l-406 -98l-13 -3v13v123v8l8 2zM279 1366q292 -707 398 -1097q196 77 196 391v758v20h20h173h20v-20v-759q0 -325 -174 -491q-174 -165 -516 -165q-140 0 -227 16l-16 3v17v181v23l23 -3q155 -20 298 -13
q-103 351 -397 1029l-7 16l15 9l165 94l20 12z" />
    <glyph glyph-name="uniFEFA" unicode="&#xfee0;&#xfe88;" horiz-adv-x="1293" arabic-form="final" 
d="M147 -497q-62 58 -62 155q0 92 61 157q73 76 185 76q78 0 146 -44l5 -3v-5l1 -132v-19l-16 11q-15 10 -30 17t-31 12q-15 5 -30 8q-16 2 -31 2q-30 0 -52 -8q-23 -8 -38 -23q-4 -4 -7.5 -9t-6.5 -9q-3 -5 -5 -10q-2 -6 -3 -11t-2 -11t-1 -12q1 -26 22 -47q22 -21 66 -38
q11 -4 19 -2q25 5 140 27l12 3v-12v-126v-8l-8 -2l-406 -98l-13 -3v13v123v8l8 2zM677 269q196 77 196 391v758v20h20h173h20v-20v-849q0 -120 22.5 -197t64.5 -113q41 -35 104 -35h25q10 0 17 -4t12 -12q4 -9 6 -16q3 -7 4 -21t1 -21.5v-22.5v-19v-6q0 -24 -0.5 -37
t-4.5 -31q-3 -18 -12 -26t-23 -8h-39q-117 0 -197 52t-118 153q-172 -202 -552 -202q-140 0 -227 16l-16 3v17v181v23l23 -3q152 -20 298 -13q-106 356 -397 1029l-7 16l15 9l165 94l20 12l9 -21q292 -706 398 -1097z" />
    <glyph glyph-name="uniFEFB" unicode="&#xfedf;&#xfe8e;" horiz-adv-x="1219" arabic-form="isolated" 
d="M279 1366q292 -707 398 -1097q196 77 196 391v758v20h20h173h20v-20v-759q0 -325 -174 -491q-174 -165 -516 -165q-140 0 -227 16l-16 3v17v181v23l23 -3q155 -20 298 -13q-103 351 -397 1029l-7 16l15 9l165 94l20 12z" />
    <glyph glyph-name="uniFEFC" unicode="&#xfee0;&#xfe8e;" horiz-adv-x="1293" arabic-form="final" 
d="M677 269q196 77 196 391v758v20h20h173h20v-20v-849q0 -120 22.5 -197t64.5 -113q41 -35 104 -35h25q10 0 17 -4t12 -12q4 -9 6 -16q3 -7 4 -21t1 -21.5v-22.5v-19v-6q0 -24 -0.5 -37t-4.5 -31q-3 -18 -12 -26t-23 -8h-39q-117 0 -197 52t-118 153q-172 -202 -552 -202
q-140 0 -227 16l-16 3v17v181v23l23 -3q152 -20 298 -13q-106 356 -397 1029l-7 16l15 9l165 94l20 12l9 -21q292 -706 398 -1097z" />
    <glyph glyph-name="uni0651064B" unicode="&#x64b;&#x651;" 
d="M324 1258v104v7l6 2l455 187l14 5v-15v-103v-7l-6 -3l-456 -186l-13 -5v14zM324 1470v104v7l6 2l455 187l14 5v-15v-103v-7l-6 -3l-456 -186l-13 -5v14zM625 1228q1 -21 1.5 -41.5t1.5 -41.5q-1 -44 13 -63t43 -19q30 0 45 22t16 69q0 5 -0.5 10t-1 11t-1 12.5t-1.5 14
t-2.5 15t-3 16t-3.5 18t-4 19.5l-2 10l11 2l88 14l8 1l3 -8q18 -64 18 -125q0 -104 -39.5 -158.5t-117.5 -54.5q-59 -1 -102 43q-37 -107 -156 -107q-72 0 -109 45.5t-39 132.5q-1 61 13 112l3 9l9 -1l78 -13l10 -2l-2 -10q-10 -46 -9 -81q0 -39 14 -56.5t44 -17.5
q36 0 55 24.5t21 79.5q2 50 1 118v10h10h77h10v-9z" />
    <glyph glyph-name="uni0651064C" unicode="&#x64c;&#x651;" 
d="M589 1783q-4 -5 -7.5 -10.5t-5.5 -11.5t-3 -12t-1 -13q0 -25 14.5 -43.5t44.5 -31.5q6 -2 12.5 -4.5t14.5 -5.5t18 -6t21 -6q22 40 22 82q0 46 -17 67t-54 20q-9 0 -17.5 -1.5t-16 -4.5t-13.5 -8t-12 -11zM323 1587q2 -111 33 -163.5t90 -52.5q68 1 142 72q39 40 76 108
l-17 4q-34 7 -61 17.5t-47.5 24.5t-34.5 31q-17 23 -25.5 47.5t-8.5 51.5q0 53 18 89q47 91 156 91q76 1 122 -44q17 -16 28.5 -37.5t17 -47t5.5 -56.5q1 -37 -18 -100h17q29 -2 59 -2l9 -1v-9v-79v-10h-10q-40 1 -51 2l-69 7q-47 -110 -133 -184q-83 -73 -173 -73
q-196 -1 -201 313v10h10h56h10v-9zM642 1222q1 -21 1.5 -41.5t1.5 -41.5q-1 -44 13 -63t43 -19q30 0 45 22t16 69q0 5 -0.5 10t-1 11t-1 12.5t-1.5 14t-2.5 15t-3 16t-3.5 18t-4 19.5l-2 10l11 2l88 14l8 1l3 -8q18 -64 18 -125q0 -104 -39.5 -158.5t-117.5 -54.5
q-59 -1 -102 43q-37 -107 -156 -107q-72 0 -109 45.5t-39 132.5q-1 61 13 112l3 9l9 -1l78 -13l10 -2l-2 -10q-10 -46 -9 -81q0 -39 14 -56.5t44 -17.5q36 0 55 24.5t21 79.5q2 50 1 118v10h10h77h10v-9z" />
    <glyph glyph-name="uni064B0651" unicode="&#x64d;&#x651;" 
d="M523 1754q1 -21 1.5 -41.5t1.5 -41.5q-1 -44 13 -63t43 -19q30 0 45 22t16 69q0 5 -0.5 10t-1 11t-1 12.5t-1.5 14t-2.5 15t-3 16t-3.5 18t-4 19.5l-2 10l11 2l88 14l8 1l3 -8q18 -64 18 -125q0 -104 -39.5 -158.5t-117.5 -54.5q-59 -1 -102 43q-37 -107 -156 -107
q-72 0 -109 45.5t-39 132.5q-1 61 13 112l3 9l9 -1l78 -13l10 -2l-2 -10q-10 -46 -9 -81q0 -39 14 -56.5t44 -17.5q36 0 55 24.5t21 79.5q2 50 1 118v10h10h77h10v-9zM273 869v104v7l6 2l455 187l14 5v-15v-103v-7l-6 -3l-456 -186l-13 -5v14zM273 1081v104v7l6 2l455 187
l14 5v-15v-103v-7l-6 -3l-456 -186l-13 -5v14z" />
    <glyph glyph-name="uni0651064E" unicode="&#x64e;&#x651;" 
d="M308 1457v104v6l6 3l456 186l14 6v-15v-104v-6l-7 -3l-455 -186l-14 -6v15zM630 1436q1 -21 1.5 -41.5t1.5 -41.5q-1 -44 13 -63t43 -19q30 0 45 22t16 69q0 5 -0.5 10t-1 11t-1 12.5t-1.5 14t-2.5 15t-3 16t-3.5 18t-4 19.5l-2 10l11 2l88 14l8 1l3 -8q18 -64 18 -125
q0 -104 -39.5 -158.5t-117.5 -54.5q-59 -1 -102 43q-37 -107 -156 -107q-72 0 -109 45.5t-39 132.5q-1 61 13 112l3 9l9 -1l78 -13l10 -2l-2 -10q-10 -46 -9 -81q0 -39 14 -56.5t44 -17.5q36 0 55 24.5t21 79.5q2 50 1 118v10h10h77h10v-9z" />
    <glyph glyph-name="uni0651064F" unicode="&#x64f;&#x651;" 
d="M809 1441q-61 0 -100 5l-26 3q-128 -177 -368 -189l-10 -1v11v78v10h9q173 7 261 120q-38 10 -77 32q-92 51 -92 143q1 33 10.5 61.5t27.5 51.5q49 59 135 59q21 0 41 -4t37.5 -13t33.5 -21q11 -9 20.5 -20t17 -23.5t12.5 -25.5q11 -30 11 -66q-1 -18 -3.5 -36.5t-7 -37
t-11.5 -36.5l6 -1q20 -1 38 -1.5t34 -0.5l11 1v-11v-78v-10h-10zM630 1559l3 6q20 46 20 86q0 36 -21 54q-5 4 -9.5 7t-9.5 5.5t-10 4t-10 2t-10 0.5q-40 1 -62 -27q-15 -20 -15 -48q0 -41 60 -68q20 -10 64 -22zM627 1229q1 -21 1.5 -41.5t1.5 -41.5q-1 -44 13 -63t43 -19
q30 0 45 22t16 69q0 5 -0.5 10t-1 11t-1 12.5t-1.5 14t-2.5 15t-3 16t-3.5 18t-4 19.5l-2 10l11 2l88 14l8 1l3 -8q18 -64 18 -125q0 -104 -39.5 -158.5t-117.5 -54.5q-59 -1 -102 43q-37 -107 -156 -107q-72 0 -109 45.5t-39 132.5q-1 61 13 112l3 9l9 -1l78 -13l10 -2
l-2 -10q-10 -46 -9 -81q0 -39 14 -56.5t44 -17.5q36 0 55 24.5t21 79.5q2 50 1 118v10h10h77h10v-9z" />
    <glyph glyph-name="uni064E0651" unicode="&#x650;&#x651;" 
d="M615 1641q1 -21 1.5 -41.5t1.5 -41.5q-1 -44 13 -63t43 -19q30 0 45 22t16 69q0 5 -0.5 10t-1 11t-1 12.5t-1.5 14t-2.5 15t-3 16t-3.5 18t-4 19.5l-2 10l11 2l88 14l8 1l3 -8q18 -64 18 -125q0 -104 -39.5 -158.5t-117.5 -54.5q-59 -1 -102 43q-37 -107 -156 -107
q-72 0 -109 45.5t-39 132.5q-1 61 13 112l3 9l9 -1l78 -13l10 -2l-2 -10q-10 -46 -9 -81q0 -39 14 -56.5t44 -17.5q36 0 55 24.5t21 79.5q2 50 1 118v10h10h77h10v-9zM344 999v104v6l6 3l456 186l14 6v-15v-104v-6l-7 -3l-455 -186l-14 -6v15z" />
    <glyph glyph-name="uni0654064E" unicode="&#x64e;&#x654;" 
d="M314 1725v104v6l6 3l456 186l14 6v-15v-104v-6l-7 -3l-455 -186l-14 -6v15zM428 1325q-62 58 -62 155q0 92 61 157q73 76 185 76q78 0 146 -44l5 -3v-5l1 -132v-19l-16 11q-15 10 -30 17t-31 12q-15 5 -30 8q-16 2 -31 2q-30 0 -52 -8q-23 -8 -38 -23q-4 -4 -7.5 -9
t-6.5 -9q-3 -5 -5 -10q-2 -6 -3 -11t-2 -11t-1 -12q1 -26 22 -47q22 -21 66 -38q11 -4 19 -2q25 5 140 27l12 3v-12v-126v-8l-8 -2l-406 -98l-13 -3v13v123v8l8 2z" />
    <glyph glyph-name="uni0654064F" unicode="&#x64f;&#x654;" 
d="M787 1665q-61 0 -100 5l-26 3q-128 -177 -368 -189l-10 -1v11v78v10h9q173 7 261 120q-38 10 -77 32q-92 51 -92 143q1 33 10.5 61.5t27.5 51.5q49 59 135 59q21 0 41 -4t37.5 -13t33.5 -21q11 -9 20.5 -20t17 -23.5t12.5 -25.5q11 -30 11 -66q-1 -18 -3.5 -36.5t-7 -37
t-11.5 -36.5l6 -1q20 -1 38 -1.5t34 -0.5l11 1v-11v-78v-10h-10zM608 1783l3 6q20 46 20 86q0 36 -21 54q-5 4 -9.5 7t-9.5 5.5t-10 4t-10 2t-10 0.5q-40 1 -62 -27q-15 -20 -15 -48q0 -41 60 -68q20 -10 64 -22zM421 1107q-62 58 -62 155q0 92 61 157q73 76 185 76
q78 0 146 -44l5 -3v-5l1 -132v-19l-16 11q-15 10 -30 17t-31 12q-15 5 -30 8q-16 2 -31 2q-30 0 -52 -8q-23 -8 -38 -23q-4 -4 -7.5 -9t-6.5 -9q-3 -5 -5 -10q-2 -6 -3 -11t-2 -11t-1 -12q1 -26 22 -47q22 -21 66 -38q11 -4 19 -2q25 5 140 27l12 3v-12v-126v-8l-8 -2
l-406 -98l-13 -3v13v123v8l8 2z" />
    <glyph glyph-name="uni066E.fina" unicode="&#x66e;" horiz-adv-x="1931" 
d="M890 0q-400 0 -605.5 126t-205.5 380q0 139 56 265l9 18l18 -8l157 -68l18 -8l-7 -18q-32 -81 -32 -154q0 -309 587 -309q128 0 233.5 8.5t183.5 24.5t131 38.5t80 52.5q14 14 21.5 41t7.5 67v21t-0.5 18.5t-0.5 15.5l-6 82l-1 19l19 2l164 20l21 2l2 -21l16 -215
q6 -78 45 -129q38 -47 125 -47h13q10 0 17 -4t11.5 -12.5t7 -15.5t3.5 -21t1 -21.5v-22.5v-19v-6q0 -24 -0.5 -37t-4 -31t-12.5 -26t-23 -8h-13q-208 0 -305 164q-184 -164 -727 -164h-4z" />
    <glyph glyph-name="uni066F.fina" unicode="&#x66f;" horiz-adv-x="1526" 
d="M738 -307q151 0 255 35t161 103t71 170h-126q-189 0 -287.5 80.5t-98.5 237.5q0 126 53 238q50 103 126 155.5t177 52.5q159 0 250.5 -138t116.5 -403h98q10 0 17 -4t11.5 -12.5t7 -15.5t3.5 -21t1 -21.5v-22.5v-19v-6q0 -24 -0.5 -37t-4 -31t-12.5 -26t-23 -8l-100 1
q-34 -261 -209.5 -392.5t-485.5 -132.5q-43 0 -82.5 2.5t-76.5 7.5t-71 13t-66 18t-61 23q-149 66 -224 201q-74 133 -75 328q-1 234 102 455l8 17l17 -7l159 -65l18 -8l-7 -18q-42 -106 -62 -196q-20 -91 -20 -170q2 -194 110 -289t330 -95zM1229 225q-25 310 -172 311
q-81 1 -118 -107q-8 -25 -12.5 -48.5t-4.5 -46.5q0 -55 39 -82t128 -27h140z" />
    <glyph glyph-name="uni06A1.init" unicode="&#x6a1;" horiz-adv-x="914" 
d="M446 372q-169 0 -258 73.5t-91 217.5q0 45 8 87q31 164 119 254q90 92 222 92q90 0 158 -44q175 -113 211 -433q7 -66 7 -125q0 -145 -35.5 -245.5t-107.5 -154.5q-125 -94 -434 -94h-252q-39 0 -58.5 29.5t-19.5 78.5v19q0 44 20 70.5t58 26.5h263q353 0 369 170
q-29 -8 -58 -12.5t-59 -7t-62 -2.5zM302 690q0 -53 37 -79t120 -25q73 0 148 20q-14 103 -47 173q-44 97 -121 97q-89 0 -126 -120q-11 -35 -11 -66z" />
    <glyph glyph-name="uni06A1.medi" unicode="&#x6a1;" horiz-adv-x="1052" 
d="M465 647q-54 -53 -54 -103q0 -54 59 -122q34 -39 59.5 -58.5t37.5 -19.5q5 0 13.5 4.5t20.5 13.5t28.5 24.5t34.5 35.5q59 68 59 121q0 6 -1 12t-2.5 12.5t-4 12.5t-5.5 12.5t-7 13t-9 13t-10.5 13.5t-12.5 14t-15 14l-16 14q-46 37 -79 37q-9 0 -22 -6t-32.5 -21
t-41.5 -37zM563 125q-181 -125 -529 -125h-41q-39 0 -58.5 29.5t-19.5 78.5v19q0 44 20 70.5t58 26.5h41q210 1 301 22q-139 132 -139 309q0 185 206 328q76 53 165 53q87 0 151 -39q221 -134 221 -354q0 -167 -140 -297q86 -22 229 -22h32q10 0 17.5 -4t11.5 -12.5
t6.5 -15.5t3.5 -21t1 -21.5v-22.5v-19v-7q0 -24 -0.5 -36.5t-4 -30.5t-12 -26t-23.5 -8h-30q-291 0 -467 125z" />
    <glyph glyph-name="uni06A1.fina" unicode="&#x6a1;" horiz-adv-x="2025" 
d="M1438 647q-54 -53 -54 -103q0 -17 6 -36t19.5 -40.5t33.5 -45.5q23 -27 43.5 -45t33 -25.5t20.5 -7.5q5 0 13.5 4.5t20.5 13.5t28.5 24.5t34.5 35.5q59 68 58 121q1 31 -19.5 63.5t-62.5 67.5q-46 37 -79 37q-32 0 -96 -64zM1535 125q-194 -125 -641 -125h-34
q-385 0 -583 126.5t-198 379.5q0 139 56 265l9 18l18 -8l157 -68l18 -8l-7 -18q-32 -81 -32 -154q0 -309 573 -309q311 0 435 24q-137 131 -137 307q0 185 206 328q76 53 165 53q21 0 41.5 -2.5t39.5 -7.5t36.5 -12t33.5 -17q221 -134 221 -354q0 -84 -35.5 -158.5
t-104.5 -138.5q86 -22 229 -22h32q10 0 17.5 -4t11.5 -12.5t6.5 -15.5t3.5 -21t1 -21.5v-22.5v-19v-7q0 -24 -0.5 -36.5t-4 -30.5t-12 -26t-23.5 -8h-30q-145 0 -262 31t-206 94z" />
    <glyph glyph-name="uni06CA.fina" unicode="&#x6ca;" horiz-adv-x="893" 
d="M419 1043l136 136l7 7l7 -7l137 -137l7 -7l-7 -7l-136 -136l-7 -7l-7 7l-137 137l-7 7zM115 1043l136 136l7 7l7 -7l137 -137l7 -7l-7 -7l-136 -136l-7 -7l-7 7l-137 137l-7 7zM609 224q-25 310 -172 311q-80 1 -118 -107q-17 -49 -17 -95q0 -55 39.5 -82t127.5 -27h140z
M816 223h85q37 0 40 -72v-33v-10v-6q0 -24 -0.5 -37t-4 -31t-12.5 -26t-23 -8l-96 1q-86 -431 -689 -491l-17 -2l-4 17l-43 171l-5 23l23 2q437 48 527 279h-118q-189 0 -287.5 80.5t-98.5 237.5q0 126 54 238q99 208 302 208q160 0 251 -138t116 -403z" />
    <glyph glyph-name="uni06D5.fina" unicode="&#x6d5;" horiz-adv-x="1063" 
d="M91 426q0 304 516 467l-5 28l-4 20l19 4l163 33l20 4l3 -21l83 -591q7 -50 27 -82.5t54.5 -48t84.5 -15.5h20q14 0 23 -8t12 -24t4 -27.5t1 -32.5v-24v-5q0 -24 -1 -37t-4 -31t-12 -26.5t-23 -8.5h-24q-270 0 -335 211q-58 -44 -122 -66.5t-135 -22.5q-234 0 -328 155
q-37 62 -37 149zM638 687q-166 -63 -247.5 -126.5t-81.5 -122.5q0 -26 7.5 -44.5t24.5 -31.5t44 -19.5t64 -6.5q72 0 144 44q85 52 67 170l-21 133z" />
    <glyph glyph-name="uniFB56" unicode="&#x67e;" horiz-adv-x="1837" arabic-form="isolated" 
d="M891 0q-400 0 -605.5 126t-205.5 380q0 139 56 265l9 18l18 -8l157 -68l18 -8l-7 -18q-32 -80 -32 -152q0 -154 140.5 -232.5t432.5 -78.5q494 0 620 92q56 41 56 149q0 88 -36 241l-4 19l19 5l163 41l18 5l6 -18q51 -154 51 -278q0 -247 -147 -350q-186 -130 -724 -130
h-3zM778.113 -561.883l143.373 142.303l7.49023 7.48926l7.48926 -7.48926l142.303 -141.233l7.48926 -8.55957l-7.48926 -7.48926l-143.373 -142.303l-7.48926 -7.49023l-7.48926 7.49023l-142.304 142.303l-7.48926 7.48926zM942.886 -293.326l143.372 142.303
l7.49023 7.48926l7.48926 -7.48926l142.303 -141.233l7.49023 -7.48926l-7.49023 -7.49023l-143.372 -143.372l-7.49023 -7.49023l-7.48926 7.49023l-142.303 142.303l-7.49023 7.48926zM617.622 -293.326l143.372 142.303l7.49023 7.48926l7.48926 -7.48926
l142.303 -141.233l7.49023 -7.48926l-7.49023 -7.49023l-143.372 -143.372l-7.49023 -7.49023l-7.48926 7.49023l-142.303 142.303l-7.49023 7.48926z" />
    <glyph glyph-name="uniFB57" unicode="&#x67e;" horiz-adv-x="1931" arabic-form="final" 
d="M780.113 -561.883l143.373 142.303l7.49023 7.48926l7.48926 -7.48926l142.303 -141.233l7.48926 -8.55957l-7.48926 -7.48926l-143.373 -142.303l-7.48926 -7.49023l-7.48926 7.49023l-142.304 142.303l-7.48926 7.48926zM944.886 -293.326l143.372 142.303
l7.49023 7.48926l7.48926 -7.48926l142.303 -141.233l7.49023 -7.48926l-7.49023 -7.49023l-143.372 -143.372l-7.49023 -7.49023l-7.48926 7.49023l-142.303 142.303l-7.49023 7.48926zM619.622 -293.326l143.372 142.303l7.49023 7.48926l7.48926 -7.48926
l142.303 -141.233l7.49023 -7.48926l-7.49023 -7.49023l-143.372 -143.372l-7.49023 -7.49023l-7.48926 7.49023l-142.303 142.303l-7.49023 7.48926zM890 0q-400 0 -605.5 126t-205.5 380q0 139 56 265l9 18l18 -8l157 -68l18 -8l-7 -18q-32 -81 -32 -154q0 -309 587 -309
q128 0 233.5 8.5t183.5 24.5t131 38.5t80 52.5q14 14 21.5 41t7.5 67v21t-0.5 18.5t-0.5 15.5l-6 82l-1 19l19 2l164 20l21 2l2 -21l16 -215q6 -78 45 -129q38 -47 125 -47h13q10 0 17 -4t11.5 -12.5t7 -15.5t3.5 -21t1 -21.5v-22.5v-19v-6q0 -24 -0.5 -37t-4 -31t-12.5 -26
t-23 -8h-13q-208 0 -305 164q-184 -164 -727 -164h-4z" />
    <glyph glyph-name="uniFB58" unicode="&#x67e;" horiz-adv-x="673" arabic-form="initial" 
d="M69 0h-76q-39 0 -58.5 29.5t-19.5 78.5v19q0 44 20 70.5t58 26.5h76q77 0 129.5 8t77.5 21q75 44 75 192q0 117 -36 260l-5 19l19 5l164 41l18 5l6 -18q49 -159 49 -309q0 -255 -148 -367q-107 -81 -349 -81zM127.113 -561.883l143.373 142.303l7.49023 7.48926
l7.48926 -7.48926l142.303 -141.233l7.48926 -8.55957l-7.48926 -7.48926l-143.373 -142.303l-7.48926 -7.49023l-7.48926 7.49023l-142.304 142.303l-7.48926 7.48926zM291.886 -293.326l143.372 142.303l7.49023 7.48926l7.48926 -7.48926l142.303 -141.233
l7.49023 -7.48926l-7.49023 -7.49023l-143.372 -143.372l-7.49023 -7.49023l-7.48926 7.49023l-142.303 142.303l-7.49023 7.48926zM-33.3779 -293.326l143.372 142.303l7.49023 7.48926l7.48926 -7.48926l142.303 -141.233l7.49023 -7.48926l-7.49023 -7.49023
l-143.372 -143.372l-7.49023 -7.49023l-7.48926 7.49023l-142.303 142.303l-7.49023 7.48926z" />
    <glyph glyph-name="uniFB59" unicode="&#x67e;" horiz-adv-x="717" arabic-form="medial" 
d="M127.113 -561.883l143.373 142.303l7.49023 7.48926l7.48926 -7.48926l142.303 -141.233l7.48926 -8.55957l-7.48926 -7.48926l-143.373 -142.303l-7.48926 -7.49023l-7.48926 7.49023l-142.304 142.303l-7.48926 7.48926zM291.886 -293.326l143.372 142.303
l7.49023 7.48926l7.48926 -7.48926l142.303 -141.233l7.49023 -7.48926l-7.49023 -7.49023l-143.372 -143.372l-7.49023 -7.49023l-7.48926 7.49023l-142.303 142.303l-7.49023 7.48926zM-33.3779 -293.326l143.372 142.303l7.49023 7.48926l7.48926 -7.48926
l142.303 -141.233l7.49023 -7.48926l-7.49023 -7.49023l-143.372 -143.372l-7.49023 -7.49023l-7.48926 7.49023l-142.303 142.303l-7.49023 7.48926zM765 108v-6q0 -24 -1 -37t-4 -30.5t-12 -26t-23 -8.5h-10q-191 0 -275 126q-108 -126 -344 -126h-104q-39 0 -58 29.5
t-19 78.5v19q0 44 19.5 70.5t57.5 26.5h99q214 0 236 116q6 33 6 79q0 49 -3 93l-5 82l-2 19l19 2l165 20l21 2l1 -21l16 -231q4 -56 24 -91.5t56 -52.5t92 -17h8q14 0 23 -8t12 -26t4 -30.5t1 -36.5v-5v-10z" />
    <glyph glyph-name="uniFB7A" unicode="&#x686;" horiz-adv-x="1366" arabic-form="isolated" 
d="M105 -125q0 288 171 476t508 274q-12 5 -25.5 10t-29.5 12q-191 77 -259 77q-35 0 -65.5 -9.5t-56.5 -28.5t-49 -48l-28 -36l-10 -13l-14 7l-154 76l-20 10l12 18l16 28q65 107 158.5 162t211.5 56q45 0 94.5 -10t103.5 -29.5t115 -48.5q308 -150 475 -157l20 -1l-1 -21
l-13 -174l-1 -17l-18 -1q-25 -2 -48.5 -3.5t-46 -4t-44 -5t-41.5 -5t-39 -5.5t-36.5 -6.5t-33.5 -7.5q-642 -149 -642 -559q0 -175 125.5 -262t385.5 -87q212 0 409 94l23 11l5 -25l36 -179l3 -15l-14 -7q-203 -99 -476 -99q-131 0 -237.5 21t-191 64t-144.5 107
q-134 145 -134 361zM673.113 -187.883l143.373 142.303l7.49023 7.48926l7.48926 -7.48926l142.303 -141.233l7.48926 -8.55957l-7.48926 -7.48926l-143.373 -142.303l-7.48926 -7.49023l-7.48926 7.49023l-142.304 142.303l-7.48926 7.48926zM837.886 80.6738
l143.372 142.303l7.49023 7.48926l7.48926 -7.48926l142.303 -141.233l7.49023 -7.48926l-7.49023 -7.49023l-143.372 -143.372l-7.49023 -7.49023l-7.48926 7.49023l-142.303 142.303l-7.49023 7.48926zM512.622 80.6738l143.372 142.303l7.49023 7.48926l7.48926 -7.48926
l142.303 -141.233l7.49023 -7.48926l-7.49023 -7.49023l-143.372 -143.372l-7.49023 -7.49023l-7.48926 7.49023l-142.303 142.303l-7.49023 7.48926z" />
    <glyph glyph-name="uniFB7B" unicode="&#x686;" horiz-adv-x="1386" arabic-form="final" 
d="M553.152 -238.598l127.244 126.295l6.64648 6.64746l6.64746 -6.64746l126.295 -125.345l6.64746 -7.59668l-6.64746 -6.64746l-127.244 -126.295l-6.64746 -6.64648l-6.64746 6.64648l-126.294 126.295l-6.64746 6.64746zM699.388 -0.251953l127.245 126.295
l6.64648 6.64746l6.64746 -6.64746l126.295 -125.345l6.64648 -6.64746l-6.64648 -6.64648l-127.245 -127.245l-6.64648 -6.64648l-6.64746 6.64648l-126.295 126.295l-6.64648 6.64746zM410.714 -0.251953l127.245 126.295l6.64648 6.64746l6.64746 -6.64746
l126.295 -125.345l6.64648 -6.64746l-6.64648 -6.64648l-127.245 -127.245l-6.64648 -6.64648l-6.64746 6.64648l-126.295 126.295l-6.64648 6.64746zM1278 679l-13 -174l-1 -17l-18 -1q-92 -7 -176 -18q2 -84 30.5 -138t85.5 -80.5t145 -26.5h63q14 0 23 -8t12 -24t4 -27.5
t1 -32.5v-24v-5q0 -25 -0.5 -37.5t-4 -30.5t-12.5 -26.5t-23 -8.5h-63q-220 0 -335 109t-120 321q-284 -76 -422.5 -210.5t-138.5 -328.5q0 -175 125.5 -262t385.5 -87q212 0 409 94l23 11l5 -25l36 -179l3 -15l-14 -7q-203 -99 -476 -99q-131 0 -237.5 21t-191 64
t-144.5 107q-134 145 -134 361q0 289 171 476.5t508 273.5q-12 5 -25.5 10t-29.5 12q-191 77 -259 77q-35 0 -65.5 -9.5t-56.5 -28.5t-49 -48l-28 -36l-10 -13l-14 7l-154 76l-20 10l12 18l16 28q133 218 371 218q131 0 312 -88q308 -150 475 -157l20 -1z" />
    <glyph glyph-name="uniFB7C" unicode="&#x686;" horiz-adv-x="1337" arabic-form="initial" 
d="M-7 0q-39 0 -58.5 29.5t-19.5 78.5v19q0 44 20 70.5t58 26.5h60q325 0 807 249l33 17q-29 10 -71.5 27t-102.5 42q-192 77 -259 77q-104 0 -171 -86l-28 -36l-10 -13l-14 7l-154 76l-20 10l12 18l16 28q65 108 158.5 162.5t211.5 55.5q132 0 313 -88q308 -150 475 -157
l19 -1v-20l-2 -173v-18l-18 -2q-111 -10 -417 -171q-433 -228 -790 -228h-48zM541.113 -561.883l143.373 142.303l7.49023 7.48926l7.48926 -7.48926l142.303 -141.233l7.48926 -8.55957l-7.48926 -7.48926l-143.373 -142.303l-7.48926 -7.49023l-7.48926 7.49023
l-142.304 142.303l-7.48926 7.48926zM705.886 -293.326l143.372 142.303l7.49023 7.48926l7.48926 -7.48926l142.303 -141.233l7.49023 -7.48926l-7.49023 -7.49023l-143.372 -143.372l-7.49023 -7.49023l-7.48926 7.49023l-142.303 142.303l-7.49023 7.48926z
M380.622 -293.326l143.372 142.303l7.49023 7.48926l7.48926 -7.48926l142.303 -141.233l7.49023 -7.48926l-7.49023 -7.49023l-143.372 -143.372l-7.49023 -7.49023l-7.48926 7.49023l-142.303 142.303l-7.49023 7.48926z" />
    <glyph glyph-name="uniFB7D" unicode="&#x686;" horiz-adv-x="1351" arabic-form="medial" 
d="M541.113 -561.883l143.373 142.303l7.49023 7.48926l7.48926 -7.48926l142.303 -141.233l7.48926 -8.55957l-7.48926 -7.48926l-143.373 -142.303l-7.48926 -7.49023l-7.48926 7.49023l-142.304 142.303l-7.48926 7.48926zM705.886 -293.326l143.372 142.303
l7.49023 7.48926l7.48926 -7.48926l142.303 -141.233l7.49023 -7.48926l-7.49023 -7.49023l-143.372 -143.372l-7.49023 -7.49023l-7.48926 7.49023l-142.303 142.303l-7.49023 7.48926zM380.622 -293.326l143.372 142.303l7.49023 7.48926l7.48926 -7.48926
l142.303 -141.233l7.49023 -7.48926l-7.49023 -7.49023l-143.372 -143.372l-7.49023 -7.49023l-7.48926 7.49023l-142.303 142.303l-7.49023 7.48926zM893 490q-28 10 -71 27t-103 42q-192 77 -259 77q-104 0 -171 -86l-28 -36l-10 -13l-14 7l-154 76l-20 10l12 18l16 28
q65 108 158.5 162.5t211.5 55.5q132 0 313 -88q308 -150 475 -157l19 -1v-20l-2 -173v-19l-18 -1q-36 -3 -84 -18.5t-104 -42.5q15 -114 257 -114h44q14 0 22.5 -8t12 -24t4.5 -27.5t1 -32.5v-24q0 -12 -0.5 -24.5t-1 -24.5t-3 -23t-6.5 -19t-11.5 -12.5t-18.5 -4.5h-59
q-178 0 -283 64.5t-130 193.5q-14 -7 -28 -14.5t-29 -15.5q-433 -228 -790 -228h-48q-39 0 -58.5 29.5t-19.5 78.5v19q0 44 20 70.5t58 26.5h60q325 0 807 249z" />
    <glyph glyph-name="uniFB8A" unicode="&#x698;" horiz-adv-x="890" arabic-form="isolated" 
d="M663 560q86 -195 86 -376q0 -298 -181 -467t-536 -207l-18 -2l-4 17l-43 170l-5 23l23 2q278 28 413.5 140.5t134.5 311.5q0 149 -76 312l-9 20l20 7l171 59l17 7zM353.113 1132.92l142.304 142.303l7.48926 7.48926l7.48926 -7.48926l143.373 -143.373l7.48926 -7.48926
l-7.48926 -7.49023l-142.303 -142.303l-7.48926 -7.48926l-7.49023 7.48926l-143.373 143.373l-7.48926 7.48926zM517.886 864.365l142.303 142.303l7.48926 7.48926l7.49023 -7.48926l143.372 -143.373l7.49023 -7.48926l-7.49023 -7.48926l-142.303 -142.304
l-7.48926 -7.48926l-7.49023 7.48926l-143.372 143.373l-7.49023 7.48926zM192.622 864.365l142.303 142.303l7.48926 7.48926l7.49023 -7.48926l143.372 -143.373l7.49023 -7.48926l-7.49023 -7.48926l-142.303 -142.304l-7.48926 -7.48926l-7.49023 7.48926
l-143.372 143.373l-7.49023 7.48926z" />
    <glyph glyph-name="uniFB8B" unicode="&#x698;" horiz-adv-x="910" arabic-form="final" 
d="M353.113 1132.92l142.304 142.303l7.48926 7.48926l7.48926 -7.48926l143.373 -143.373l7.48926 -7.48926l-7.48926 -7.49023l-142.303 -142.303l-7.48926 -7.48926l-7.49023 7.48926l-143.373 143.373l-7.48926 7.48926zM517.886 864.365l142.303 142.303
l7.48926 7.48926l7.49023 -7.48926l143.372 -143.373l7.49023 -7.48926l-7.49023 -7.48926l-142.303 -142.304l-7.48926 -7.48926l-7.49023 7.48926l-143.372 143.373l-7.49023 7.48926zM192.622 864.365l142.303 142.303l7.48926 7.48926l7.49023 -7.48926
l143.372 -143.373l7.49023 -7.48926l-7.49023 -7.48926l-142.303 -142.304l-7.48926 -7.48926l-7.49023 7.48926l-143.372 143.373l-7.49023 7.48926zM663 557l57 -193q21 -72 63 -106t108 -34h28q14 0 22.5 -8t12 -24t4.5 -27.5t1 -32.5v-24v-5q0 -24 -1 -37t-4 -31
t-12 -26.5t-23 -8.5h-17q-113 0 -167 34q-79 -457 -703 -524l-18 -2l-4 17l-43 170l-5 23l23 2q278 28 413.5 141t134.5 312q0 146 -77 311l-9 20l20 7l171 59l19 7z" />
    <glyph glyph-name="uniFB8E" unicode="&#x6a9;" horiz-adv-x="1878" arabic-form="isolated" 
d="M1544 693q135 -146 133 -323q-3 -125 -77 -207.5t-213 -122.5t-343 -40h-181q-387 0 -585.5 126.5t-198.5 379.5q0 139 56 265l9 18l18 -8l157 -68l18 -8l-7 -18q-16 -41 -24 -80t-8 -76q2 -307 565 -307h180q415 0 414 171q0 89 -97 181q-153 142 -272 235
q-40 31 -66.5 63.5t-41 68t-14.5 71.5q0 143 154 202l693 263l27 10v-29v-181v-13l-13 -5l-641 -239q123 -104 212.5 -186t145.5 -143z" />
    <glyph glyph-name="uniFB8F" unicode="&#x6a9;" horiz-adv-x="1954" arabic-form="final" 
d="M861 0q-386 0 -584 126.5t-198 379.5q0 139 56 265l9 18l18 -8l157 -68l18 -8l-7 -18q-16 -41 -24 -80t-8 -76q1 -152 139 -229.5t424 -77.5h182q413 0 414 171q0 44 -24 89t-74 92q-52 49 -100 91.5t-91 78.5t-80 65q-122 95 -122 203q0 71 39 122t114 80l693 263l27 10
v-29v-181v-13l-13 -5l-640 -239q242 -204 357 -329q83 -89 134 -231q84 -238 269 -238h16q10 0 17 -4t11.5 -12.5t7 -15.5t3.5 -21t1 -21.5v-22.5v-19v-6q0 -24 -0.5 -37t-4 -31t-12.5 -26t-23 -8h-16q-213 0 -348 164q-132 -164 -555 -164h-182z" />
    <glyph glyph-name="uniFB90" unicode="&#x6a9;" horiz-adv-x="950" arabic-form="initial" 
d="M615 693q136 -146 133 -323q-3 -186 -159 -278t-453 -92h-143q-39 0 -58.5 29.5t-19.5 78.5v19q0 44 20 70.5t58 26.5h142q393 0 394 171q0 89 -97 181q-153 142 -272 235q-60 47 -91 98t-31 105q0 143 153 202l693 263l27 10v-29v-181v-13l-13 -5l-640 -239
q81 -69 147.5 -127.5t119 -109t90.5 -92.5z" />
    <glyph glyph-name="uniFB91" unicode="&#x6a9;" horiz-adv-x="1027" arabic-form="medial" 
d="M258 1022q242 -204 357 -329q43 -45 76 -103t58 -129q83 -237 269 -237h16q10 0 17.5 -4t11.5 -12.5t6.5 -15.5t3.5 -21t1 -21.5v-22.5v-19v-6q0 -24 -0.5 -37t-4 -31t-12.5 -26t-23 -8h-16q-213 0 -348 164q-131 -164 -534 -164h-143q-39 0 -58.5 29.5t-19.5 78.5v19
q0 44 20 70.5t58 26.5h142q393 0 394 171q0 89 -97 181q-153 142 -272 235q-60 47 -91 98t-31 105q0 143 153 202l693 263l27 10v-29v-181v-13l-13 -5z" />
    <glyph glyph-name="uniFB92" unicode="&#x6af;" horiz-adv-x="1878" arabic-form="isolated" 
d="M1544 693q135 -146 133 -323q-3 -125 -77 -207.5t-213 -122.5t-343 -40h-181q-387 0 -585.5 126.5t-198.5 379.5q0 139 56 265l9 18l18 -8l157 -68l18 -8l-7 -18q-16 -41 -24 -80t-8 -76q2 -307 565 -307h180q415 0 414 171q0 89 -97 181q-153 142 -272 235
q-40 31 -66.5 63.5t-41 68t-14.5 71.5q0 143 154 202l693 263l27 10v-29v-181v-13l-13 -5l-641 -239q123 -104 212.5 -186t145.5 -143zM1817.83 1582.96l-782.131 -300.654l-14.9785 -5.35059v14.9795v128.394v7.49023l7.48926 3.20898l781.061 299.586l14.9795 6.41895
v-16.0488v-128.394v-7.49023z" />
    <glyph glyph-name="uniFB93" unicode="&#x6af;" horiz-adv-x="1954" arabic-form="final" 
d="M1817.83 1582.96l-782.131 -300.654l-14.9785 -5.35059v14.9795v128.394v7.49023l7.48926 3.20898l781.061 299.586l14.9795 6.41895v-16.0488v-128.394v-7.49023zM861 0q-386 0 -584 126.5t-198 379.5q0 139 56 265l9 18l18 -8l157 -68l18 -8l-7 -18q-16 -41 -24 -80
t-8 -76q1 -152 139 -229.5t424 -77.5h182q413 0 414 171q0 44 -24 89t-74 92q-52 49 -100 91.5t-91 78.5t-80 65q-122 95 -122 203q0 71 39 122t114 80l693 263l27 10v-29v-181v-13l-13 -5l-640 -239q242 -204 357 -329q83 -89 134 -231q84 -238 269 -238h16q10 0 17 -4
t11.5 -12.5t7 -15.5t3.5 -21t1 -21.5v-22.5v-19v-6q0 -24 -0.5 -37t-4 -31t-12.5 -26t-23 -8h-16q-213 0 -348 164q-132 -164 -555 -164h-182z" />
    <glyph glyph-name="uniFB94" unicode="&#x6af;" horiz-adv-x="950" arabic-form="initial" 
d="M615 693q136 -146 133 -323q-3 -186 -159 -278t-453 -92h-143q-39 0 -58.5 29.5t-19.5 78.5v19q0 44 20 70.5t58 26.5h142q393 0 394 171q0 89 -97 181q-153 142 -272 235q-60 47 -91 98t-31 105q0 143 153 202l693 263l27 10v-29v-181v-13l-13 -5l-640 -239
q81 -69 147.5 -127.5t119 -109t90.5 -92.5zM887.83 1585.96l-782.131 -300.654l-14.9785 -5.35059v14.9795v128.394v7.49023l7.48926 3.20898l781.061 299.586l14.9795 6.41895v-16.0488v-128.394v-7.49023z" />
    <glyph glyph-name="uniFB95" unicode="&#x6af;" horiz-adv-x="1027" arabic-form="medial" 
d="M887.83 1585.96l-782.131 -300.654l-14.9785 -5.35059v14.9795v128.394v7.49023l7.48926 3.20898l781.061 299.586l14.9795 6.41895v-16.0488v-128.394v-7.49023zM258 1022q242 -204 357 -329q43 -45 76 -103t58 -129q83 -237 269 -237h16q10 0 17.5 -4t11.5 -12.5
t6.5 -15.5t3.5 -21t1 -21.5v-22.5v-19v-6q0 -24 -0.5 -37t-4 -31t-12.5 -26t-23 -8h-16q-213 0 -348 164q-131 -164 -534 -164h-143q-39 0 -58.5 29.5t-19.5 78.5v19q0 44 20 70.5t58 26.5h142q393 0 394 171q0 89 -97 181q-153 142 -272 235q-60 47 -91 98t-31 105
q0 143 153 202l693 263l27 10v-29v-181v-13l-13 -5z" />
    <glyph glyph-name="uniFB9E" unicode="&#x6ba;" horiz-adv-x="1475" arabic-form="isolated" 
d="M716 -240q232 1 344 105.5t111 317.5q0 187 -88 368l-10 21l21 7l174 60l18 7l7 -18q99 -247 99 -446q-1 -95 -18 -177.5t-52 -152.5q-155 -309 -615 -308q-308 0 -465.5 144.5t-158.5 428.5q0 217 102 464l8 19l18 -8l159 -65l18 -8l-7 -18q-83 -209 -82 -386
q1 -180 103.5 -267.5t313.5 -87.5z" />
    <glyph glyph-name="uniFB9F" unicode="&#x6ba;" horiz-adv-x="1549" arabic-form="final" 
d="M1388 37q-8 -123 -66 -243q-155 -314 -615 -314q-309 0 -467 146.5t-158 434.5q0 209 103 457l7 18l19 -7l158 -66l18 -7l-7 -19q-82 -208 -82 -374q0 -185 102 -275.5t314 -90.5q231 0 343.5 105t113.5 320q0 179 -89 361l-9 20l21 8l172 60l20 7l6 -20l73 -228
q18 -53 60 -79.5t114 -26.5h19q14 0 23 -8t12.5 -24t4 -27.5t0.5 -32.5v-24v-6q0 -24 -0.5 -37t-4 -31t-12.5 -26t-23 -8h-15q-94 0 -155 37z" />
    <glyph glyph-name="uniFBAC" unicode="&#x6be;" horiz-adv-x="1395" arabic-form="initial" 
d="M95 0h-102q-39 0 -58.5 29.5t-19.5 78.5v19q0 44 20 70.5t58 26.5h258q-4 3 -7.5 6.5l-6.5 6.5t-6 6.5t-6 6.5q-82 95 -81 211q0 129 90 233q110 128 281 128q157 0 262 -99q91 -85 92 -218q0 -165 -125 -265q117 -16 155 -16q32 0 57 3.5t40 9.5q97 38 98 139
q1 111 -138 237t-422 262l-19 9l11 19l87 153l9 16l17 -8q680 -331 674 -689q-2 -156 -96 -258q-103 -116 -318 -116q-157 -1 -383 70q-243 -71 -421 -71zM607 367q62 59 65 131q0 15 -3 28t-8 23t-13 19q-49 52 -124 52q-91 0 -137 -77q-21 -36 -22 -86q0 -54 55 -103
q41 -37 96 -52q1 1 3 1.5t3.5 1.5t3.5 2t3.5 2t3.5 2t3 2q21 13 38.5 26.5t32.5 27.5z" />
    <glyph glyph-name="uniFBAD" unicode="&#x6be;" horiz-adv-x="992" arabic-form="medial" 
d="M554 -287q8 252 114.5 381.5t309.5 129.5h22q10 0 17 -4t11.5 -12.5t7 -15.5t3.5 -21t1 -21.5v-22.5v-19v-5q0 -25 -0.5 -37.5t-4 -30.5t-12.5 -26.5t-23 -8.5h-24q-15 0 -28 -1q-117 -11 -167.5 -115t-31.5 -314l1 -9l-7 -7l-123 -118l-10 -10l-12 6q-337 160 -410 568
h-195q-39 0 -58.5 29.5t-19.5 78.5v19q0 44 20 70.5t58 26.5h180q23 421 167 576q88 95 218 95q44 0 81.5 -10.5t69.5 -31.5t58 -52q38 -46 56.5 -109.5t18.5 -143.5q-3 -206 -147 -375q-131 -155 -303 -173q38 -189 162 -287zM380 224q96 11 173 94q86 92 86 236
q0 59 -19.5 85.5t-60.5 27.5q-74 3 -120.5 -105.5t-58.5 -337.5z" />
    <glyph glyph-name="uniFBE8" unicode="&#x649;" horiz-adv-x="646" arabic-form="initial" 
d="M69 0h-76q-39 0 -58.5 29.5t-19.5 78.5v19q0 44 20 70.5t58 26.5h76q77 0 129.5 8t77.5 21q75 44 75 192q0 117 -36 260l-5 19l19 5l164 41l18 5l6 -18q49 -159 49 -309q0 -255 -148 -367q-107 -81 -349 -81z" />
    <glyph glyph-name="uniFBE9" unicode="&#x649;" horiz-adv-x="717" arabic-form="medial" 
d="M765 108v-6q0 -24 -1 -37t-4 -30.5t-12 -26t-23 -8.5h-10q-191 0 -275 126q-108 -126 -344 -126h-104q-39 0 -58 29.5t-19 78.5v19q0 44 19.5 70.5t57.5 26.5h99q214 0 236 116q6 33 6 79q0 49 -3 93l-5 82l-2 19l19 2l165 20l21 2l1 -21l16 -231q4 -56 24 -91.5
t56 -52.5t92 -17h8q14 0 23 -8t12 -26t4 -30.5t1 -36.5v-5v-10z" />
    <glyph glyph-name="uniFBFC" unicode="&#x6cc;" horiz-adv-x="1524" arabic-form="isolated" 
d="M298 61q0 -115 48.5 -191t149 -114.5t255.5 -39.5q174 0 310 63q69 33 122 86q49 51 49 115q0 19 -12.5 28t-46.5 9l-113 1q-130 0 -199.5 55.5t-69.5 163.5q0 197 125 334q161 175 451 175h21h20v-20v-193v-20h-20h-22q-77 0 -140.5 -17.5t-112.5 -52.5
q-99 -69 -101 -167q0 -21 9 -27q11 -10 41 -10h119q62 1 110 -13t80.5 -41.5t49.5 -69t17 -95.5q0 -303 -300 -440q-173 -79 -392 -79q-327 0 -495 140t-168 417q0 219 141 537l8 18l18 -7l159 -66l19 -7l-9 -19q-121 -275 -121 -453z" />
    <glyph glyph-name="uniFBFD" unicode="&#x6cc;" horiz-adv-x="1523" arabic-form="final" 
d="M1529 224q10 0 17.5 -4t11.5 -12.5t6.5 -15.5t3.5 -21t1.5 -21.5t0.5 -22.5v-19v-4q0 -9 -0.5 -18.5t-0.5 -18.5t-1 -17.5t-3 -16t-5 -13.5t-7 -10.5t-10 -7t-14 -2.5h-119q29 -40 29 -93q0 -164 -190 -287q-53 -34 -111.5 -60t-121 -43.5t-130 -26t-140.5 -8.5
q-327 0 -495 135t-168 403q0 217 103 442l8 17l18 -7l159 -66l18 -7l-7 -19q-84 -211 -84 -348q0 -168 109.5 -251t337.5 -83q172 0 308 63q55 24 94 54t61 64q20 30 20 56q0 52 -65 62q-20 4 -47 4h-153h-1h-1q-72 8 -97 109q-5 23 -7.5 39t-2.5 28q0 37 24 46l3 1h4h644z
" />
    <glyph glyph-name="uniFBFE" unicode="&#x6cc;" horiz-adv-x="682" arabic-form="initial" 
d="M69 0h-76q-39 0 -58.5 29.5t-19.5 78.5v19q0 44 20 70.5t58 26.5h76q77 0 129.5 8t77.5 21q75 44 75 192q0 117 -36 260l-5 19l19 5l164 41l18 5l6 -18q49 -159 49 -309q0 -255 -148 -367q-107 -81 -349 -81zM295.676 -309.306l145.513 145.513l7.48926 7.48926
l7.49023 -7.48926l146.582 -146.583l7.49023 -7.48926l-7.49023 -7.49023l-145.513 -145.513l-7.48926 -7.48926l-7.49023 7.48926l-146.582 146.583l-7.49023 7.48926zM-29.5879 -309.306l145.513 145.513l7.48926 7.48926l7.49023 -7.48926l146.582 -146.583
l7.49023 -7.48926l-7.49023 -7.49023l-145.513 -145.513l-7.48926 -7.48926l-7.49023 7.48926l-146.582 146.583l-7.49023 7.48926z" />
    <glyph glyph-name="uniFBFF" unicode="&#x6cc;" horiz-adv-x="717" arabic-form="medial" 
d="M295.676 -309.306l145.513 145.513l7.48926 7.48926l7.49023 -7.48926l146.582 -146.583l7.49023 -7.48926l-7.49023 -7.49023l-145.513 -145.513l-7.48926 -7.48926l-7.49023 7.48926l-146.582 146.583l-7.49023 7.48926zM-29.5879 -309.306l145.513 145.513
l7.48926 7.48926l7.49023 -7.48926l146.582 -146.583l7.49023 -7.48926l-7.49023 -7.49023l-145.513 -145.513l-7.48926 -7.48926l-7.49023 7.48926l-146.582 146.583l-7.49023 7.48926zM765 108v-6q0 -24 -1 -37t-4 -30.5t-12 -26t-23 -8.5h-10q-191 0 -275 126
q-108 -126 -344 -126h-104q-39 0 -58 29.5t-19 78.5v19q0 44 19.5 70.5t57.5 26.5h99q214 0 236 116q6 33 6 79q0 49 -3 93l-5 82l-2 19l19 2l165 20l21 2l1 -21l16 -231q4 -56 24 -91.5t56 -52.5t92 -17h8q14 0 23 -8t12 -26t4 -30.5t1 -36.5v-5v-10z" />
    <glyph glyph-name="uniFDFC" unicode="&#xfdfc;" horiz-adv-x="3546" arabic-form="isolated" 
d="M1093 120l3 1298v20h20h172h20v-20l-1 -1099q0 -144 -9 -272q-14 -187 -88 -313q-74 -127 -207 -190q-132 -64 -322 -64q-297 0 -448 147q-151 146 -150 434q0 103 21 204q22 107 64 209l7 19l19 -8l158 -65l19 -8l-8 -18q-65 -167 -65 -336q0 -183 94 -272
q95 -89 290 -89q208 0 309 104t102 319zM3208 501q86 -195 86 -376q0 -298 -181 -467t-536 -207l-18 -2l-4 17l-43 170l-5 23l23 2q278 28 413.5 140.5t134.5 311.5q0 149 -76 312l-9 20l20 7l171 59l17 7zM2093 0h-76q-39 0 -58.5 29.5t-19.5 78.5v19q0 44 20 70.5t58 26.5
h76q77 0 129.5 8t77.5 21q75 44 75 192q0 117 -36 260l-5 19l19 5l164 41l18 5l6 -18q49 -159 49 -309q0 -255 -148 -367q-107 -81 -349 -81zM2161.68 -274.306l145.513 145.513l7.48926 7.48926l7.49023 -7.48926l146.582 -146.583l7.49023 -7.48926l-7.49023 -7.49023
l-145.513 -145.513l-7.48926 -7.48926l-7.49023 7.48926l-146.582 146.583l-7.49023 7.48926zM1836.41 -274.306l145.513 145.513l7.48926 7.48926l7.49023 -7.48926l146.582 -146.583l7.49023 -7.48926l-7.49023 -7.49023l-145.513 -145.513l-7.48926 -7.48926
l-7.49023 7.48926l-146.582 146.583l-7.49023 7.48926zM2052 108q1 -18 0 -37t-4 -35t-12 -26t-24 -10h-21q-202 0 -305 115.5t-103 338.5v964v20h20h174h20v-20v-962q0 -119 48 -176q48 -56 149 -56h18q9 0 17 -4q7 -4 11 -12q4 -9 7 -16q2 -7 3 -21t1 -21q1 -3 1 -23v-19z
" />
    <glyph glyph-name="uniFE71" unicode="&#xfe71;" horiz-adv-x="791" arabic-form="medial" 
d="M499 0q-29 0 -49 14t-29.5 38t-9.5 56v19q0 45 23 71t65 26h302q9 0 16.5 -4t11.5 -12.5t6.5 -15.5t3.5 -21t1.5 -21.5t0.5 -22.5v-19v-5q0 -24 -1 -37t-4 -31t-12 -26.5t-23 -8.5h-302zM241 0q-29 0 -49 14t-29.5 38t-9.5 56v19q0 45 23 71t65 26h302q9 0 16.5 -4
t11.5 -12.5t6.5 -15.5t3.5 -21t1.5 -21.5t0.5 -22.5v-19v-5q0 -24 -1 -37t-4 -31t-12 -26.5t-23 -8.5h-302zM-7 0q-29 0 -49 14t-29.5 38t-9.5 56v19q0 45 23 71t65 26h302q9 0 16.5 -4t11.5 -12.5t6.5 -15.5t3.5 -21t1.5 -21.5t0.5 -22.5v-19v-5q0 -24 -1 -37t-4 -31
t-12 -26.5t-23 -8.5h-302zM36 1076v104v7l6 2l455 187l14 5v-15v-103v-7l-6 -3l-456 -186l-13 -5v14zM36 1288v104v7l6 2l455 187l14 5v-15v-103v-7l-6 -3l-456 -186l-13 -5v14z" />
    <glyph glyph-name="uniFE77" unicode="&#xfe77;" horiz-adv-x="791" arabic-form="medial" 
d="M499 0q-29 0 -49 14t-29.5 38t-9.5 56v19q0 45 23 71t65 26h302q9 0 16.5 -4t11.5 -12.5t6.5 -15.5t3.5 -21t1.5 -21.5t0.5 -22.5v-19v-5q0 -24 -1 -37t-4 -31t-12 -26.5t-23 -8.5h-302zM241 0q-29 0 -49 14t-29.5 38t-9.5 56v19q0 45 23 71t65 26h302q9 0 16.5 -4
t11.5 -12.5t6.5 -15.5t3.5 -21t1.5 -21.5t0.5 -22.5v-19v-5q0 -24 -1 -37t-4 -31t-12 -26.5t-23 -8.5h-302zM-7 0q-29 0 -49 14t-29.5 38t-9.5 56v19q0 45 23 71t65 26h302q9 0 16.5 -4t11.5 -12.5t6.5 -15.5t3.5 -21t1.5 -21.5t0.5 -22.5v-19v-5q0 -24 -1 -37t-4 -31
t-12 -26.5t-23 -8.5h-302zM5 1349v104v6l6 3l456 186l14 6v-15v-104v-6l-7 -3l-455 -186l-14 -6v15z" />
    <glyph glyph-name="uniFE79" unicode="&#xfe79;" horiz-adv-x="791" arabic-form="medial" 
d="M499 0q-29 0 -49 14t-29.5 38t-9.5 56v19q0 45 23 71t65 26h302q9 0 16.5 -4t11.5 -12.5t6.5 -15.5t3.5 -21t1.5 -21.5t0.5 -22.5v-19v-5q0 -24 -1 -37t-4 -31t-12 -26.5t-23 -8.5h-302zM241 0q-29 0 -49 14t-29.5 38t-9.5 56v19q0 45 23 71t65 26h302q9 0 16.5 -4
t11.5 -12.5t6.5 -15.5t3.5 -21t1.5 -21.5t0.5 -22.5v-19v-5q0 -24 -1 -37t-4 -31t-12 -26.5t-23 -8.5h-302zM-7 0q-29 0 -49 14t-29.5 38t-9.5 56v19q0 45 23 71t65 26h302q9 0 16.5 -4t11.5 -12.5t6.5 -15.5t3.5 -21t1.5 -21.5t0.5 -22.5v-19v-5q0 -24 -1 -37t-4 -31
t-12 -26.5t-23 -8.5h-302zM532 1454q-61 0 -100 5l-26 3q-128 -177 -368 -189l-10 -1v11v78v10h9q173 7 261 120q-38 10 -77 32q-92 51 -92 143q1 33 10.5 61.5t27.5 51.5q49 59 135 59q21 0 41 -4t37.5 -13t33.5 -21q11 -9 20.5 -20t17 -23.5t12.5 -25.5q11 -30 11 -66
q-1 -18 -3.5 -36.5t-7 -37t-11.5 -36.5l6 -1q20 -1 38 -1.5t34 -0.5l11 1v-11v-78v-10h-10zM353 1572l3 6q20 46 20 86q0 36 -21 54q-5 4 -9.5 7t-9.5 5.5t-10 4t-10 2t-10 0.5q-40 1 -62 -27q-15 -20 -15 -48q0 -41 60 -68q20 -10 64 -22z" />
    <glyph glyph-name="uniFE7B" unicode="&#xfe7b;" horiz-adv-x="791" arabic-form="medial" 
d="M499 0q-29 0 -49 14t-29.5 38t-9.5 56v19q0 45 23 71t65 26h302q9 0 16.5 -4t11.5 -12.5t6.5 -15.5t3.5 -21t1.5 -21.5t0.5 -22.5v-19v-5q0 -24 -1 -37t-4 -31t-12 -26.5t-23 -8.5h-302zM241 0q-29 0 -49 14t-29.5 38t-9.5 56v19q0 45 23 71t65 26h302q9 0 16.5 -4
t11.5 -12.5t6.5 -15.5t3.5 -21t1.5 -21.5t0.5 -22.5v-19v-5q0 -24 -1 -37t-4 -31t-12 -26.5t-23 -8.5h-302zM-7 0q-29 0 -49 14t-29.5 38t-9.5 56v19q0 45 23 71t65 26h302q9 0 16.5 -4t11.5 -12.5t6.5 -15.5t3.5 -21t1.5 -21.5t0.5 -22.5v-19v-5q0 -24 -1 -37t-4 -31
t-12 -26.5t-23 -8.5h-302zM52 -452v104v7l6 2l456 187l13 5v-15v-103v-7l-6 -3l-455 -186l-14 -5v14z" />
    <glyph glyph-name="uniFE7D" unicode="&#xfe7d;" horiz-adv-x="791" arabic-form="medial" 
d="M499 0q-29 0 -49 14t-29.5 38t-9.5 56v19q0 45 23 71t65 26h302q9 0 16.5 -4t11.5 -12.5t6.5 -15.5t3.5 -21t1.5 -21.5t0.5 -22.5v-19v-5q0 -24 -1 -37t-4 -31t-12 -26.5t-23 -8.5h-302zM241 0q-29 0 -49 14t-29.5 38t-9.5 56v19q0 45 23 71t65 26h302q9 0 16.5 -4
t11.5 -12.5t6.5 -15.5t3.5 -21t1.5 -21.5t0.5 -22.5v-19v-5q0 -24 -1 -37t-4 -31t-12 -26.5t-23 -8.5h-302zM-7 0q-29 0 -49 14t-29.5 38t-9.5 56v19q0 45 23 71t65 26h302q9 0 16.5 -4t11.5 -12.5t6.5 -15.5t3.5 -21t1.5 -21.5t0.5 -22.5v-19v-5q0 -24 -1 -37t-4 -31
t-12 -26.5t-23 -8.5h-302zM337 1769q1 -21 1.5 -41.5t1.5 -41.5q-1 -44 13 -63t43 -19q30 0 45 22t16 69q0 5 -0.5 10t-1 11t-1 12.5t-1.5 14t-2.5 15t-3 16t-3.5 18t-4 19.5l-2 10l11 2l88 14l8 1l3 -8q18 -64 18 -125q0 -104 -39.5 -158.5t-117.5 -54.5q-59 -1 -102 43
q-37 -107 -156 -107q-72 0 -109 45.5t-39 132.5q-1 61 13 112l3 9l9 -1l78 -13l10 -2l-2 -10q-10 -46 -9 -81q0 -39 14 -56.5t44 -17.5q36 0 55 24.5t21 79.5q2 50 1 118v10h10h77h10v-9z" />
    <glyph glyph-name="uniFE7F" unicode="&#xfe7f;" horiz-adv-x="791" arabic-form="medial" 
d="M499 0q-29 0 -49 14t-29.5 38t-9.5 56v19q0 45 23 71t65 26h302q9 0 16.5 -4t11.5 -12.5t6.5 -15.5t3.5 -21t1.5 -21.5t0.5 -22.5v-19v-5q0 -24 -1 -37t-4 -31t-12 -26.5t-23 -8.5h-302zM241 0q-29 0 -49 14t-29.5 38t-9.5 56v19q0 45 23 71t65 26h302q9 0 16.5 -4
t11.5 -12.5t6.5 -15.5t3.5 -21t1.5 -21.5t0.5 -22.5v-19v-5q0 -24 -1 -37t-4 -31t-12 -26.5t-23 -8.5h-302zM-7 0q-29 0 -49 14t-29.5 38t-9.5 56v19q0 45 23 71t65 26h302q9 0 16.5 -4t11.5 -12.5t6.5 -15.5t3.5 -21t1.5 -21.5t0.5 -22.5v-19v-5q0 -24 -1 -37t-4 -31
t-12 -26.5t-23 -8.5h-302zM107 1462q0 86 59.5 145.5t145.5 59.5t146 -60q30 -29 45 -66t15 -79q0 -86 -60 -146q-30 -30 -66.5 -45t-79.5 -15q-86 0 -145.5 60t-59.5 146zM214 1461q-1 -43 29 -72q29 -30 72 -30q42 0 72 30q10 9 16.5 20.5t10 24t3.5 27.5q-1 42 -30 72
q-30 29 -72 29q-43 0 -72 -29q-30 -30 -29 -72z" />
    <glyph glyph-name="uniFE80" unicode="&#x621;" horiz-adv-x="868" arabic-form="isolated" 
d="M98 32v178v11l9 6q87 56 162 85q-151 96 -151 249q1 142 77 230q108 125 280 125q176 0 272 -96l9 -10l-5 -12l-56 -138l-10 -23l-21 15q-73 53 -177 53q-40 -1 -70.5 -12t-52.5 -32q-40 -38 -40 -100q0 -36 38 -74t117 -75l246 56l21 5l3 -21l28 -173l3 -20l-21 -3
q-248 -29 -632 -242l-29 -16v34z" />
    <glyph glyph-name="uniFE81" unicode="&#x622;" horiz-adv-x="683" arabic-form="isolated" 
d="M249 1293.01h173h20v-17.9824v-1256.14v-17.9834h-20h-173h-20v17.9834v1256.14v17.9824h20zM252 1489q-111 15 -203 -94l-101 126q118 170 288 143l149 -24q99 -16 219 46l66 -157q-129 -80 -277 -60z" />
    <glyph glyph-name="uniFE82" unicode="&#x622;" horiz-adv-x="571" arabic-form="final" 
d="M252 1489q-111 15 -203 -94l-101 126q118 170 288 143l149 -24q99 -16 219 46l66 -157q-129 -80 -277 -60zM609 108q1 -18 0 -37t-4 -35t-12 -26t-24 -10h-21q-202 0 -305 115.5t-103 338.5v754v20h20h174h20v-20v-752q0 -119 48 -176q48 -56 149 -56h18q9 0 17 -4
q7 -4 11 -12q4 -9 7 -16q2 -7 3 -21t1 -21q1 -3 1 -23v-19z" />
    <glyph glyph-name="uniFE83" unicode="&#x623;" horiz-adv-x="487" arabic-form="isolated" 
d="M166 1230.32h173h20v-17.084v-1193.3v-17.083h-20h-173h-20v17.083v1193.3v17.084h20zM102 1459q-62 58 -62 155q0 92 61 157q73 76 185 76q78 0 146 -44l5 -3v-5l1 -132v-19l-16 11q-15 10 -30 17t-31 12q-15 5 -30 8q-16 2 -31 2q-30 0 -52 -8q-23 -8 -38 -23
q-4 -4 -7.5 -9t-6.5 -9q-3 -5 -5 -10q-2 -6 -3 -11t-2 -11t-1 -12q1 -26 22 -47q22 -21 66 -38q11 -4 19 -2q25 5 140 27l12 3v-12v-126v-8l-8 -2l-406 -98l-13 -3v13v123v8l8 2z" />
    <glyph glyph-name="uniFE84" unicode="&#x623;" horiz-adv-x="571" arabic-form="final" 
d="M112 1459q-62 58 -62 155q0 92 61 157q73 76 185 76q78 0 146 -44l5 -3v-5l1 -132v-19l-16 11q-15 10 -30 17t-31 12q-15 5 -30 8q-16 2 -31 2q-30 0 -52 -8q-23 -8 -38 -23q-4 -4 -7.5 -9t-6.5 -9q-3 -5 -5 -10q-2 -6 -3 -11t-2 -11t-1 -12q1 -26 22 -47q22 -21 66 -38
q11 -4 19 -2q25 5 140 27l12 3v-12v-126v-8l-8 -2l-406 -98l-13 -3v13v123v8l8 2zM609 108q1 -18 0 -37t-4 -35t-12 -26t-24 -10h-21q-202 0 -305 115.5t-103 338.5v754v20h20h174h20v-20v-752q0 -119 48 -176q48 -56 149 -56h18q9 0 17 -4q7 -4 11 -12q4 -9 7 -16
q2 -7 3 -21t1 -21q1 -3 1 -23v-19z" />
    <glyph glyph-name="uniFE85" unicode="&#x624;" horiz-adv-x="900" arabic-form="isolated" 
d="M310 986q-62 58 -62 155q0 92 61 157q73 76 185 76q78 0 146 -44l5 -3v-5l1 -132v-19l-16 11q-15 10 -30 17t-31 12q-15 5 -30 8q-16 2 -31 2q-30 0 -52 -8q-23 -8 -38 -23q-4 -4 -7.5 -9t-6.5 -9q-3 -5 -5 -10q-2 -6 -3 -11t-2 -11t-1 -12q1 -26 22 -47q22 -21 66 -38
q11 -4 19 -2q25 5 140 27l12 3v-12v-126v-8l-8 -2l-406 -98l-13 -3v13v123v8l8 2zM610 236q-24 299 -173 299q-82 0 -118 -107q-8 -25 -12.5 -49t-4.5 -46q0 -60 41.5 -88.5t135.5 -28.5q63 1 131 20zM478 -2q-188 0 -286.5 81t-98.5 239q0 126 54 238q99 208 302 208
q218 0 311 -242q62 -161 61 -362q-2 -288 -180 -451t-526 -199l-17 -2l-4 17l-43 170l-5 23l23 2q433 44 528 289q-32 -4 -54.5 -6t-38.5 -3.5t-26 -1.5z" />
    <glyph glyph-name="uniFE86" unicode="&#x624;" horiz-adv-x="893" arabic-form="final" 
d="M609 224q-25 310 -172 311q-80 1 -118 -107q-17 -49 -17 -95q0 -55 39.5 -82t127.5 -27h140zM816 223h85q37 0 40 -72v-33v-10v-6q0 -24 -0.5 -37t-4 -31t-12.5 -26t-23 -8l-96 1q-86 -431 -689 -491l-17 -2l-4 17l-43 171l-5 23l23 2q437 48 527 279h-118
q-189 0 -287.5 80.5t-98.5 237.5q0 126 54 238q99 208 302 208q160 0 251 -138t116 -403zM310 986q-62 58 -62 155q0 92 61 157q73 76 185 76q78 0 146 -44l5 -3v-5l1 -132v-19l-16 11q-15 10 -30 17t-31 12q-15 5 -30 8q-16 2 -31 2q-30 0 -52 -8q-23 -8 -38 -23
q-4 -4 -7.5 -9t-6.5 -9q-3 -5 -5 -10q-2 -6 -3 -11t-2 -11t-1 -12q1 -26 22 -47q22 -21 66 -38q11 -4 19 -2q25 5 140 27l12 3v-12v-126v-8l-8 -2l-406 -98l-13 -3v13v123v8l8 2z" />
    <glyph glyph-name="uniFE87" unicode="&#x625;" horiz-adv-x="487" arabic-form="isolated" 
d="M107 -505q-62 58 -62 155q0 92 61 157q73 76 185 76q78 0 146 -44l5 -3v-5l1 -132v-19l-16 11q-15 10 -30 17t-31 12q-15 5 -30 8q-16 2 -31 2q-30 0 -52 -8q-23 -8 -38 -23q-4 -4 -7.5 -9t-6.5 -9q-3 -5 -5 -10q-2 -6 -3 -11t-2 -11t-1 -12q1 -26 22 -47q22 -21 66 -38
q11 -4 19 -2q25 5 140 27l12 3v-12v-126v-8l-8 -2l-406 -98l-13 -3v13v123v8l8 2zM161 1438h173h20v-20v-1397v-20h-20h-173h-20v20v1397v20h20z" />
    <glyph glyph-name="uniFE88" unicode="&#x625;" horiz-adv-x="561" arabic-form="final" 
d="M609 108q1 -18 0 -37t-4 -35t-12 -26t-24 -10h-21q-202 0 -305 115.5t-103 338.5v964v20h20h174h20v-20v-962q0 -119 48 -176q48 -56 149 -56h18q9 0 17 -4q7 -4 11 -12q4 -9 7 -16q2 -7 3 -21t1 -21q1 -3 1 -23v-19zM176 -499q-62 58 -62 155q0 92 61 157q73 76 185 76
q78 0 146 -44l5 -3v-5l1 -132v-19l-16 11q-15 10 -30 17t-31 12q-15 5 -30 8q-16 2 -31 2q-30 0 -52 -8q-23 -8 -38 -23q-4 -4 -7.5 -9t-6.5 -9q-3 -5 -5 -10q-2 -6 -3 -11t-2 -11t-1 -12q1 -26 22 -47q22 -21 66 -38q11 -4 19 -2q25 5 140 27l12 3v-12v-126v-8l-8 -2
l-406 -98l-13 -3v13v123v8l8 2z" />
    <glyph glyph-name="uniFE89" unicode="&#x626;" horiz-adv-x="1524" arabic-form="isolated" 
d="M362 782q-62 58 -62 155q0 92 61 157q73 76 185 76q78 0 146 -44l5 -3v-5l1 -132v-19l-16 11q-15 10 -30 17t-31 12q-15 5 -30 8q-16 2 -31 2q-30 0 -52 -8q-23 -8 -38 -23q-4 -4 -7.5 -9t-6.5 -9q-3 -5 -5 -10q-2 -6 -3 -11t-2 -11t-1 -12q1 -26 22 -47q22 -21 66 -38
q11 -4 19 -2q25 5 140 27l12 3v-12v-126v-8l-8 -2l-406 -98l-13 -3v13v123v8l8 2zM298 61q0 -115 48.5 -191t149 -114.5t255.5 -39.5q174 0 310 63q69 33 122 86q49 51 49 115q0 19 -12.5 28t-46.5 9l-113 1q-130 0 -199.5 55.5t-69.5 163.5q0 197 125 334q161 175 451 175
h21h20v-20v-193v-20h-20h-22q-77 0 -140.5 -17.5t-112.5 -52.5q-99 -69 -101 -167q0 -21 9 -27q11 -10 41 -10h119q62 1 110 -13t80.5 -41.5t49.5 -69t17 -95.5q0 -303 -300 -440q-173 -79 -392 -79q-327 0 -495 140t-168 417q0 219 141 537l8 18l18 -7l159 -66l19 -7
l-9 -19q-121 -275 -121 -453z" />
    <glyph glyph-name="uniFE8A" unicode="&#x626;" horiz-adv-x="1523" arabic-form="final" 
d="M1529 224q10 0 17.5 -4t11.5 -12.5t6.5 -15.5t3.5 -21t1.5 -21.5t0.5 -22.5v-19v-4q0 -9 -0.5 -18.5t-0.5 -18.5t-1 -17.5t-3 -16t-5 -13.5t-7 -10.5t-10 -7t-14 -2.5h-119q29 -40 29 -93q0 -164 -190 -287q-53 -34 -111.5 -60t-121 -43.5t-130 -26t-140.5 -8.5
q-327 0 -495 135t-168 403q0 217 103 442l8 17l18 -7l159 -66l18 -7l-7 -19q-84 -211 -84 -348q0 -168 109.5 -251t337.5 -83q172 0 308 63q55 24 94 54t61 64q20 30 20 56q0 52 -65 62q-20 4 -47 4h-153h-1h-1q-72 8 -97 109q-5 23 -7.5 39t-2.5 28q0 37 24 46l3 1h4h644z
M483 601q-62 58 -62 155q0 92 61 157q73 76 185 76q78 0 146 -44l5 -3v-5l1 -132v-19l-16 11q-15 10 -30 17t-31 12q-15 5 -30 8q-16 2 -31 2q-30 0 -52 -8q-23 -8 -38 -23q-4 -4 -7.5 -9t-6.5 -9q-3 -5 -5 -10q-2 -6 -3 -11t-2 -11t-1 -12q1 -26 22 -47q22 -21 66 -38
q11 -4 19 -2q25 5 140 27l12 3v-12v-126v-8l-8 -2l-406 -98l-13 -3v13v123v8l8 2z" />
    <glyph glyph-name="uniFE8B" unicode="&#x626;" horiz-adv-x="646" arabic-form="initial" 
d="M69 0h-76q-39 0 -58.5 29.5t-19.5 78.5v19q0 44 20 70.5t58 26.5h76q77 0 129.5 8t77.5 21q75 44 75 192q0 117 -36 260l-5 19l19 5l164 41l18 5l6 -18q49 -159 49 -309q0 -255 -148 -367q-107 -81 -349 -81zM161 988q-62 58 -62 155q0 92 61 157q73 76 185 76
q78 0 146 -44l5 -3v-5l1 -132v-19l-16 11q-15 10 -30 17t-31 12q-15 5 -30 8q-16 2 -31 2q-30 0 -52 -8q-23 -8 -38 -23q-4 -4 -7.5 -9t-6.5 -9q-3 -5 -5 -10q-2 -6 -3 -11t-2 -11t-1 -12q1 -26 22 -47q22 -21 66 -38q11 -4 19 -2q25 5 140 27l12 3v-12v-126v-8l-8 -2
l-406 -98l-13 -3v13v123v8l8 2z" />
    <glyph glyph-name="uniFE8C" unicode="&#x626;" horiz-adv-x="717" arabic-form="medial" 
d="M765 108v-6q0 -24 -1 -37t-4 -30.5t-12 -26t-23 -8.5h-10q-191 0 -275 126q-108 -126 -344 -126h-104q-39 0 -58 29.5t-19 78.5v19q0 44 19.5 70.5t57.5 26.5h99q214 0 236 116q6 33 6 79q0 49 -3 93l-5 82l-2 19l19 2l165 20l21 2l1 -21l16 -231q4 -56 24 -91.5
t56 -52.5t92 -17h8q14 0 23 -8t12 -26t4 -30.5t1 -36.5v-5v-10zM188 882q-62 58 -62 155q0 92 61 157q73 76 185 76q78 0 146 -44l5 -3v-5l1 -132v-19l-16 11q-15 10 -30 17t-31 12q-15 5 -30 8q-16 2 -31 2q-30 0 -52 -8q-23 -8 -38 -23q-4 -4 -7.5 -9t-6.5 -9
q-3 -5 -5 -10q-2 -6 -3 -11t-2 -11t-1 -12q1 -26 22 -47q22 -21 66 -38q11 -4 19 -2q25 5 140 27l12 3v-12v-126v-8l-8 -2l-406 -98l-13 -3v13v123v8l8 2z" />
    <glyph glyph-name="uniFE8D" unicode="&#x627;" horiz-adv-x="487" arabic-form="isolated" 
d="M161 1438h173h20v-20v-1397v-20h-20h-173h-20v20v1397v20h20z" />
    <glyph glyph-name="uniFE8E" unicode="&#x627;" horiz-adv-x="561" arabic-form="final" 
d="M609 108q1 -18 0 -37t-4 -35t-12 -26t-24 -10h-21q-202 0 -305 115.5t-103 338.5v964v20h20h174h20v-20v-962q0 -119 48 -176q48 -56 149 -56h18q9 0 17 -4q7 -4 11 -12q4 -9 7 -16q2 -7 3 -21t1 -21q1 -3 1 -23v-19z" />
    <glyph glyph-name="uniFE8F" unicode="&#x628;" horiz-adv-x="1837" arabic-form="isolated" 
d="M891 0q-400 0 -605.5 126t-205.5 380q0 139 56 265l9 18l18 -8l157 -68l18 -8l-7 -18q-32 -80 -32 -152q0 -154 140.5 -232.5t432.5 -78.5q494 0 620 92q56 41 56 149q0 88 -36 241l-4 19l19 5l163 41l18 5l6 -18q51 -154 51 -278q0 -247 -147 -350q-186 -130 -724 -130
h-3zM784.713 -309.306l145.513 145.513l7.48926 7.48926l7.48926 -7.48926l146.583 -146.583l7.48926 -7.48926l-7.48926 -7.49023l-145.513 -145.513l-7.48926 -7.48926l-7.49023 7.48926l-146.582 146.583l-7.49023 7.48926z" />
    <glyph glyph-name="uniFE90" unicode="&#x628;" horiz-adv-x="1931" arabic-form="final" 
d="M890 0q-400 0 -605.5 126t-205.5 380q0 139 56 265l9 18l18 -8l157 -68l18 -8l-7 -18q-32 -81 -32 -154q0 -309 587 -309q128 0 233.5 8.5t183.5 24.5t131 38.5t80 52.5q14 14 21.5 41t7.5 67v21t-0.5 18.5t-0.5 15.5l-6 82l-1 19l19 2l164 20l21 2l2 -21l16 -215
q6 -78 45 -129q38 -47 125 -47h13q10 0 17 -4t11.5 -12.5t7 -15.5t3.5 -21t1 -21.5v-22.5v-19v-6q0 -24 -0.5 -37t-4 -31t-12.5 -26t-23 -8h-13q-208 0 -305 164q-184 -164 -727 -164h-4zM754.713 -309.306l145.513 145.513l7.48926 7.48926l7.48926 -7.48926
l146.583 -146.583l7.48926 -7.48926l-7.48926 -7.49023l-145.513 -145.513l-7.48926 -7.48926l-7.49023 7.48926l-146.582 146.583l-7.49023 7.48926z" />
    <glyph glyph-name="uniFE91" unicode="&#x628;" horiz-adv-x="646" arabic-form="initial" 
d="M69 0h-76q-39 0 -58.5 29.5t-19.5 78.5v19q0 44 20 70.5t58 26.5h76q77 0 129.5 8t77.5 21q75 44 75 192q0 117 -36 260l-5 19l19 5l164 41l18 5l6 -18q49 -159 49 -309q0 -255 -148 -367q-107 -81 -349 -81zM114.713 -309.306l145.513 145.513l7.48926 7.48926
l7.48926 -7.48926l146.583 -146.583l7.48926 -7.48926l-7.48926 -7.49023l-145.513 -145.513l-7.48926 -7.48926l-7.49023 7.48926l-146.582 146.583l-7.49023 7.48926z" />
    <glyph glyph-name="uniFE92" unicode="&#x628;" horiz-adv-x="717" arabic-form="medial" 
d="M765 108v-6q0 -24 -1 -37t-4 -30.5t-12 -26t-23 -8.5h-10q-191 0 -275 126q-108 -126 -344 -126h-104q-39 0 -58 29.5t-19 78.5v19q0 44 19.5 70.5t57.5 26.5h99q214 0 236 116q6 33 6 79q0 49 -3 93l-5 82l-2 19l19 2l165 20l21 2l1 -21l16 -231q4 -56 24 -91.5
t56 -52.5t92 -17h8q14 0 23 -8t12 -26t4 -30.5t1 -36.5v-5v-10zM153.713 -309.306l145.513 145.513l7.48926 7.48926l7.48926 -7.48926l146.583 -146.583l7.48926 -7.48926l-7.48926 -7.49023l-145.513 -145.513l-7.48926 -7.48926l-7.49023 7.48926l-146.582 146.583
l-7.49023 7.48926z" />
    <glyph glyph-name="uniFE93" unicode="&#x629;" horiz-adv-x="942" arabic-form="isolated" 
d="M462 638q-34 -31 -62 -61t-48 -57.5t-33.5 -53.5t-20 -49.5t-6.5 -45.5q0 -75 44 -111t139 -36q97 0 141.5 36t43.5 112q0 12 -3 25.5t-9 28t-15 30t-21 32.5t-27.5 35t-34 36.5t-40.5 38.5t-48 40zM404 992q467 -340 467 -626q0 -200 -174 -308q-29 -18 -63 -30
t-73.5 -18t-84.5 -6q-126 0 -215 45q-180 90 -180 317q0 207 228 436l-29 25l-14 12l11 15l100 133l11 16zM474.676 1267.69l145.513 145.513l7.48926 7.48926l7.49023 -7.48926l146.582 -146.583l7.49023 -7.48926l-7.49023 -7.49023l-145.513 -145.513l-7.48926 -7.48926
l-7.49023 7.48926l-146.582 146.583l-7.49023 7.48926zM149.412 1267.69l145.513 145.513l7.48926 7.48926l7.49023 -7.48926l146.582 -146.583l7.49023 -7.48926l-7.49023 -7.49023l-145.513 -145.513l-7.48926 -7.48926l-7.49023 7.48926l-146.582 146.583
l-7.49023 7.48926z" />
    <glyph glyph-name="uniFE94" unicode="&#x629;" horiz-adv-x="1063" arabic-form="final" 
d="M91 426q0 304 516 467l-5 28l-4 20l19 4l163 33l20 4l3 -21l83 -591q7 -50 27 -82.5t54.5 -48t84.5 -15.5h20q14 0 23 -8t12 -24t4 -27.5t1 -32.5v-24v-5q0 -24 -1 -37t-4 -31t-12 -26.5t-23 -8.5h-24q-270 0 -335 211q-58 -44 -122 -66.5t-135 -22.5q-234 0 -328 155
q-37 62 -37 149zM638 687q-166 -63 -247.5 -126.5t-81.5 -122.5q0 -26 7.5 -44.5t24.5 -31.5t44 -19.5t64 -6.5q72 0 144 44q85 52 67 170l-21 133zM603.676 1231.69l145.513 145.513l7.48926 7.48926l7.49023 -7.48926l146.582 -146.583l7.49023 -7.48926
l-7.49023 -7.49023l-145.513 -145.513l-7.48926 -7.48926l-7.49023 7.48926l-146.582 146.583l-7.49023 7.48926zM278.412 1231.69l145.513 145.513l7.48926 7.48926l7.49023 -7.48926l146.582 -146.583l7.49023 -7.48926l-7.49023 -7.49023l-145.513 -145.513
l-7.48926 -7.48926l-7.49023 7.48926l-146.582 146.583l-7.49023 7.48926z" />
    <glyph glyph-name="uniFE95" unicode="&#x62a;" horiz-adv-x="1837" arabic-form="isolated" 
d="M891 0q-400 0 -605.5 126t-205.5 380q0 139 56 265l9 18l18 -8l157 -68l18 -8l-7 -18q-32 -80 -32 -152q0 -154 140.5 -232.5t432.5 -78.5q494 0 620 92q56 41 56 149q0 88 -36 241l-4 19l19 5l163 41l18 5l6 -18q51 -154 51 -278q0 -247 -147 -350q-186 -130 -724 -130
h-3zM929.676 949.694l145.513 145.513l7.48926 7.48926l7.49023 -7.48926l146.582 -146.583l7.49023 -7.48926l-7.49023 -7.49023l-145.513 -145.513l-7.48926 -7.48926l-7.49023 7.48926l-146.582 146.583l-7.49023 7.48926zM604.412 949.694l145.513 145.513
l7.48926 7.48926l7.49023 -7.48926l146.582 -146.583l7.49023 -7.48926l-7.49023 -7.49023l-145.513 -145.513l-7.48926 -7.48926l-7.49023 7.48926l-146.582 146.583l-7.49023 7.48926z" />
    <glyph glyph-name="uniFE96" unicode="&#x62a;" horiz-adv-x="1931" arabic-form="final" 
d="M890 0q-400 0 -605.5 126t-205.5 380q0 139 56 265l9 18l18 -8l157 -68l18 -8l-7 -18q-32 -81 -32 -154q0 -309 587 -309q128 0 233.5 8.5t183.5 24.5t131 38.5t80 52.5q14 14 21.5 41t7.5 67v21t-0.5 18.5t-0.5 15.5l-6 82l-1 19l19 2l164 20l21 2l2 -21l16 -215
q6 -78 45 -129q38 -47 125 -47h13q10 0 17 -4t11.5 -12.5t7 -15.5t3.5 -21t1 -21.5v-22.5v-19v-6q0 -24 -0.5 -37t-4 -31t-12.5 -26t-23 -8h-13q-208 0 -305 164q-184 -164 -727 -164h-4zM952.676 949.694l145.513 145.513l7.48926 7.48926l7.49023 -7.48926
l146.582 -146.583l7.49023 -7.48926l-7.49023 -7.49023l-145.513 -145.513l-7.48926 -7.48926l-7.49023 7.48926l-146.582 146.583l-7.49023 7.48926zM627.412 949.694l145.513 145.513l7.48926 7.48926l7.49023 -7.48926l146.582 -146.583l7.49023 -7.48926
l-7.49023 -7.49023l-145.513 -145.513l-7.48926 -7.48926l-7.49023 7.48926l-146.582 146.583l-7.49023 7.48926z" />
    <glyph glyph-name="uniFE97" unicode="&#x62a;" horiz-adv-x="709" arabic-form="initial" 
d="M69 0h-76q-39 0 -58.5 29.5t-19.5 78.5v19q0 44 20 70.5t58 26.5h76q77 0 129.5 8t77.5 21q75 44 75 192q0 117 -36 260l-5 19l19 5l164 41l18 5l6 -18q49 -159 49 -309q0 -255 -148 -367q-107 -81 -349 -81zM311.676 1072.69l145.513 145.513l7.48926 7.48926
l7.49023 -7.48926l146.582 -146.583l7.49023 -7.48926l-7.49023 -7.49023l-145.513 -145.513l-7.48926 -7.48926l-7.49023 7.48926l-146.582 146.583l-7.49023 7.48926zM-13.5879 1072.69l145.513 145.513l7.48926 7.48926l7.49023 -7.48926l146.582 -146.583
l7.49023 -7.48926l-7.49023 -7.49023l-145.513 -145.513l-7.48926 -7.48926l-7.49023 7.48926l-146.582 146.583l-7.49023 7.48926z" />
    <glyph glyph-name="uniFE98" unicode="&#x62a;" horiz-adv-x="717" arabic-form="medial" 
d="M765 108v-6q0 -24 -1 -37t-4 -30.5t-12 -26t-23 -8.5h-10q-191 0 -275 126q-108 -126 -344 -126h-104q-39 0 -58 29.5t-19 78.5v19q0 44 19.5 70.5t57.5 26.5h99q214 0 236 116q6 33 6 79q0 49 -3 93l-5 82l-2 19l19 2l165 20l21 2l1 -21l16 -231q4 -56 24 -91.5
t56 -52.5t92 -17h8q14 0 23 -8t12 -26t4 -30.5t1 -36.5v-5v-10zM308.676 989.694l145.513 145.513l7.48926 7.48926l7.49023 -7.48926l146.582 -146.583l7.49023 -7.48926l-7.49023 -7.49023l-145.513 -145.513l-7.48926 -7.48926l-7.49023 7.48926l-146.582 146.583
l-7.49023 7.48926zM-16.5879 989.694l145.513 145.513l7.48926 7.48926l7.49023 -7.48926l146.582 -146.583l7.49023 -7.48926l-7.49023 -7.49023l-145.513 -145.513l-7.48926 -7.48926l-7.49023 7.48926l-146.582 146.583l-7.49023 7.48926z" />
    <glyph glyph-name="uniFE99" unicode="&#x62b;" horiz-adv-x="1837" arabic-form="isolated" 
d="M891 0q-400 0 -605.5 126t-205.5 380q0 139 56 265l9 18l18 -8l157 -68l18 -8l-7 -18q-32 -80 -32 -152q0 -154 140.5 -232.5t432.5 -78.5q494 0 620 92q56 41 56 149q0 88 -36 241l-4 19l19 5l163 41l18 5l6 -18q51 -154 51 -278q0 -247 -147 -350q-186 -130 -724 -130
h-3zM768.113 1155.92l142.304 142.303l7.48926 7.48926l7.48926 -7.48926l143.373 -143.373l7.48926 -7.48926l-7.48926 -7.49023l-142.303 -142.303l-7.48926 -7.48926l-7.49023 7.48926l-143.373 143.373l-7.48926 7.48926zM932.886 887.365l142.303 142.303
l7.48926 7.48926l7.49023 -7.48926l143.372 -143.373l7.49023 -7.48926l-7.49023 -7.48926l-142.303 -142.304l-7.48926 -7.48926l-7.49023 7.48926l-143.372 143.373l-7.49023 7.48926zM607.622 887.365l142.303 142.303l7.48926 7.48926l7.49023 -7.48926
l143.372 -143.373l7.49023 -7.48926l-7.49023 -7.48926l-142.303 -142.304l-7.48926 -7.48926l-7.49023 7.48926l-143.372 143.373l-7.49023 7.48926z" />
    <glyph glyph-name="uniFE9A" unicode="&#x62b;" horiz-adv-x="1931" arabic-form="final" 
d="M890 0q-400 0 -605.5 126t-205.5 380q0 139 56 265l9 18l18 -8l157 -68l18 -8l-7 -18q-32 -81 -32 -154q0 -309 587 -309q128 0 233.5 8.5t183.5 24.5t131 38.5t80 52.5q14 14 21.5 41t7.5 67v21t-0.5 18.5t-0.5 15.5l-6 82l-1 19l19 2l164 20l21 2l2 -21l16 -215
q6 -78 45 -129q38 -47 125 -47h13q10 0 17 -4t11.5 -12.5t7 -15.5t3.5 -21t1 -21.5v-22.5v-19v-6q0 -24 -0.5 -37t-4 -31t-12.5 -26t-23 -8h-13q-208 0 -305 164q-184 -164 -727 -164h-4zM787.113 1153.92l142.304 142.303l7.48926 7.48926l7.48926 -7.48926
l143.373 -143.373l7.48926 -7.48926l-7.48926 -7.49023l-142.303 -142.303l-7.48926 -7.48926l-7.49023 7.48926l-143.373 143.373l-7.48926 7.48926zM951.886 885.365l142.303 142.303l7.48926 7.48926l7.49023 -7.48926l143.372 -143.373l7.49023 -7.48926
l-7.49023 -7.48926l-142.303 -142.304l-7.48926 -7.48926l-7.49023 7.48926l-143.372 143.373l-7.49023 7.48926zM626.622 885.365l142.303 142.303l7.48926 7.48926l7.49023 -7.48926l143.372 -143.373l7.49023 -7.48926l-7.49023 -7.48926l-142.303 -142.304
l-7.48926 -7.48926l-7.49023 7.48926l-143.372 143.373l-7.49023 7.48926z" />
    <glyph glyph-name="uniFE9B" unicode="&#x62b;" horiz-adv-x="708" arabic-form="initial" 
d="M69 0h-76q-39 0 -58.5 29.5t-19.5 78.5v19q0 44 20 70.5t58 26.5h76q77 0 129.5 8t77.5 21q75 44 75 192q0 117 -36 260l-5 19l19 5l164 41l18 5l6 -18q49 -159 49 -309q0 -255 -148 -367q-107 -81 -349 -81zM132.113 1326.92l142.304 142.303l7.48926 7.48926
l7.48926 -7.48926l143.373 -143.373l7.48926 -7.48926l-7.48926 -7.49023l-142.303 -142.303l-7.48926 -7.48926l-7.49023 7.48926l-143.373 143.373l-7.48926 7.48926zM296.886 1058.37l142.303 142.303l7.48926 7.48926l7.49023 -7.48926l143.372 -143.373
l7.49023 -7.48926l-7.49023 -7.48926l-142.303 -142.304l-7.48926 -7.48926l-7.49023 7.48926l-143.372 143.373l-7.49023 7.48926zM-28.3779 1058.37l142.303 142.303l7.48926 7.48926l7.49023 -7.48926l143.372 -143.373l7.49023 -7.48926l-7.49023 -7.48926
l-142.303 -142.304l-7.48926 -7.48926l-7.49023 7.48926l-143.372 143.373l-7.49023 7.48926z" />
    <glyph glyph-name="uniFE9C" unicode="&#x62b;" horiz-adv-x="717" arabic-form="medial" 
d="M765 108v-6q0 -24 -1 -37t-4 -30.5t-12 -26t-23 -8.5h-10q-191 0 -275 126q-108 -126 -344 -126h-104q-39 0 -58 29.5t-19 78.5v19q0 44 19.5 70.5t57.5 26.5h99q214 0 236 116q6 33 6 79q0 49 -3 93l-5 82l-2 19l19 2l165 20l21 2l1 -21l16 -231q4 -56 24 -91.5
t56 -52.5t92 -17h8q14 0 23 -8t12 -26t4 -30.5t1 -36.5v-5v-10zM137.113 1229.92l142.304 142.303l7.48926 7.48926l7.48926 -7.48926l143.373 -143.373l7.48926 -7.48926l-7.48926 -7.49023l-142.303 -142.303l-7.48926 -7.48926l-7.49023 7.48926l-143.373 143.373
l-7.48926 7.48926zM301.886 961.365l142.303 142.303l7.48926 7.48926l7.49023 -7.48926l143.372 -143.373l7.49023 -7.48926l-7.49023 -7.48926l-142.303 -142.304l-7.48926 -7.48926l-7.49023 7.48926l-143.372 143.373l-7.49023 7.48926zM-23.3779 961.365
l142.303 142.303l7.48926 7.48926l7.49023 -7.48926l143.372 -143.373l7.49023 -7.48926l-7.49023 -7.48926l-142.303 -142.304l-7.48926 -7.48926l-7.49023 7.48926l-143.372 143.373l-7.49023 7.48926z" />
    <glyph glyph-name="uniFE9D" unicode="&#x62c;" horiz-adv-x="1366" arabic-form="isolated" 
d="M105 -125q0 288 171 476t508 274q-12 5 -25.5 10t-29.5 12q-191 77 -259 77q-35 0 -65.5 -9.5t-56.5 -28.5t-49 -48l-28 -36l-10 -13l-14 7l-154 76l-20 10l12 18l16 28q65 107 158.5 162t211.5 56q45 0 94.5 -10t103.5 -29.5t115 -48.5q308 -150 475 -157l20 -1l-1 -21
l-13 -174l-1 -17l-18 -1q-25 -2 -48.5 -3.5t-46 -4t-44 -5t-41.5 -5t-39 -5.5t-36.5 -6.5t-33.5 -7.5q-642 -149 -642 -559q0 -175 125.5 -262t385.5 -87q212 0 409 94l23 11l5 -25l36 -179l3 -15l-14 -7q-203 -99 -476 -99q-131 0 -237.5 21t-191 64t-144.5 107
q-134 145 -134 361zM651.713 -57.3057l145.513 145.513l7.48926 7.48926l7.48926 -7.48926l146.583 -146.583l7.48926 -7.48926l-7.48926 -7.49023l-145.513 -145.513l-7.48926 -7.48926l-7.49023 7.48926l-146.582 146.583l-7.49023 7.48926z" />
    <glyph glyph-name="uniFE9E" unicode="&#x62c;" horiz-adv-x="1386" arabic-form="final" 
d="M1278 679l-13 -174l-1 -17l-18 -1q-92 -7 -176 -18q2 -84 30.5 -138t85.5 -80.5t145 -26.5h63q14 0 23 -8t12 -24t4 -27.5t1 -32.5v-24v-5q0 -25 -0.5 -37.5t-4 -30.5t-12.5 -26.5t-23 -8.5h-63q-220 0 -335 109t-120 321q-284 -76 -422.5 -210.5t-138.5 -328.5
q0 -175 125.5 -262t385.5 -87q212 0 409 94l23 11l5 -25l36 -179l3 -15l-14 -7q-203 -99 -476 -99q-131 0 -237.5 21t-191 64t-144.5 107q-134 145 -134 361q0 289 171 476.5t508 273.5q-12 5 -25.5 10t-29.5 12q-191 77 -259 77q-35 0 -65.5 -9.5t-56.5 -28.5t-49 -48
l-28 -36l-10 -13l-14 7l-154 76l-20 10l12 18l16 28q133 218 371 218q131 0 312 -88q308 -150 475 -157l20 -1zM558.713 -77.3057l145.513 145.513l7.48926 7.48926l7.48926 -7.48926l146.583 -146.583l7.48926 -7.48926l-7.48926 -7.49023l-145.513 -145.513
l-7.48926 -7.48926l-7.49023 7.48926l-146.582 146.583l-7.49023 7.48926z" />
    <glyph glyph-name="uniFE9F" unicode="&#x62c;" horiz-adv-x="1337" arabic-form="initial" 
d="M553.713 -309.306l145.513 145.513l7.48926 7.48926l7.48926 -7.48926l146.583 -146.583l7.48926 -7.48926l-7.48926 -7.49023l-145.513 -145.513l-7.48926 -7.48926l-7.49023 7.48926l-146.582 146.583l-7.49023 7.48926zM-7 0q-39 0 -58.5 29.5t-19.5 78.5v19
q0 44 20 70.5t58 26.5h60q325 0 807 249l33 17q-29 10 -71.5 27t-102.5 42q-192 77 -259 77q-104 0 -171 -86l-28 -36l-10 -13l-14 7l-154 76l-20 10l12 18l16 28q65 108 158.5 162.5t211.5 55.5q132 0 313 -88q308 -150 475 -157l19 -1v-20l-2 -173v-18l-18 -2
q-111 -10 -417 -171q-433 -228 -790 -228h-48z" />
    <glyph glyph-name="uniFEA0" unicode="&#x62c;" horiz-adv-x="1351" arabic-form="medial" 
d="M554.713 -309.306l145.513 145.513l7.48926 7.48926l7.48926 -7.48926l146.583 -146.583l7.48926 -7.48926l-7.48926 -7.49023l-145.513 -145.513l-7.48926 -7.48926l-7.49023 7.48926l-146.582 146.583l-7.49023 7.48926zM893 490q-28 10 -71 27t-103 42
q-192 77 -259 77q-104 0 -171 -86l-28 -36l-10 -13l-14 7l-154 76l-20 10l12 18l16 28q65 108 158.5 162.5t211.5 55.5q132 0 313 -88q308 -150 475 -157l19 -1v-20l-2 -173v-19l-18 -1q-36 -3 -84 -18.5t-104 -42.5q15 -114 257 -114h44q14 0 22.5 -8t12 -24t4.5 -27.5
t1 -32.5v-24q0 -12 -0.5 -24.5t-1 -24.5t-3 -23t-6.5 -19t-11.5 -12.5t-18.5 -4.5h-59q-178 0 -283 64.5t-130 193.5q-14 -7 -28 -14.5t-29 -15.5q-433 -228 -790 -228h-48q-39 0 -58.5 29.5t-19.5 78.5v19q0 44 20 70.5t58 26.5h60q325 0 807 249z" />
    <glyph glyph-name="uniFEA1" unicode="&#x62d;" horiz-adv-x="1386" arabic-form="isolated" 
d="M105 -125q0 288 171 476t508 274q-12 5 -25.5 10t-29.5 12q-191 77 -259 77q-35 0 -65.5 -9.5t-56.5 -28.5t-49 -48l-28 -36l-10 -13l-14 7l-154 76l-20 10l12 18l16 28q65 107 158.5 162t211.5 56q45 0 94.5 -10t103.5 -29.5t115 -48.5q308 -150 475 -157l20 -1l-1 -21
l-13 -174l-1 -17l-18 -1q-25 -2 -48.5 -3.5t-46 -4t-44 -5t-41.5 -5t-39 -5.5t-36.5 -6.5t-33.5 -7.5q-642 -149 -642 -559q0 -175 125.5 -262t385.5 -87q212 0 409 94l23 11l5 -25l36 -179l3 -15l-14 -7q-203 -99 -476 -99q-131 0 -237.5 21t-191 64t-144.5 107
q-134 145 -134 361z" />
    <glyph glyph-name="uniFEA2" unicode="&#x62d;" horiz-adv-x="1386" arabic-form="final" 
d="M1278 679l-13 -174l-1 -17l-18 -1q-92 -7 -176 -18q2 -84 30.5 -138t85.5 -80.5t145 -26.5h63q14 0 23 -8t12 -24t4 -27.5t1 -32.5v-24v-5q0 -25 -0.5 -37.5t-4 -30.5t-12.5 -26.5t-23 -8.5h-63q-220 0 -335 109t-120 321q-284 -76 -422.5 -210.5t-138.5 -328.5
q0 -175 125.5 -262t385.5 -87q212 0 409 94l23 11l5 -25l36 -179l3 -15l-14 -7q-203 -99 -476 -99q-131 0 -237.5 21t-191 64t-144.5 107q-134 145 -134 361q0 289 171 476.5t508 273.5q-12 5 -25.5 10t-29.5 12q-191 77 -259 77q-35 0 -65.5 -9.5t-56.5 -28.5t-49 -48
l-28 -36l-10 -13l-14 7l-154 76l-20 10l12 18l16 28q133 218 371 218q131 0 312 -88q308 -150 475 -157l20 -1z" />
    <glyph glyph-name="uniFEA3" unicode="&#x62d;" horiz-adv-x="1337" arabic-form="initial" 
d="M-7 0q-39 0 -58.5 29.5t-19.5 78.5v19q0 44 20 70.5t58 26.5h60q325 0 807 249l33 17q-29 10 -71.5 27t-102.5 42q-192 77 -259 77q-104 0 -171 -86l-28 -36l-10 -13l-14 7l-154 76l-20 10l12 18l16 28q65 108 158.5 162.5t211.5 55.5q132 0 313 -88q308 -150 475 -157
l19 -1v-20l-2 -173v-18l-18 -2q-111 -10 -417 -171q-433 -228 -790 -228h-48z" />
    <glyph glyph-name="uniFEA4" unicode="&#x62d;" horiz-adv-x="1351" arabic-form="medial" 
d="M893 490q-28 10 -71 27t-103 42q-192 77 -259 77q-104 0 -171 -86l-28 -36l-10 -13l-14 7l-154 76l-20 10l12 18l16 28q65 108 158.5 162.5t211.5 55.5q132 0 313 -88q308 -150 475 -157l19 -1v-20l-2 -173v-19l-18 -1q-36 -3 -84 -18.5t-104 -42.5q15 -114 257 -114h44
q14 0 22.5 -8t12 -24t4.5 -27.5t1 -32.5v-24q0 -12 -0.5 -24.5t-1 -24.5t-3 -23t-6.5 -19t-11.5 -12.5t-18.5 -4.5h-59q-178 0 -283 64.5t-130 193.5q-14 -7 -28 -14.5t-29 -15.5q-433 -228 -790 -228h-48q-39 0 -58.5 29.5t-19.5 78.5v19q0 44 20 70.5t58 26.5h60
q325 0 807 249z" />
    <glyph glyph-name="uniFEA5" unicode="&#x62e;" horiz-adv-x="1386" arabic-form="isolated" 
d="M426.713 1265.69l145.513 145.513l7.48926 7.48926l7.48926 -7.48926l146.583 -146.583l7.48926 -7.48926l-7.48926 -7.49023l-145.513 -145.513l-7.48926 -7.48926l-7.49023 7.48926l-146.582 146.583l-7.49023 7.48926zM105 -125q0 288 171 476t508 274q-12 5 -25.5 10
t-29.5 12q-191 77 -259 77q-35 0 -65.5 -9.5t-56.5 -28.5t-49 -48l-28 -36l-10 -13l-14 7l-154 76l-20 10l12 18l16 28q65 107 158.5 162t211.5 56q45 0 94.5 -10t103.5 -29.5t115 -48.5q308 -150 475 -157l20 -1l-1 -21l-13 -174l-1 -17l-18 -1q-25 -2 -48.5 -3.5t-46 -4
t-44 -5t-41.5 -5t-39 -5.5t-36.5 -6.5t-33.5 -7.5q-642 -149 -642 -559q0 -175 125.5 -262t385.5 -87q212 0 409 94l23 11l5 -25l36 -179l3 -15l-14 -7q-203 -99 -476 -99q-131 0 -237.5 21t-191 64t-144.5 107q-134 145 -134 361z" />
    <glyph glyph-name="uniFEA6" unicode="&#x62e;" horiz-adv-x="1386" arabic-form="final" 
d="M426.713 1265.69l145.513 145.513l7.48926 7.48926l7.48926 -7.48926l146.583 -146.583l7.48926 -7.48926l-7.48926 -7.49023l-145.513 -145.513l-7.48926 -7.48926l-7.49023 7.48926l-146.582 146.583l-7.49023 7.48926zM1278 679l-13 -174l-1 -17l-18 -1
q-92 -7 -176 -18q2 -84 30.5 -138t85.5 -80.5t145 -26.5h63q14 0 23 -8t12 -24t4 -27.5t1 -32.5v-24v-5q0 -25 -0.5 -37.5t-4 -30.5t-12.5 -26.5t-23 -8.5h-63q-220 0 -335 109t-120 321q-284 -76 -422.5 -210.5t-138.5 -328.5q0 -175 125.5 -262t385.5 -87q212 0 409 94
l23 11l5 -25l36 -179l3 -15l-14 -7q-203 -99 -476 -99q-131 0 -237.5 21t-191 64t-144.5 107q-134 145 -134 361q0 289 171 476.5t508 273.5q-12 5 -25.5 10t-29.5 12q-191 77 -259 77q-35 0 -65.5 -9.5t-56.5 -28.5t-49 -48l-28 -36l-10 -13l-14 7l-154 76l-20 10l12 18
l16 28q133 218 371 218q131 0 312 -88q308 -150 475 -157l20 -1z" />
    <glyph glyph-name="uniFEA7" unicode="&#x62e;" horiz-adv-x="1337" arabic-form="initial" 
d="M386.713 1212.69l145.513 145.513l7.48926 7.48926l7.48926 -7.48926l146.583 -146.583l7.48926 -7.48926l-7.48926 -7.49023l-145.513 -145.513l-7.48926 -7.48926l-7.49023 7.48926l-146.582 146.583l-7.49023 7.48926zM-7 0q-39 0 -58.5 29.5t-19.5 78.5v19
q0 44 20 70.5t58 26.5h60q325 0 807 249l33 17q-29 10 -71.5 27t-102.5 42q-192 77 -259 77q-104 0 -171 -86l-28 -36l-10 -13l-14 7l-154 76l-20 10l12 18l16 28q65 108 158.5 162.5t211.5 55.5q132 0 313 -88q308 -150 475 -157l19 -1v-20l-2 -173v-18l-18 -2
q-111 -10 -417 -171q-433 -228 -790 -228h-48z" />
    <glyph glyph-name="uniFEA8" unicode="&#x62e;" horiz-adv-x="1351" arabic-form="medial" 
d="M386.713 1212.69l145.513 145.513l7.48926 7.48926l7.48926 -7.48926l146.583 -146.583l7.48926 -7.48926l-7.48926 -7.49023l-145.513 -145.513l-7.48926 -7.48926l-7.49023 7.48926l-146.582 146.583l-7.49023 7.48926zM893 490q-28 10 -71 27t-103 42q-192 77 -259 77
q-104 0 -171 -86l-28 -36l-10 -13l-14 7l-154 76l-20 10l12 18l16 28q65 108 158.5 162.5t211.5 55.5q132 0 313 -88q308 -150 475 -157l19 -1v-20l-2 -173v-19l-18 -1q-36 -3 -84 -18.5t-104 -42.5q15 -114 257 -114h44q14 0 22.5 -8t12 -24t4.5 -27.5t1 -32.5v-24
q0 -12 -0.5 -24.5t-1 -24.5t-3 -23t-6.5 -19t-11.5 -12.5t-18.5 -4.5h-59q-178 0 -283 64.5t-130 193.5q-14 -7 -28 -14.5t-29 -15.5q-433 -228 -790 -228h-48q-39 0 -58.5 29.5t-19.5 78.5v19q0 44 20 70.5t58 26.5h60q325 0 807 249z" />
    <glyph glyph-name="uniFEA9" unicode="&#x62f;" horiz-adv-x="994" arabic-form="isolated" 
d="M105 251q124 -26 237 -26q350 0 350 161q0 198 -406 453l-17 11l11 17l101 152l10 16l16 -10q505 -301 505 -636q0 -193 -142 -289.5t-415 -97.5q-149 0 -258 24l-16 4v16v185v25z" />
    <glyph glyph-name="uniFEAA" unicode="&#x62f;" horiz-adv-x="1101" arabic-form="final" 
d="M388 1q-136 0 -290 29l-16 3v17v184v25l24 -5q138 -29 287 -29q295 0 295 124q0 27 -23 97t-67 175l-126 300l-8 18l18 8l164 76l19 9l8 -20l198 -503q57 -144 113 -214.5t105 -70.5h20q9 0 16.5 -4t11.5 -12.5t6.5 -15.5t3.5 -21t1.5 -21.5t0.5 -22.5v-19q0 -34 -3 -53
q-4 -23 -9 -35l-1 -1q-10 -19 -27 -19h-20q-166 0 -265 147q-141 -146 -436 -146z" />
    <glyph glyph-name="uniFEAB" unicode="&#x630;" horiz-adv-x="994" arabic-form="isolated" 
d="M105 251q124 -26 237 -26q350 0 350 161q0 198 -406 453l-17 11l11 17l101 152l10 16l16 -10q505 -301 505 -636q0 -193 -142 -289.5t-415 -97.5q-149 0 -258 24l-16 4v16v185v25zM233.713 1333.69l145.513 145.513l7.48926 7.48926l7.48926 -7.48926l146.583 -146.583
l7.48926 -7.48926l-7.48926 -7.49023l-145.513 -145.513l-7.48926 -7.48926l-7.49023 7.48926l-146.582 146.583l-7.49023 7.48926z" />
    <glyph glyph-name="uniFEAC" unicode="&#x630;" horiz-adv-x="1101" arabic-form="final" 
d="M388 1q-136 0 -290 29l-16 3v17v184v25l24 -5q138 -29 287 -29q295 0 295 124q0 27 -23 97t-67 175l-126 300l-8 18l18 8l164 76l19 9l8 -20l198 -503q57 -144 113 -214.5t105 -70.5h20q9 0 16.5 -4t11.5 -12.5t6.5 -15.5t3.5 -21t1.5 -21.5t0.5 -22.5v-19q0 -34 -3 -53
q-4 -23 -9 -35l-1 -1q-10 -19 -27 -19h-20q-166 0 -265 147q-141 -146 -436 -146zM387.713 1326.69l145.513 145.513l7.48926 7.48926l7.48926 -7.48926l146.583 -146.583l7.48926 -7.48926l-7.48926 -7.49023l-145.513 -145.513l-7.48926 -7.48926l-7.49023 7.48926
l-146.582 146.583l-7.49023 7.48926z" />
    <glyph glyph-name="uniFEAD" unicode="&#x631;" horiz-adv-x="826" arabic-form="isolated" 
d="M663 560q86 -195 86 -376q0 -298 -181 -467t-536 -207l-18 -2l-4 17l-43 170l-5 23l23 2q278 28 413.5 140.5t134.5 311.5q0 149 -76 312l-9 20l20 7l171 59l17 7z" />
    <glyph glyph-name="uniFEAE" unicode="&#x631;" horiz-adv-x="910" arabic-form="final" 
d="M663 557l57 -193q21 -72 63 -106t108 -34h28q14 0 22.5 -8t12 -24t4.5 -27.5t1 -32.5v-24v-5q0 -24 -1 -37t-4 -31t-12 -26.5t-23 -8.5h-17q-113 0 -167 34q-79 -457 -703 -524l-18 -2l-4 17l-43 170l-5 23l23 2q278 28 413.5 141t134.5 312q0 146 -77 311l-9 20l20 7
l171 59l19 7z" />
    <glyph glyph-name="uniFEAF" unicode="&#x632;" horiz-adv-x="826" arabic-form="isolated" 
d="M663 560q86 -195 86 -376q0 -298 -181 -467t-536 -207l-18 -2l-4 17l-43 170l-5 23l23 2q278 28 413.5 140.5t134.5 311.5q0 149 -76 312l-9 20l20 7l171 59l17 7zM347.034 903.622l150.369 150.368l7.73926 7.73926l7.73926 -7.73926l151.475 -151.475l7.73926 -7.73926
l-7.73926 -7.73926l-150.368 -150.369l-7.74023 -7.73926l-7.73926 7.73926l-151.475 151.475l-7.73926 7.73926z" />
    <glyph glyph-name="uniFEB0" unicode="&#x632;" horiz-adv-x="910" arabic-form="final" 
d="M347.034 903.622l150.369 150.368l7.73926 7.73926l7.73926 -7.73926l151.475 -151.475l7.73926 -7.73926l-7.73926 -7.73926l-150.368 -150.369l-7.74023 -7.73926l-7.73926 7.73926l-151.475 151.475l-7.73926 7.73926zM664 557l57 -193q21 -72 63 -106t108 -34h28
q14 0 22.5 -8t12 -24t4.5 -27.5t1 -32.5v-24v-5q0 -24 -1 -37t-4 -31t-12 -26.5t-23 -8.5h-17q-113 0 -167 34q-79 -457 -703 -524l-18 -2l-4 17l-43 170l-5 23l23 2q278 28 413.5 141t134.5 312q0 146 -77 311l-9 20l20 7l171 59l19 7z" />
    <glyph glyph-name="uniFEB1" unicode="&#x633;" horiz-adv-x="2506" arabic-form="isolated" 
d="M1553 0q-97 0 -164 39q-9 -121 -67 -245q-151 -314 -615 -314q-495 0 -599 370q-26 95 -26 211q0 209 103 457l7 18l19 -7l158 -66l18 -7l-7 -19q-82 -208 -82 -374q0 -185 102 -275.5t314 -90.5q154 0 255 46.5t151 141t51 237.5q0 179 -89 361l-9 20l21 8l172 60l20 7
l6 -20l60 -185q24 -74 73.5 -109.5t128.5 -35.5q91 0 133 41t41 130q0 27 -0.5 49t-1 38t-1.5 26l-5 61l-2 19l19 2l165 20l21 2l1 -21l17 -231q4 -71 37.5 -103.5t100.5 -32.5q64 1 96 46t31.5 145t-43.5 250l-5 19l19 6l171 45l19 5l5 -18q51 -160 50 -306
q0 -236 -128 -348q-82 -71 -213 -71q-87 0 -149.5 30.5t-98.5 92.5q-105 -124 -280 -124z" />
    <glyph glyph-name="uniFEB2" unicode="&#x633;" horiz-adv-x="2589" arabic-form="final" 
d="M1352 373q25 -76 74.5 -112.5t127.5 -36.5q87 0 127.5 39t40.5 123q0 39 -0.5 65.5t-1.5 39.5l-5 82l-2 19l19 2l165 20l21 2l1 -21l16 -231q5 -73 38.5 -106t99.5 -33q65 0 97.5 43t33.5 139q0 64 -5 125l-6 61l-2 20l20 2l165 19l20 3l2 -21l16 -189q9 -105 50 -154
t115 -49h18q10 0 17.5 -4t11.5 -12.5t6.5 -15.5t3.5 -21t1.5 -21.5t0.5 -22.5v-19q-1 -3 -1 -9q0 -24 -1 -36.5t-4.5 -29.5t-12 -25t-22.5 -8h-16q-60 0 -108.5 13t-84.5 39.5t-59 66.5q-40 -59 -102 -89t-145 -30q-183 0 -254 123q-25 -30 -55.5 -53t-65 -38.5t-73 -23
t-81.5 -7.5q-98 0 -164 38q-1 -14 -3 -27.5l-4 -27t-4.5 -27t-6 -27t-7.5 -27t-8.5 -27t-10 -27.5t-11.5 -27.5t-12 -27.5q-151 -314 -615 -314q-61 0 -117 6t-106 17.5t-93.5 29.5t-81 41t-69 52.5t-57 64t-44.5 75.5t-31.5 87t-19 98t-6.5 110q0 209 103 457l7 18l19 -7
l158 -66l18 -7l-7 -19q-82 -208 -82 -374q0 -185 102 -275.5t314 -90.5q231 0 343.5 105.5t113.5 321.5q0 59 -10 118.5t-29.5 120t-49.5 120.5l-9 20l21 8l172 60l20 7l6 -20z" />
    <glyph glyph-name="uniFEB3" unicode="&#x633;" horiz-adv-x="1599" arabic-form="initial" 
d="M818 355q5 27 5 66q0 22 -1 45t-3 46l-6 61l-1 19l19 2l165 20l21 2l1 -21l16 -231q5 -72 38.5 -105.5t98.5 -33.5q16 0 30 2.5t26 8t22 14t18 20.5t14.5 27t10.5 33.5t6 40.5t2 48q0 33 -5 71.5t-14.5 83.5t-23.5 95l-6 19l20 6l171 45l18 5l6 -18q51 -161 50 -300v-3
v-3q-1 -117 -32.5 -204.5t-95.5 -143.5q-81 -71 -213 -71q-87 0 -150 31t-98 92q-104 -124 -281 -124q-202 1 -276 122q-94 -122 -321 -122h-56q-39 0 -58.5 29.5t-19.5 78.5v19q0 44 20 70.5t58 26.5h58q66 0 111 15t70.5 43.5t34.5 72.5q3 13 4.5 30t1.5 36q0 21 -1 43.5
t-3 47.5l-6 61l-1 19l19 2l165 20l20 2l2 -21l16 -231q5 -72 44.5 -106t119.5 -34q50 0 84.5 14.5t55.5 43t30 73.5z" />
    <glyph glyph-name="uniFEB4" unicode="&#x633;" horiz-adv-x="1688" arabic-form="medial" 
d="M1034 364q4 -49 20 -79.5t45.5 -45t73.5 -14.5q66 0 98 42.5t31 136.5q0 78 -5 128l-5 61l-2 20l20 2l164 19l21 3l2 -21l16 -189q6 -71 26.5 -116t55 -66t83.5 -21h18q10 0 17.5 -4t11.5 -12.5t6.5 -15.5t3.5 -21t1 -21.5v-22.5v-19v-7q0 -101 -40 -101h-16
q-186 0 -252 119q-81 -119 -249 -119q-86 0 -149.5 31.5t-101.5 93.5q-105 -125 -282 -125q-202 1 -276 122q-94 -122 -321 -122h-56q-39 0 -58.5 29.5t-19.5 78.5v19q0 44 20 70.5t58 26.5h58q98 0 151 32.5t66 98.5q5 22 5 66q0 42 -4 91l-6 61l-1 19l19 2l165 20l20 2
l2 -21l16 -231q5 -72 44.5 -106t119.5 -34q38 0 66.5 8t49.5 24t34.5 40.5t20.5 58.5q4 22 4 66t-4 91l-6 61l-1 19l19 2l165 20l21 2l1 -21z" />
    <glyph glyph-name="uniFEB5" unicode="&#x634;" horiz-adv-x="2506" arabic-form="isolated" 
d="M1623.11 1236.92l142.304 142.303l7.48926 7.48926l7.48926 -7.48926l143.373 -143.373l7.48926 -7.48926l-7.48926 -7.49023l-142.303 -142.303l-7.48926 -7.48926l-7.49023 7.48926l-143.373 143.373l-7.48926 7.48926zM1787.89 968.365l142.303 142.303
l7.48926 7.48926l7.49023 -7.48926l143.372 -143.373l7.49023 -7.48926l-7.49023 -7.48926l-142.303 -142.304l-7.48926 -7.48926l-7.49023 7.48926l-143.372 143.373l-7.49023 7.48926zM1462.62 968.365l142.303 142.303l7.48926 7.48926l7.49023 -7.48926
l143.372 -143.373l7.49023 -7.48926l-7.49023 -7.48926l-142.303 -142.304l-7.48926 -7.48926l-7.49023 7.48926l-143.372 143.373l-7.49023 7.48926zM1553 0q-97 0 -164 39q-9 -121 -67 -245q-151 -314 -615 -314q-495 0 -599 370q-26 95 -26 211q0 209 103 457l7 18l19 -7
l158 -66l18 -7l-7 -19q-82 -208 -82 -374q0 -185 102 -275.5t314 -90.5q154 0 255 46.5t151 141t51 237.5q0 179 -89 361l-9 20l21 8l172 60l20 7l6 -20l60 -185q24 -74 73.5 -109.5t128.5 -35.5q91 0 133 41t41 130q0 27 -0.5 49t-1 38t-1.5 26l-5 61l-2 19l19 2l165 20
l21 2l1 -21l17 -231q4 -71 37.5 -103.5t100.5 -32.5q64 1 96 46t31.5 145t-43.5 250l-5 19l19 6l171 45l19 5l5 -18q51 -160 50 -306q0 -236 -128 -348q-82 -71 -213 -71q-87 0 -149.5 30.5t-98.5 92.5q-105 -124 -280 -124z" />
    <glyph glyph-name="uniFEB6" unicode="&#x634;" horiz-adv-x="2589" arabic-form="final" 
d="M1624.11 1236.92l142.304 142.303l7.48926 7.48926l7.48926 -7.48926l143.373 -143.373l7.48926 -7.48926l-7.48926 -7.49023l-142.303 -142.303l-7.48926 -7.48926l-7.49023 7.48926l-143.373 143.373l-7.48926 7.48926zM1788.89 968.365l142.303 142.303
l7.48926 7.48926l7.49023 -7.48926l143.372 -143.373l7.49023 -7.48926l-7.49023 -7.48926l-142.303 -142.304l-7.48926 -7.48926l-7.49023 7.48926l-143.372 143.373l-7.49023 7.48926zM1463.62 968.365l142.303 142.303l7.48926 7.48926l7.49023 -7.48926
l143.372 -143.373l7.49023 -7.48926l-7.49023 -7.48926l-142.303 -142.304l-7.48926 -7.48926l-7.49023 7.48926l-143.372 143.373l-7.49023 7.48926zM1352 373q25 -76 74.5 -112.5t127.5 -36.5q87 0 127.5 39t40.5 123q0 39 -0.5 65.5t-1.5 39.5l-5 82l-2 19l19 2l165 20
l21 2l1 -21l16 -231q5 -73 38.5 -106t99.5 -33q65 0 97.5 43t33.5 139q0 64 -5 125l-6 61l-2 20l20 2l165 19l20 3l2 -21l16 -189q9 -105 50 -154t115 -49h18q10 0 17.5 -4t11.5 -12.5t6.5 -15.5t3.5 -21t1.5 -21.5t0.5 -22.5v-19q-1 -3 -1 -9q0 -24 -1 -36.5t-4.5 -29.5
t-12 -25t-22.5 -8h-16q-60 0 -108.5 13t-84.5 39.5t-59 66.5q-40 -59 -102 -89t-145 -30q-183 0 -254 123q-25 -30 -55.5 -53t-65 -38.5t-73 -23t-81.5 -7.5q-98 0 -164 38q-1 -14 -3 -27.5l-4 -27t-4.5 -27t-6 -27t-7.5 -27t-8.5 -27t-10 -27.5t-11.5 -27.5t-12 -27.5
q-151 -314 -615 -314q-61 0 -117 6t-106 17.5t-93.5 29.5t-81 41t-69 52.5t-57 64t-44.5 75.5t-31.5 87t-19 98t-6.5 110q0 209 103 457l7 18l19 -7l158 -66l18 -7l-7 -19q-82 -208 -82 -374q0 -185 102 -275.5t314 -90.5q231 0 343.5 105.5t113.5 321.5q0 59 -10 118.5
t-29.5 120t-49.5 120.5l-9 20l21 8l172 60l20 7l6 -20z" />
    <glyph glyph-name="uniFEB7" unicode="&#x634;" horiz-adv-x="1599" arabic-form="initial" 
d="M744.113 1236.92l142.304 142.303l7.48926 7.48926l7.48926 -7.48926l143.373 -143.373l7.48926 -7.48926l-7.48926 -7.49023l-142.303 -142.303l-7.48926 -7.48926l-7.49023 7.48926l-143.373 143.373l-7.48926 7.48926zM908.886 968.365l142.303 142.303
l7.48926 7.48926l7.49023 -7.48926l143.372 -143.373l7.49023 -7.48926l-7.49023 -7.48926l-142.303 -142.304l-7.48926 -7.48926l-7.49023 7.48926l-143.372 143.373l-7.49023 7.48926zM583.622 968.365l142.303 142.303l7.48926 7.48926l7.49023 -7.48926
l143.372 -143.373l7.49023 -7.48926l-7.49023 -7.48926l-142.303 -142.304l-7.48926 -7.48926l-7.49023 7.48926l-143.372 143.373l-7.49023 7.48926zM818 355q5 27 5 66q0 22 -1 45t-3 46l-6 61l-1 19l19 2l165 20l21 2l1 -21l16 -231q5 -72 38.5 -105.5t98.5 -33.5
q16 0 30 2.5t26 8t22 14t18 20.5t14.5 27t10.5 33.5t6 40.5t2 48q0 33 -5 71.5t-14.5 83.5t-23.5 95l-6 19l20 6l171 45l18 5l6 -18q51 -161 50 -300v-3v-3q-1 -117 -32.5 -204.5t-95.5 -143.5q-81 -71 -213 -71q-87 0 -150 31t-98 92q-104 -124 -281 -124q-202 1 -276 122
q-94 -122 -321 -122h-56q-39 0 -58.5 29.5t-19.5 78.5v19q0 44 20 70.5t58 26.5h58q66 0 111 15t70.5 43.5t34.5 72.5q3 13 4.5 30t1.5 36q0 21 -1 43.5t-3 47.5l-6 61l-1 19l19 2l165 20l20 2l2 -21l16 -231q5 -72 44.5 -106t119.5 -34q50 0 84.5 14.5t55.5 43t30 73.5z
" />
    <glyph glyph-name="uniFEB8" unicode="&#x634;" horiz-adv-x="1688" arabic-form="medial" 
d="M744.113 1236.92l142.304 142.303l7.48926 7.48926l7.48926 -7.48926l143.373 -143.373l7.48926 -7.48926l-7.48926 -7.49023l-142.303 -142.303l-7.48926 -7.48926l-7.49023 7.48926l-143.373 143.373l-7.48926 7.48926zM908.886 968.365l142.303 142.303
l7.48926 7.48926l7.49023 -7.48926l143.372 -143.373l7.49023 -7.48926l-7.49023 -7.48926l-142.303 -142.304l-7.48926 -7.48926l-7.49023 7.48926l-143.372 143.373l-7.49023 7.48926zM583.622 968.365l142.303 142.303l7.48926 7.48926l7.49023 -7.48926
l143.372 -143.373l7.49023 -7.48926l-7.49023 -7.48926l-142.303 -142.304l-7.48926 -7.48926l-7.49023 7.48926l-143.372 143.373l-7.49023 7.48926zM1034 364q4 -49 20 -79.5t45.5 -45t73.5 -14.5q66 0 98 42.5t31 136.5q0 78 -5 128l-5 61l-2 20l20 2l164 19l21 3l2 -21
l16 -189q6 -71 26.5 -116t55 -66t83.5 -21h18q10 0 17.5 -4t11.5 -12.5t6.5 -15.5t3.5 -21t1 -21.5v-22.5v-19v-7q0 -101 -40 -101h-16q-186 0 -252 119q-81 -119 -249 -119q-86 0 -149.5 31.5t-101.5 93.5q-105 -125 -282 -125q-202 1 -276 122q-94 -122 -321 -122h-56
q-39 0 -58.5 29.5t-19.5 78.5v19q0 44 20 70.5t58 26.5h58q98 0 151 32.5t66 98.5q5 22 5 66q0 42 -4 91l-6 61l-1 19l19 2l165 20l20 2l2 -21l16 -231q5 -72 44.5 -106t119.5 -34q38 0 66.5 8t49.5 24t34.5 40.5t20.5 58.5q4 22 4 66t-4 91l-6 61l-1 19l19 2l165 20l21 2
l1 -21z" />
    <glyph glyph-name="uniFEB9" unicode="&#x635;" horiz-adv-x="2607" arabic-form="isolated" 
d="M1661 224h118q273 0 390 52q22 10 41 22t34 25t26 28t18 32t11 35t4 39q0 29 -7.5 53.5t-23.5 44.5q-53 69 -150 70q-96 -1 -212.5 -100.5t-248.5 -300.5zM1722 0q-108 0 -191.5 11.5t-141.5 34.5q-7 -128 -67 -252q-151 -314 -615 -314q-495 0 -599 370q-26 95 -26 211
q0 209 103 457l7 18l19 -7l158 -66l18 -7l-7 -19q-82 -208 -82 -374q0 -185 102 -275.5t314 -90.5q154 0 255 46.5t151 141t51 237.5q0 179 -89 361l-9 20l21 8l172 60l20 7l6 -20l68 -211q25 -77 64 -91q359 601 695 600q55 0 103.5 -10.5t91 -31t78.5 -52t65 -73.5
q34 -50 51.5 -105t16.5 -115q0 -56 -14 -120q-81 -349 -738 -349h-51z" />
    <glyph glyph-name="uniFEBA" unicode="&#x635;" horiz-adv-x="2636" arabic-form="final" 
d="M2644 224q10 0 17.5 -4t11.5 -12.5t6.5 -15.5t3.5 -21t1 -21.5v-22.5v-19v-7q0 -24 -0.5 -36.5t-4 -30.5t-12 -26t-23.5 -8h-24q-246 0 -355 78q-77 -40 -199 -59t-293 -19h-51q-108 0 -191.5 11.5t-141.5 34.5q-7 -128 -67 -252q-151 -314 -615 -314q-308 1 -466 146.5
t-159 431.5q-1 210 103 460l7 18l19 -7l158 -66l18 -7l-7 -19q-82 -209 -82 -375q1 -187 105 -277t320 -88q226 2 336.5 106.5t111.5 316.5q0 180 -89 363l-9 20l21 8l172 60l20 7l6 -20l68 -215q24 -75 64 -88q358 600 696 601q108 1 193 -41t144 -125q70 -101 70 -228
q0 -30 -4.5 -59t-14 -57.5t-22.5 -56t-31 -53.5q15 -4 38.5 -6.5t57 -4t75.5 -1.5h18zM1661 224h118q271 0 390 52q135 60 134 181q-1 58 -31 98q-27 35 -64 52t-86 18q-64 -1 -136.5 -44t-154.5 -133t-170 -224z" />
    <glyph glyph-name="uniFEBB" unicode="&#x635;" horiz-adv-x="1690" arabic-form="initial" 
d="M744 224h118q273 0 389 52q134 59 135 181q0 57 -31 98q-27 35 -64 52t-86 18q-64 -1 -136 -44t-154.5 -133t-170.5 -224zM347 132q-113 -132 -337 -132h-17q-39 0 -58.5 29.5t-19.5 78.5v19q0 29 8.5 50.5t26.5 34t44 12.5h16q207 0 227 116q11 59 3 172l-5 82l-2 19
l19 2l165 20l21 2l1 -21l18 -232q8 -102 51 -126q359 599 694 598q221 0 338 -167q69 -100 68 -220q0 -56 -14 -120q-81 -349 -738 -349h-51q-351 0 -458 132z" />
    <glyph glyph-name="uniFEBC" unicode="&#x635;" horiz-adv-x="1719" arabic-form="medial" 
d="M457 384q4 -53 17.5 -84t33.5 -42q360 599 696 598q217 0 336 -166q11 -17 21 -34.5t18 -36t13.5 -37.5t9.5 -38.5t6 -40t2 -41.5q0 -59 -18 -115.5t-54 -110.5q46 -12 171 -12h18q10 0 17.5 -4t11.5 -12.5t6.5 -15.5t3.5 -21t1 -21.5v-22.5v-19v-7q0 -24 -0.5 -36.5
t-4 -30.5t-12 -26t-23.5 -8h-24q-246 0 -355 78q-77 -40 -199 -59t-293 -19h-51q-348 0 -457 132q-114 -132 -338 -132h-17q-39 0 -58.5 29.5t-19.5 78.5v19q0 44 20 70.5t58 26.5h16q208 0 228 116q11 59 3 172l-5 82l-2 19l19 2l165 20l21 2l1 -21zM744 224h118
q271 0 390 52q45 20 75 47t44 60t15 74q0 57 -31 98q-27 35 -64 52t-86 18q-64 -1 -136 -44t-154.5 -133t-170.5 -224z" />
    <glyph glyph-name="uniFEBD" unicode="&#x636;" horiz-adv-x="2607" arabic-form="isolated" 
d="M1928.71 1190.69l145.513 145.513l7.48926 7.48926l7.48926 -7.48926l146.583 -146.583l7.48926 -7.48926l-7.48926 -7.49023l-145.513 -145.513l-7.48926 -7.48926l-7.49023 7.48926l-146.582 146.583l-7.49023 7.48926zM1661 224h118q273 0 390 52q22 10 41 22t34 25
t26 28t18 32t11 35t4 39q0 29 -7.5 53.5t-23.5 44.5q-53 69 -150 70q-96 -1 -212.5 -100.5t-248.5 -300.5zM1722 0q-108 0 -191.5 11.5t-141.5 34.5q-7 -128 -67 -252q-151 -314 -615 -314q-495 0 -599 370q-26 95 -26 211q0 209 103 457l7 18l19 -7l158 -66l18 -7l-7 -19
q-82 -208 -82 -374q0 -185 102 -275.5t314 -90.5q154 0 255 46.5t151 141t51 237.5q0 179 -89 361l-9 20l21 8l172 60l20 7l6 -20l68 -211q25 -77 64 -91q359 601 695 600q55 0 103.5 -10.5t91 -31t78.5 -52t65 -73.5q34 -50 51.5 -105t16.5 -115q0 -56 -14 -120
q-81 -349 -738 -349h-51z" />
    <glyph glyph-name="uniFEBE" unicode="&#x636;" horiz-adv-x="2636" arabic-form="final" 
d="M1928.71 1190.69l145.513 145.513l7.48926 7.48926l7.48926 -7.48926l146.583 -146.583l7.48926 -7.48926l-7.48926 -7.49023l-145.513 -145.513l-7.48926 -7.48926l-7.49023 7.48926l-146.582 146.583l-7.49023 7.48926zM2644 224q10 0 17.5 -4t11.5 -12.5t6.5 -15.5
t3.5 -21t1 -21.5v-22.5v-19v-7q0 -24 -0.5 -36.5t-4 -30.5t-12 -26t-23.5 -8h-24q-246 0 -355 78q-77 -40 -199 -59t-293 -19h-51q-108 0 -191.5 11.5t-141.5 34.5q-7 -128 -67 -252q-151 -314 -615 -314q-308 1 -466 146.5t-159 431.5q-1 210 103 460l7 18l19 -7l158 -66
l18 -7l-7 -19q-82 -209 -82 -375q1 -187 105 -277t320 -88q226 2 336.5 106.5t111.5 316.5q0 180 -89 363l-9 20l21 8l172 60l20 7l6 -20l68 -215q24 -75 64 -88q358 600 696 601q108 1 193 -41t144 -125q70 -101 70 -228q0 -30 -4.5 -59t-14 -57.5t-22.5 -56t-31 -53.5
q15 -4 38.5 -6.5t57 -4t75.5 -1.5h18zM1661 224h118q271 0 390 52q135 60 134 181q-1 58 -31 98q-27 35 -64 52t-86 18q-64 -1 -136.5 -44t-154.5 -133t-170 -224z" />
    <glyph glyph-name="uniFEBF" unicode="&#x636;" horiz-adv-x="1690" arabic-form="initial" 
d="M1008.71 1190.69l145.513 145.513l7.48926 7.48926l7.48926 -7.48926l146.583 -146.583l7.48926 -7.48926l-7.48926 -7.49023l-145.513 -145.513l-7.48926 -7.48926l-7.49023 7.48926l-146.582 146.583l-7.49023 7.48926zM744 224h118q273 0 389 52q134 59 135 181
q0 57 -31 98q-27 35 -64 52t-86 18q-64 -1 -136 -44t-154.5 -133t-170.5 -224zM347 132q-113 -132 -337 -132h-17q-39 0 -58.5 29.5t-19.5 78.5v19q0 29 8.5 50.5t26.5 34t44 12.5h16q207 0 227 116q11 59 3 172l-5 82l-2 19l19 2l165 20l21 2l1 -21l18 -232q8 -102 51 -126
q359 599 694 598q221 0 338 -167q69 -100 68 -220q0 -56 -14 -120q-81 -349 -738 -349h-51q-351 0 -458 132z" />
    <glyph glyph-name="uniFEC0" unicode="&#x636;" horiz-adv-x="1719" arabic-form="medial" 
d="M1008.71 1190.69l145.513 145.513l7.48926 7.48926l7.48926 -7.48926l146.583 -146.583l7.48926 -7.48926l-7.48926 -7.49023l-145.513 -145.513l-7.48926 -7.48926l-7.49023 7.48926l-146.582 146.583l-7.49023 7.48926zM457 384q4 -53 17.5 -84t33.5 -42
q360 599 696 598q217 0 336 -166q11 -17 21 -34.5t18 -36t13.5 -37.5t9.5 -38.5t6 -40t2 -41.5q0 -59 -18 -115.5t-54 -110.5q46 -12 171 -12h18q10 0 17.5 -4t11.5 -12.5t6.5 -15.5t3.5 -21t1 -21.5v-22.5v-19v-7q0 -24 -0.5 -36.5t-4 -30.5t-12 -26t-23.5 -8h-24
q-246 0 -355 78q-77 -40 -199 -59t-293 -19h-51q-348 0 -457 132q-114 -132 -338 -132h-17q-39 0 -58.5 29.5t-19.5 78.5v19q0 44 20 70.5t58 26.5h16q208 0 228 116q11 59 3 172l-5 82l-2 19l19 2l165 20l21 2l1 -21zM744 224h118q271 0 390 52q45 20 75 47t44 60t15 74
q0 57 -31 98q-27 35 -64 52t-86 18q-64 -1 -136 -44t-154.5 -133t-170.5 -224z" />
    <glyph glyph-name="uniFEC1" unicode="&#x637;" horiz-adv-x="1490" arabic-form="isolated" 
d="M1008 856q223 0 338 -168q64 -93 64 -214q0 -238 -191 -356q-190 -118 -561 -118h-557h-20v20v184v20h20h212q21 30 63 99v1096v20h20h173h20v-20v-800q207 237 419 237zM664 225q267 0 389 53q69 30 102 74t33 103q0 76 -53 124q-50 46 -128 46q-48 0 -101 -24.5
t-111 -74t-120.5 -125.5t-128.5 -176h118z" />
    <glyph glyph-name="uniFEC2" unicode="&#x637;" horiz-adv-x="1526" arabic-form="final" 
d="M546 225h118q268 0 391 55q68 30 100 73t33 102q0 39 -13 69t-39 54q-17 16 -37 26t-43.5 15.5t-50.5 5.5q-202 -3 -459 -400zM658 0h-557h-20v20v184v20h20h211q8 13 24 38q15 25 39 62v1095v20h20h174h20v-20v-799q203 236 417 236q220 1 340 -167q16 -23 28 -48
t20 -52q16 -53 16 -114q0 -71 -19 -135q-6 -18 -13.5 -36t-15.5 -35q-9 -17 -19 -33q21 -6 65 -9q43 -3 107 -3h18q10 0 17 -4q8 -4 12 -12q4 -9 7 -16q2 -7 3 -21t1 -21v-23v-19v-7q0 -24 -0.5 -36.5t-4.5 -30.5q-3 -18 -12 -26q-8 -8 -23 -8h-24q-128 0 -219 19
q-91 20 -146 59q-54 -26 -126 -44q-73 -17 -162 -26q-89 -8 -198 -8z" />
    <glyph glyph-name="uniFEC3" unicode="&#x637;" horiz-adv-x="1330" arabic-form="initial" 
d="M496 0h-503q-39 0 -58 30q-20 29 -20 78v19q0 44 20 70.5t58 26.5h156l64 100v1095v20h20h173h20v-20v-799q203 236 418 236q221 1 339 -167q6 -8 10.5 -16t9.5 -16l8 -16q4 -9 8 -17q3 -9 6 -17l6 -18q8 -26 12 -55q4 -28 4 -59q0 -238 -190.5 -356.5t-560.5 -118.5z
M384 225h117q268 0 392 54q132 58 132 176q0 76 -52 123q-26 24 -58 35q-33 12 -73 12q-98 -2 -214 -101.5t-244 -298.5z" />
    <glyph glyph-name="uniFEC4" unicode="&#x637;" horiz-adv-x="1354" arabic-form="medial" 
d="M384 225h117q265 0 392 55q132 57 132 175q0 76 -52 123q-26 24 -58 35q-33 12 -73 12q-98 -2 -214 -101.5t-244 -298.5zM496 0h-503q-39 0 -58 30q-20 29 -20 78v19q0 44 20 70.5t58 26.5h157q10 16 19 30t16 26q7 11 13 20q5 8 9 14q6 9 6 10v1095v20h20h173h20v-20
v-799q203 236 418 236q226 1 339 -168q64 -94 64 -213q0 -132 -67 -240q41 -11 162 -11h19q9 0 17 -4q7 -4 11 -12q4 -9 7 -16t3 -21q1 -14 2 -21v-23v-19v-5q0 -24 -1 -37t-4 -31t-12 -27q-9 -8 -23 -8h-24q-248 0 -356 78q-169 -78 -485 -78z" />
    <glyph glyph-name="uniFEC5" unicode="&#x638;" horiz-adv-x="1490" arabic-form="isolated" 
d="M1008 856q223 0 338 -168q64 -93 64 -214q0 -238 -191 -356q-190 -118 -561 -118h-557h-20v20v184v20h20h212q21 30 63 99v1096v20h20h173h20v-20v-800q207 237 419 237zM664 225q267 0 389 53q69 30 102 74t33 103q0 76 -53 124q-50 46 -128 46q-48 0 -101 -24.5
t-111 -74t-120.5 -125.5t-128.5 -176h118zM846.713 1190.69l145.513 145.513l7.48926 7.48926l7.48926 -7.48926l146.583 -146.583l7.48926 -7.48926l-7.48926 -7.49023l-145.513 -145.513l-7.48926 -7.48926l-7.49023 7.48926l-146.582 146.583l-7.49023 7.48926z" />
    <glyph glyph-name="uniFEC6" unicode="&#x638;" horiz-adv-x="1526" arabic-form="final" 
d="M846.713 1190.69l145.513 145.513l7.48926 7.48926l7.48926 -7.48926l146.583 -146.583l7.48926 -7.48926l-7.48926 -7.49023l-145.513 -145.513l-7.48926 -7.48926l-7.49023 7.48926l-146.582 146.583l-7.49023 7.48926zM546 225h118q268 0 391 55q68 30 100 73t33 102
q0 39 -13 69t-39 54q-17 16 -37 26t-43.5 15.5t-50.5 5.5q-202 -3 -459 -400zM658 0h-557h-20v20v184v20h20h211q8 13 24 38q15 25 39 62v1095v20h20h174h20v-20v-799q203 236 417 236q220 1 340 -167q16 -23 28 -48t20 -52q16 -53 16 -114q0 -71 -19 -135q-6 -18 -13.5 -36
t-15.5 -35q-9 -17 -19 -33q21 -6 65 -9q43 -3 107 -3h18q10 0 17 -4q8 -4 12 -12q4 -9 7 -16q2 -7 3 -21t1 -21v-23v-19v-7q0 -24 -0.5 -36.5t-4.5 -30.5q-3 -18 -12 -26q-8 -8 -23 -8h-24q-128 0 -219 19q-91 20 -146 59q-54 -26 -126 -44q-73 -17 -162 -26q-89 -8 -198 -8
z" />
    <glyph glyph-name="uniFEC7" unicode="&#x638;" horiz-adv-x="1330" arabic-form="initial" 
d="M686.713 1190.69l145.513 145.513l7.48926 7.48926l7.48926 -7.48926l146.583 -146.583l7.48926 -7.48926l-7.48926 -7.49023l-145.513 -145.513l-7.48926 -7.48926l-7.49023 7.48926l-146.582 146.583l-7.49023 7.48926zM496 0h-503q-39 0 -58 30q-20 29 -20 78v19
q0 44 20 70.5t58 26.5h156l64 100v1095v20h20h173h20v-20v-799q203 236 418 236q221 1 339 -167q6 -8 10.5 -16t9.5 -16l8 -16q4 -9 8 -17q3 -9 6 -17l6 -18q8 -26 12 -55q4 -28 4 -59q0 -238 -190.5 -356.5t-560.5 -118.5zM384 225h117q268 0 392 54q132 58 132 176
q0 76 -52 123q-26 24 -58 35q-33 12 -73 12q-98 -2 -214 -101.5t-244 -298.5z" />
    <glyph glyph-name="uniFEC8" unicode="&#x638;" horiz-adv-x="1354" arabic-form="medial" 
d="M686.713 1190.69l145.513 145.513l7.48926 7.48926l7.48926 -7.48926l146.583 -146.583l7.48926 -7.48926l-7.48926 -7.49023l-145.513 -145.513l-7.48926 -7.48926l-7.49023 7.48926l-146.582 146.583l-7.49023 7.48926zM384 225h117q265 0 392 55q132 57 132 175
q0 76 -52 123q-26 24 -58 35q-33 12 -73 12q-98 -2 -214 -101.5t-244 -298.5zM496 0h-503q-39 0 -58 30q-20 29 -20 78v19q0 44 20 70.5t58 26.5h157q10 16 19 30t16 26q7 11 13 20q5 8 9 14q6 9 6 10v1095v20h20h173h20v-20v-799q203 236 418 236q226 1 339 -168
q64 -94 64 -213q0 -132 -67 -240q41 -11 162 -11h19q9 0 17 -4q7 -4 11 -12q4 -9 7 -16t3 -21q1 -14 2 -21v-23v-19v-5q0 -24 -1 -37t-4 -31t-12 -27q-9 -8 -23 -8h-24q-248 0 -356 78q-169 -78 -485 -78z" />
    <glyph glyph-name="uniFEC9" unicode="&#x639;" horiz-adv-x="1330" arabic-form="isolated" 
d="M643 505q174 29 298 30q95 0 185 -10l20 -3l-2 -20l-23 -175l-2 -18l-18 1q-29 1 -51.5 1.5t-38.5 0.5h-25q-351 -10 -521 -119.5t-170 -317.5q0 -111 53.5 -184.5t164.5 -111t282 -37.5q102 0 201.5 23.5t198.5 69.5l23 11l5 -25l36 -179l3 -15l-14 -7
q-25 -12 -51.5 -23t-53.5 -20t-55.5 -17t-57.5 -14t-59 -11t-61 -8t-62.5 -4.5t-64.5 -1.5q-576 0 -677 376q-21 78 -21 171q0 391 346 558q-36 45 -60.5 92t-36.5 96.5t-12 100.5q0 18 2 36.5t5.5 36.5t9 36.5t12.5 36.5q14 35 35 67.5t49 62.5q107 113 299 113
q159 0 343 -126l14 -9l-7 -16l-67 -149l-10 -20l-19 11q-73 43 -134 64.5t-110 21.5q-118 0 -171 -89q-27 -44 -27 -90q0 -40 21 -84q10 -20 29.5 -48.5t46.5 -64.5z" />
    <glyph glyph-name="uniFECA" unicode="&#x639;" horiz-adv-x="1187" arabic-form="final" 
d="M585 202q-290 -164 -290 -378q0 -39 7.5 -71.5t23 -60.5t39.5 -50t57 -39t74.5 -28t92 -17t110.5 -6q163 0 336 71l23 10l5 -24l36 -179l3 -16l-15 -6q-85 -39 -185 -58t-214 -18q-130 0 -232 25t-176 75q-97 66 -146 164.5t-50 227.5q0 312 299 514q-271 166 -271 323
q0 118 174 194q113 49 308 49q67 0 123.5 -5t104 -15.5t85.5 -26.5q161 -69 161 -192q0 -76 -76 -159.5t-226 -179.5q149 -102 401 -102h29q9 0 16.5 -3.5t11.5 -12.5t6.5 -16t3.5 -21t1 -21v-23v-19v-7v-14v-14t-0.5 -14.5t-1.5 -13t-2.5 -12.5t-3.5 -11t-5 -9.5t-7 -6.5
t-9 -4.5t-11 -1.5h-28q-305 0 -582 202zM588 468q85 46 146 87t86 63.5t25 32.5q-2 3 -13 7.5t-32.5 8.5t-49.5 7.5t-69 5.5t-88 2q-88 0 -149 -8t-82 -17.5t-21 -17.5q2 -8 27 -29.5t83.5 -60t136.5 -81.5z" />
    <glyph glyph-name="uniFECB" unicode="&#x639;" horiz-adv-x="1068" arabic-form="initial" 
d="M850 589q-60 49 -118 73.5t-116 24.5q-15 0 -29 -0.5t-27.5 -3t-26 -5.5t-24.5 -7q-24 -9 -44 -21.5t-37 -28.5q-32 -32 -49 -72q-4 -9 -7 -19.5t-5 -21.5t-3 -22.5t-1 -23.5q0 -61 35.5 -109t109.5 -84q10 -5 16 -7l432 109l25 7v-26v-184v-14l-14 -5
q-479 -149 -882 -149h-92q-39 0 -58.5 29.5t-19.5 78.5v19q0 22 5 39.5t14.5 30.5t24.5 20t34 7h237q-6 8 -11.5 16t-11.5 16q-29 45 -44 99t-14 117q1 171 93 287q50 63 124 103q97 52 226 51q214 -1 352 -145l10 -10l-6 -12l-67 -150l-11 -24z" />
    <glyph glyph-name="uniFECC" unicode="&#x639;" horiz-adv-x="1151" arabic-form="medial" 
d="M797 273q109 -49 338 -49h23q10 0 17.5 -4t11.5 -12.5t6.5 -15.5t3.5 -21t1 -21.5v-22.5v-19q0 -30 -2 -52v-1q-4 -23 -9 -35l-1 -1q-10 -19 -28 -19h-23q-330 0 -517 138q-175 -138 -601 -138h-24q-39 0 -58.5 29.5t-19.5 78.5v19q0 44 20 70.5t58 26.5h27
q147 0 249.5 12.5t155.5 35.5q-287 170 -287 339q0 117 170 193q113 51 311 52q192 1 314 -50q161 -68 161 -190q0 -32 -12.5 -65t-36.5 -66t-60.5 -68t-83 -70.5t-104.5 -73.5zM860 590q0 8 -21 17t-80.5 17t-144.5 8q-86 0 -145.5 -8.5t-80.5 -17.5t-21 -18q0 -2 1 -5
t2.5 -6.5t4.5 -8t7.5 -10t9.5 -11.5q68 -71 221 -151q71 39 126 78.5t95 80.5q4 4 7.5 8t6 7.5t5 6.5t3.5 5l2 4l1.5 3z" />
    <glyph glyph-name="uniFECD" unicode="&#x63a;" horiz-adv-x="1330" arabic-form="isolated" 
d="M643 505q174 29 298 30q95 0 185 -10l20 -3l-2 -20l-23 -175l-2 -18l-18 1q-29 1 -51.5 1.5t-38.5 0.5h-25q-351 -10 -521 -119.5t-170 -317.5q0 -111 53.5 -184.5t164.5 -111t282 -37.5q102 0 201.5 23.5t198.5 69.5l23 11l5 -25l36 -179l3 -15l-14 -7
q-25 -12 -51.5 -23t-53.5 -20t-55.5 -17t-57.5 -14t-59 -11t-61 -8t-62.5 -4.5t-64.5 -1.5q-576 0 -677 376q-21 78 -21 171q0 391 346 558q-36 45 -60.5 92t-36.5 96.5t-12 100.5q0 18 2 36.5t5.5 36.5t9 36.5t12.5 36.5q14 35 35 67.5t49 62.5q107 113 299 113
q159 0 343 -126l14 -9l-7 -16l-67 -149l-10 -20l-19 11q-73 43 -134 64.5t-110 21.5q-118 0 -171 -89q-27 -44 -27 -90q0 -40 21 -84q10 -20 29.5 -48.5t46.5 -64.5zM551.713 1394.69l145.513 145.513l7.48926 7.48926l7.48926 -7.48926l146.583 -146.583l7.48926 -7.48926
l-7.48926 -7.49023l-145.513 -145.513l-7.48926 -7.48926l-7.49023 7.48926l-146.582 146.583l-7.49023 7.48926z" />
    <glyph glyph-name="uniFECE" unicode="&#x63a;" horiz-adv-x="1187" arabic-form="final" 
d="M585 202q-290 -164 -290 -378q0 -39 7.5 -71.5t23 -60.5t39.5 -50t57 -39t74.5 -28t92 -17t110.5 -6q163 0 336 71l23 10l5 -24l36 -179l3 -16l-15 -6q-85 -39 -185 -58t-214 -18q-130 0 -232 25t-176 75q-97 66 -146 164.5t-50 227.5q0 312 299 514q-271 166 -271 323
q0 118 174 194q113 49 308 49q67 0 123.5 -5t104 -15.5t85.5 -26.5q161 -69 161 -192q0 -76 -76 -159.5t-226 -179.5q149 -102 401 -102h29q9 0 16.5 -3.5t11.5 -12.5t6.5 -16t3.5 -21t1 -21v-23v-19v-7v-14v-14t-0.5 -14.5t-1.5 -13t-2.5 -12.5t-3.5 -11t-5 -9.5t-7 -6.5
t-9 -4.5t-11 -1.5h-28q-305 0 -582 202zM588 468q85 46 146 87t86 63.5t25 32.5q-2 3 -13 7.5t-32.5 8.5t-49.5 7.5t-69 5.5t-88 2q-88 0 -149 -8t-82 -17.5t-21 -17.5q2 -8 27 -29.5t83.5 -60t136.5 -81.5zM424.713 1214.69l145.513 145.513l7.48926 7.48926
l7.48926 -7.48926l146.583 -146.583l7.48926 -7.48926l-7.48926 -7.49023l-145.513 -145.513l-7.48926 -7.48926l-7.49023 7.48926l-146.582 146.583l-7.49023 7.48926z" />
    <glyph glyph-name="uniFECF" unicode="&#x63a;" horiz-adv-x="1063" arabic-form="initial" 
d="M850 589q-60 49 -118 73.5t-116 24.5q-15 0 -29 -0.5t-27.5 -3t-26 -5.5t-24.5 -7q-24 -9 -44 -21.5t-37 -28.5q-32 -32 -49 -72q-4 -9 -7 -19.5t-5 -21.5t-3 -22.5t-1 -23.5q0 -61 35.5 -109t109.5 -84q10 -5 16 -7l432 109l25 7v-26v-184v-14l-14 -5
q-479 -149 -882 -149h-92q-39 0 -58.5 29.5t-19.5 78.5v19q0 22 5 39.5t14.5 30.5t24.5 20t34 7h237q-6 8 -11.5 16t-11.5 16q-29 45 -44 99t-14 117q1 171 93 287q50 63 124 103q97 52 226 51q214 -1 352 -145l10 -10l-6 -12l-67 -150l-11 -24zM415.713 1249.69
l145.513 145.513l7.48926 7.48926l7.48926 -7.48926l146.583 -146.583l7.48926 -7.48926l-7.48926 -7.49023l-145.513 -145.513l-7.48926 -7.48926l-7.49023 7.48926l-146.582 146.583l-7.49023 7.48926z" />
    <glyph glyph-name="uniFED0" unicode="&#x63a;" horiz-adv-x="1151" arabic-form="medial" 
d="M797 273q109 -49 338 -49h23q10 0 17.5 -4t11.5 -12.5t6.5 -15.5t3.5 -21t1 -21.5v-22.5v-19q0 -30 -2 -52v-1q-4 -23 -9 -35l-1 -1q-10 -19 -28 -19h-23q-330 0 -517 138q-175 -138 -601 -138h-24q-39 0 -58.5 29.5t-19.5 78.5v19q0 44 20 70.5t58 26.5h27
q147 0 249.5 12.5t155.5 35.5q-287 170 -287 339q0 117 170 193q113 51 311 52q192 1 314 -50q161 -68 161 -190q0 -32 -12.5 -65t-36.5 -66t-60.5 -68t-83 -70.5t-104.5 -73.5zM860 590q0 8 -21 17t-80.5 17t-144.5 8q-86 0 -145.5 -8.5t-80.5 -17.5t-21 -18q0 -2 1 -5
t2.5 -6.5t4.5 -8t7.5 -10t9.5 -11.5q68 -71 221 -151q71 39 126 78.5t95 80.5q4 4 7.5 8t6 7.5t5 6.5t3.5 5l2 4l1.5 3zM458.713 1192.69l145.513 145.513l7.48926 7.48926l7.48926 -7.48926l146.583 -146.583l7.48926 -7.48926l-7.48926 -7.49023l-145.513 -145.513
l-7.48926 -7.48926l-7.49023 7.48926l-146.582 146.583l-7.49023 7.48926z" />
    <glyph glyph-name="uniFED1" unicode="&#x641;" horiz-adv-x="1851" arabic-form="isolated" 
d="M1219.71 1386.69l145.513 145.513l7.48926 7.48926l7.48926 -7.48926l146.583 -146.583l7.48926 -7.48926l-7.48926 -7.49023l-145.513 -145.513l-7.48926 -7.48926l-7.49023 7.48926l-146.582 146.583l-7.49023 7.48926zM1768 493q-2 -293 -144 -399q-125 -94 -434 -94
h-330q-385 0 -583 126.5t-198 379.5q0 139 56 265l9 18l18 -8l157 -68l18 -8l-7 -18q-32 -82 -32 -156q0 -152 134.5 -229.5t413.5 -77.5h365q180 0 267.5 43.5t92.5 125.5q-85 -22 -180 -22q-167 0 -256 73.5t-92 217.5q0 15 0.5 29.5t2.5 29t5 28.5q10 54 26.5 100
t39.5 85t52 69q45 46 100.5 69t121.5 23q90 0 158 -44q177 -114 211 -433q4 -33 5.5 -64t2.5 -61zM1247 689q0 -53 37 -79t120 -25q73 0 148 20q-14 103 -47 173q-23 51 -52.5 74t-67.5 23q-30 0 -53 -12t-42 -39t-32 -69q-2 -5 -3 -10t-2.5 -10t-2 -9.5t-1.5 -9.5
t-1.5 -9.5t-0.5 -8.5v-9z" />
    <glyph glyph-name="uniFED2" unicode="&#x641;" horiz-adv-x="2025" arabic-form="final" 
d="M1376.71 1259.69l145.513 145.513l7.48926 7.48926l7.48926 -7.48926l146.583 -146.583l7.48926 -7.48926l-7.48926 -7.49023l-145.513 -145.513l-7.48926 -7.48926l-7.49023 7.48926l-146.582 146.583l-7.49023 7.48926zM1438 647q-54 -53 -54 -103q0 -17 6 -36
t19.5 -40.5t33.5 -45.5q23 -27 43.5 -45t33 -25.5t20.5 -7.5q5 0 13.5 4.5t20.5 13.5t28.5 24.5t34.5 35.5q59 68 58 121q1 31 -19.5 63.5t-62.5 67.5q-46 37 -79 37q-32 0 -96 -64zM1535 125q-194 -125 -641 -125h-34q-385 0 -583 126.5t-198 379.5q0 139 56 265l9 18
l18 -8l157 -68l18 -8l-7 -18q-32 -81 -32 -154q0 -309 573 -309q311 0 435 24q-137 131 -137 307q0 185 206 328q76 53 165 53q21 0 41.5 -2.5t39.5 -7.5t36.5 -12t33.5 -17q221 -134 221 -354q0 -84 -35.5 -158.5t-104.5 -138.5q86 -22 229 -22h32q10 0 17.5 -4t11.5 -12.5
t6.5 -15.5t3.5 -21t1 -21.5v-22.5v-19v-7q0 -24 -0.5 -36.5t-4 -30.5t-12 -26t-23.5 -8h-30q-145 0 -262 31t-206 94z" />
    <glyph glyph-name="uniFED3" unicode="&#x641;" horiz-adv-x="904" arabic-form="initial" 
d="M446 372q-169 0 -258 73.5t-91 217.5q0 45 8 87q31 164 119 254q90 92 222 92q90 0 158 -44q175 -113 211 -433q7 -66 7 -125q0 -145 -35.5 -245.5t-107.5 -154.5q-125 -94 -434 -94h-252q-39 0 -58.5 29.5t-19.5 78.5v19q0 44 20 70.5t58 26.5h263q353 0 369 170
q-29 -8 -58 -12.5t-59 -7t-62 -2.5zM302 690q0 -53 37 -79t120 -25q73 0 148 20q-14 103 -47 173q-44 97 -121 97q-89 0 -126 -120q-11 -35 -11 -66zM265.713 1386.69l145.513 145.513l7.48926 7.48926l7.48926 -7.48926l146.583 -146.583l7.48926 -7.48926
l-7.48926 -7.49023l-145.513 -145.513l-7.48926 -7.48926l-7.49023 7.48926l-146.582 146.583l-7.49023 7.48926z" />
    <glyph glyph-name="uniFED4" unicode="&#x641;" horiz-adv-x="1052" arabic-form="medial" 
d="M465 647q-54 -53 -54 -103q0 -54 59 -122q34 -39 59.5 -58.5t37.5 -19.5q5 0 13.5 4.5t20.5 13.5t28.5 24.5t34.5 35.5q59 68 59 121q0 6 -1 12t-2.5 12.5t-4 12.5t-5.5 12.5t-7 13t-9 13t-10.5 13.5t-12.5 14t-15 14l-16 14q-46 37 -79 37q-9 0 -22 -6t-32.5 -21
t-41.5 -37zM563 125q-181 -125 -529 -125h-41q-39 0 -58.5 29.5t-19.5 78.5v19q0 44 20 70.5t58 26.5h41q210 1 301 22q-139 132 -139 309q0 185 206 328q76 53 165 53q87 0 151 -39q221 -134 221 -354q0 -167 -140 -297q86 -22 229 -22h32q10 0 17.5 -4t11.5 -12.5
t6.5 -15.5t3.5 -21t1 -21.5v-22.5v-19v-7q0 -24 -0.5 -36.5t-4 -30.5t-12 -26t-23.5 -8h-30q-291 0 -467 125zM408.713 1257.69l145.513 145.513l7.48926 7.48926l7.48926 -7.48926l146.583 -146.583l7.48926 -7.48926l-7.48926 -7.49023l-145.513 -145.513
l-7.48926 -7.48926l-7.49023 7.48926l-146.582 146.583l-7.49023 7.48926z" />
    <glyph glyph-name="uniFED5" unicode="&#x642;" horiz-adv-x="1511" arabic-form="isolated" 
d="M1416 37q-39 -247 -210.5 -372t-468.5 -125q-213 0 -357 64q-149 66 -224 201q-74 133 -75 328q-1 234 102 455l8 17l18 -7l158 -66l19 -7l-8 -19q-42 -105 -62 -196q-20 -90 -20 -169q2 -195 110 -290t330 -94q224 0 343 86t141 258q-42 -11 -85.5 -16t-90.5 -6
q-168 -1 -257.5 72.5t-91.5 218.5q0 46 8 87q35 168 119 254q44 46 100 69t122 23q90 1 158 -44q179 -114 217 -442q17 -150 -3 -280zM899 398q1 -54 37.5 -80t120.5 -25q73 1 148 21q-7 52 -19 95t-28 78q-44 97 -121 97q-89 0 -126 -121q-11 -34 -12 -65zM1034.68 1099.69
l145.513 145.513l7.48926 7.48926l7.49023 -7.48926l146.582 -146.583l7.49023 -7.48926l-7.49023 -7.49023l-145.513 -145.513l-7.48926 -7.48926l-7.49023 7.48926l-146.582 146.583l-7.49023 7.48926zM709.412 1099.69l145.513 145.513l7.48926 7.48926l7.49023 -7.48926
l146.582 -146.583l7.49023 -7.48926l-7.49023 -7.49023l-145.513 -145.513l-7.48926 -7.48926l-7.49023 7.48926l-146.582 146.583l-7.49023 7.48926z" />
    <glyph glyph-name="uniFED6" unicode="&#x642;" horiz-adv-x="1526" arabic-form="final" 
d="M738 -307q151 0 255 35t161 103t71 170h-126q-189 0 -287.5 80.5t-98.5 237.5q0 126 53 238q50 103 126 155.5t177 52.5q159 0 250.5 -138t116.5 -403h98q10 0 17 -4t11.5 -12.5t7 -15.5t3.5 -21t1 -21.5v-22.5v-19v-6q0 -24 -0.5 -37t-4 -31t-12.5 -26t-23 -8l-100 1
q-34 -261 -209.5 -392.5t-485.5 -132.5q-43 0 -82.5 2.5t-76.5 7.5t-71 13t-66 18t-61 23q-149 66 -224 201q-74 133 -75 328q-1 234 102 455l8 17l17 -7l159 -65l18 -8l-7 -18q-42 -106 -62 -196q-20 -91 -20 -170q2 -194 110 -289t330 -95zM1229 225q-25 310 -172 311
q-81 1 -118 -107q-8 -25 -12.5 -48.5t-4.5 -46.5q0 -55 39 -82t128 -27h140zM1043.68 1052.69l145.513 145.513l7.48926 7.48926l7.49023 -7.48926l146.582 -146.583l7.49023 -7.48926l-7.49023 -7.49023l-145.513 -145.513l-7.48926 -7.48926l-7.49023 7.48926
l-146.582 146.583l-7.49023 7.48926zM718.412 1052.69l145.513 145.513l7.48926 7.48926l7.49023 -7.48926l146.582 -146.583l7.49023 -7.48926l-7.49023 -7.49023l-145.513 -145.513l-7.48926 -7.48926l-7.49023 7.48926l-146.582 146.583l-7.49023 7.48926z" />
    <glyph glyph-name="uniFED7" unicode="&#x642;" horiz-adv-x="907" arabic-form="initial" 
d="M446 372q-169 0 -258 73.5t-91 217.5q0 45 8 87q31 164 119 254q90 92 222 92q90 0 158 -44q175 -113 211 -433q7 -66 7 -125q0 -145 -35.5 -245.5t-107.5 -154.5q-125 -94 -434 -94h-252q-39 0 -58.5 29.5t-19.5 78.5v19q0 44 20 70.5t58 26.5h263q353 0 369 170
q-29 -8 -58 -12.5t-59 -7t-62 -2.5zM302 690q0 -53 37 -79t120 -25q73 0 148 20q-14 103 -47 173q-44 97 -121 97q-89 0 -126 -120q-11 -35 -11 -66zM430.676 1383.69l145.513 145.513l7.48926 7.48926l7.49023 -7.48926l146.582 -146.583l7.49023 -7.48926
l-7.49023 -7.49023l-145.513 -145.513l-7.48926 -7.48926l-7.49023 7.48926l-146.582 146.583l-7.49023 7.48926zM105.412 1383.69l145.513 145.513l7.48926 7.48926l7.49023 -7.48926l146.582 -146.583l7.49023 -7.48926l-7.49023 -7.49023l-145.513 -145.513
l-7.48926 -7.48926l-7.49023 7.48926l-146.582 146.583l-7.49023 7.48926z" />
    <glyph glyph-name="uniFED8" unicode="&#x642;" horiz-adv-x="1052" arabic-form="medial" 
d="M465 647q-54 -53 -54 -103q0 -54 59 -122q34 -39 59.5 -58.5t37.5 -19.5q5 0 13.5 4.5t20.5 13.5t28.5 24.5t34.5 35.5q59 68 59 121q0 6 -1 12t-2.5 12.5t-4 12.5t-5.5 12.5t-7 13t-9 13t-10.5 13.5t-12.5 14t-15 14l-16 14q-46 37 -79 37q-9 0 -22 -6t-32.5 -21
t-41.5 -37zM563 125q-181 -125 -529 -125h-41q-39 0 -58.5 29.5t-19.5 78.5v19q0 44 20 70.5t58 26.5h41q210 1 301 22q-139 132 -139 309q0 185 206 328q76 53 165 53q87 0 151 -39q221 -134 221 -354q0 -167 -140 -297q86 -22 229 -22h32q10 0 17.5 -4t11.5 -12.5
t6.5 -15.5t3.5 -21t1 -21.5v-22.5v-19v-7q0 -24 -0.5 -36.5t-4 -30.5t-12 -26t-23.5 -8h-30q-291 0 -467 125zM562.676 1248.69l145.513 145.513l7.48926 7.48926l7.49023 -7.48926l146.582 -146.583l7.49023 -7.48926l-7.49023 -7.49023l-145.513 -145.513
l-7.48926 -7.48926l-7.49023 7.48926l-146.582 146.583l-7.49023 7.48926zM237.412 1248.69l145.513 145.513l7.48926 7.48926l7.49023 -7.48926l146.582 -146.583l7.49023 -7.48926l-7.49023 -7.49023l-145.513 -145.513l-7.48926 -7.48926l-7.49023 7.48926
l-146.582 146.583l-7.49023 7.48926z" />
    <glyph glyph-name="uniFED9" unicode="&#x643;" horiz-adv-x="1997" arabic-form="isolated" 
d="M940 224q23 0 48 1q24 0 50 2q26 1 53.5 3t56.5 5q239 22 353 111q111 87 111 246v823v20h20h178h20v-20v-821q0 -277 -175 -421q-207 -173 -713 -173q-496 0 -688 140q-174 126 -175 384q0 138 48 247l8 18l19 -8l157 -68l18 -8l-7 -18q-25 -65 -24 -150q1 -52 14 -94
q12 -41 37 -73t62 -56q144 -89 529 -90zM718 772q93 -10 161 -11q51 0 89.5 5.5t62.5 14.5q11 5 19 10.5t13 12t7.5 13.5t2.5 15q0 34 -24 53q-26 23 -81 31q-113 17 -171 76t-56 157q5 225 411 254l22 2v-21v-129v-18l-19 -2q-84 -8 -140 -23.5t-78.5 -33t-22.5 -38.5
q0 -57 122 -75q51 -8 90 -26.5t65.5 -47.5t40.5 -68t13 -87q0 -44 -14.5 -81.5t-43.5 -68t-71 -53.5q-80 -44 -220 -44q-82 0 -183 16l-17 2v17v128v22z" />
    <glyph glyph-name="uniFEDA" unicode="&#x643;" horiz-adv-x="2071" arabic-form="final" 
d="M718 772q93 -10 161 -11q51 0 89 5q39 6 63 15q11 5 19 11q8 5 13 11q5 7 7 14q3 7 3 15q0 34 -24 53q-26 23 -81 31q-113 17 -171 76t-56 157q5 225 411 254l22 2v-21v-129v-18l-19 -2q-84 -8 -140 -23q-56 -16 -79 -34q-22 -17 -22 -38q0 -57 122 -75
q102 -16 156 -74.5t53 -154.5q0 -43 -15 -81q-14 -37 -43 -68t-71 -54q-27 -15 -61 -25t-73 -15q-40 -4 -86 -4q-27 0 -56.5 2t-60.5 5q-49 6 -66 9l-17 2v17v128v22zM952 224q92 0 196 11q239 24 353 109q111 82 111 228v843v20h20h178h20v-20v-842q0 -179 56 -264
q57 -85 170 -85h23q14 0 23 -8t12 -24t4 -28q1 -10 1 -32v-24v-5q0 -25 -1 -38q0 -12 -4 -30q-3 -18 -12 -27q-9 -8 -23 -8h-31q-72 0 -131.5 15t-105.5 45q-41 27 -72 65q-30 38 -50 87q-82 -97 -250 -153q-179 -59 -497 -59q-496 0 -688 140q-174 126 -175 384
q0 138 48 247l8 18l19 -8l157 -68l18 -8l-7 -18q-25 -65 -24 -150q1 -52 14 -94q12 -41 37 -73t62 -56q70 -43 206 -66t335 -24z" />
    <glyph glyph-name="uniFEDB" unicode="&#x643;" horiz-adv-x="950" arabic-form="initial" 
d="M615 693q136 -146 133 -323q-3 -186 -159 -278t-453 -92h-143q-39 0 -58.5 29.5t-19.5 78.5v19q0 44 20 70.5t58 26.5h142q393 0 394 171q0 89 -97 181q-153 142 -272 235q-60 47 -91 98t-31 105q0 143 153 202l693 263l27 10v-29v-181v-13l-13 -5l-640 -239
q81 -69 147.5 -127.5t119 -109t90.5 -92.5z" />
    <glyph glyph-name="uniFEDC" unicode="&#x643;" horiz-adv-x="1027" arabic-form="medial" 
d="M258 1022q242 -204 357 -329q43 -45 76 -103t58 -129q83 -237 269 -237h16q10 0 17.5 -4t11.5 -12.5t6.5 -15.5t3.5 -21t1 -21.5v-22.5v-19v-6q0 -24 -0.5 -37t-4 -31t-12.5 -26t-23 -8h-16q-213 0 -348 164q-131 -164 -534 -164h-143q-39 0 -58.5 29.5t-19.5 78.5v19
q0 44 20 70.5t58 26.5h142q393 0 394 171q0 89 -97 181q-153 142 -272 235q-60 47 -91 98t-31 105q0 143 153 202l693 263l27 10v-29v-181v-13l-13 -5z" />
    <glyph glyph-name="uniFEDD" unicode="&#x644;" horiz-adv-x="1441" arabic-form="isolated" 
d="M1093 120l3 1298v20h20h172h20v-20l-1 -1099q0 -144 -9 -272q-14 -187 -88 -313q-74 -127 -207 -190q-132 -64 -322 -64q-297 0 -448 147q-151 146 -150 434q0 103 21 204q22 107 64 209l7 19l19 -8l158 -65l19 -8l-8 -18q-65 -167 -65 -336q0 -183 94 -272
q95 -89 290 -89q208 0 309 104t102 319z" />
    <glyph glyph-name="uniFEDE" unicode="&#x644;" horiz-adv-x="1526" arabic-form="final" 
d="M1094 120l2 1297v20h20h172h20v-20l-1 -1002q0 -65 22 -107t68 -63q45 -21 118 -21h20q14 0 23 -8t12 -24t4 -28q1 -10 1 -32v-24v-5q0 -25 -1 -37q0 -13 -4 -31q-3 -18 -12 -27q-9 -8 -23 -8h-25q-134 0 -212 55q-22 -285 -177 -430q-156 -145 -440 -145
q-297 0 -448 146q-151 145 -150 431q0 106 21 208q22 107 64 209l7 19l19 -8l158 -65l19 -8l-8 -18q-65 -167 -65 -336q0 -183 94 -272q95 -89 290 -89q208 0 310 104q101 104 102 319z" />
    <glyph glyph-name="uniFEDF" unicode="&#x644;" horiz-adv-x="635" arabic-form="initial" 
d="M-7 0q-39 0 -58 30q-20 29 -20 78v19q0 44 20 70.5t58 26.5h48q85 0 140 25q54 25 81 76q26 52 26 130v963v20h20h174h20v-20v-969q0 -222 -118 -335q-118 -114 -348 -114h-43z" />
    <glyph glyph-name="uniFEE0" unicode="&#x644;" horiz-adv-x="718" arabic-form="medial" 
d="M43 0h-50q-39 0 -58 30q-20 29 -20 78v19q0 44 20 70.5t58 26.5h52q128 0 187 46q60 46 60 141l5 1007v20h20h173h20v-20v-1007q0 -96 47 -142q48 -45 149 -45h17q15 0 24 -8q10 -8 13.5 -24.5t5.5 -29.5q1 -12 1 -35v-19q0 -25 -1 -39t-5 -33q-4 -18 -13 -27
q-10 -9 -25 -9h-15q-208 0 -316 129q-106 -129 -349 -129z" />
    <glyph glyph-name="uniFEE1" unicode="&#x645;" horiz-adv-x="1242" arabic-form="isolated" 
d="M842 198q58 0 84 27.5t26 90.5q0 29 -5 54t-15 49q-39 95 -141 97q-57 1 -103.5 -43t-82.5 -138q159 -137 237 -137zM1163 329q0 -74 -18 -136t-54 -111q-20 -26 -44.5 -46t-54.5 -33t-65 -19.5t-75 -6.5q-108 0 -256 91q-47 29 -101 56q-14 8 -30.5 11t-35.5 3
q-62 -1 -98 -118t-35 -358q0 -195 14 -355l2 -22h-22h-180h-19l-1 19q-12 190 -11 362q3 368 81 522q39 77 94 123t124 60q152 373 411 374q171 1 273 -123q101 -123 101 -293z" />
    <glyph glyph-name="uniFEE2" unicode="&#x645;" horiz-adv-x="1306" arabic-form="final" 
d="M847 199q56 0 81.5 27.5t23.5 90.5q0 27 -5.5 53t-16.5 50q-42 95 -138 96q-118 2 -187 -181q53 -46 99.5 -76.5t81.5 -45t61 -14.5zM1314 224q10 0 17 -4t11 -12.5t7 -15.5t4 -21t1 -21.5v-22.5v-19v-5q0 -24 -1 -37t-4 -31t-12 -26.5t-23 -8.5h-16q-118 0 -193 96
q-88 -120 -237 -119h-4.5h-4.5h-1q-79 0 -192 53q-21 9 -55 28.5t-83 49.5q-53 32 -99 30q-62 -2 -98 -119t-35 -357q0 -195 14 -355l2 -22h-22h-180h-18l-2 19q-11 170 -11 362q0 362 81 522q80 156 218 183q151 373 413 374q84 0 152.5 -32t118.5 -95q65 -79 95 -222
q19 -89 54.5 -130.5t86.5 -41.5h16z" />
    <glyph glyph-name="uniFEE3" unicode="&#x645;" horiz-adv-x="1050" arabic-form="initial" 
d="M631 197q63 0 91.5 28t28.5 89q0 60 -19 104q-42 97 -141 97q-120 0 -189 -183q122 -135 229 -135zM294 134q-125 -134 -281 -134h-21q-39 0 -58 29.5t-19 78.5v19q0 44 19.5 70.5t57.5 26.5h16q72 0 144 87q33 40 73 131q137 302 362 303q87 0 156.5 -31.5t119.5 -94.5
q99 -124 99 -290q0 -162 -71 -247q-90 -104 -246 -104q-193 0 -351 156z" />
    <glyph glyph-name="uniFEE4" unicode="&#x645;" horiz-adv-x="1102" arabic-form="medial" 
d="M632 197q65 -1 94 27.5t28 90.5q0 18 -2.5 35.5t-7.5 34.5t-12 33q-42 96 -143 97q-117 2 -187 -183q18 -19 35.5 -36t34 -31t33.5 -25t33 -19t32 -13.5t31.5 -8t30.5 -2.5zM643 -22q-183 0 -349 156q-124 -134 -281 -134h-21q-39 0 -58 29.5t-19 78.5v19q0 44 19.5 70.5
t57.5 26.5h16q82 0 144 86q36 48 73 133q136 301 362 302q172 0 272 -127q35 -45 59.5 -100.5t38.5 -121.5q36 -172 138 -172h15q10 0 17 -4t11.5 -12.5t7 -15.5t3.5 -21t1 -21.5v-22.5v-19v-6v-24.5t-1 -22.5t-3.5 -22t-7 -16.5t-11.5 -12.5t-17 -4h-16q-113 0 -188 97
q-92 -119 -263 -119z" />
    <glyph glyph-name="uniFEE5" unicode="&#x646;" horiz-adv-x="1475" arabic-form="isolated" 
d="M716 -240q232 1 344 105.5t111 317.5q0 187 -88 368l-10 21l21 7l174 60l18 7l7 -18q99 -247 99 -446q-1 -95 -18 -177.5t-52 -152.5q-155 -309 -615 -308q-308 0 -465.5 144.5t-158.5 428.5q0 217 102 464l8 19l18 -8l159 -65l18 -8l-7 -18q-83 -209 -82 -386
q1 -180 103.5 -267.5t313.5 -87.5zM562.713 694.694l145.513 145.513l7.48926 7.48926l7.48926 -7.48926l146.583 -146.583l7.48926 -7.48926l-7.48926 -7.49023l-145.513 -145.513l-7.48926 -7.48926l-7.49023 7.48926l-146.582 146.583l-7.49023 7.48926z" />
    <glyph glyph-name="uniFEE6" unicode="&#x646;" horiz-adv-x="1549" arabic-form="final" 
d="M561.713 622.694l145.513 145.513l7.48926 7.48926l7.48926 -7.48926l146.583 -146.583l7.48926 -7.48926l-7.48926 -7.49023l-145.513 -145.513l-7.48926 -7.48926l-7.49023 7.48926l-146.582 146.583l-7.49023 7.48926zM1388 37q-8 -123 -66 -243q-155 -314 -615 -314
q-309 0 -467 146.5t-158 434.5q0 209 103 457l7 18l19 -7l158 -66l18 -7l-7 -19q-82 -208 -82 -374q0 -185 102 -275.5t314 -90.5q231 0 343.5 105t113.5 320q0 179 -89 361l-9 20l21 8l172 60l20 7l6 -20l73 -228q18 -53 60 -79.5t114 -26.5h19q14 0 23 -8t12.5 -24
t4 -27.5t0.5 -32.5v-24v-6q0 -24 -0.5 -37t-4 -31t-12.5 -26t-23 -8h-15q-94 0 -155 37z" />
    <glyph glyph-name="uniFEE7" unicode="&#x646;" horiz-adv-x="646" arabic-form="initial" 
d="M69 0h-76q-39 0 -58.5 29.5t-19.5 78.5v19q0 44 20 70.5t58 26.5h76q77 0 129.5 8t77.5 21q75 44 75 192q0 117 -36 260l-5 19l19 5l164 41l18 5l6 -18q49 -159 49 -309q0 -255 -148 -367q-107 -81 -349 -81zM171.713 1073.69l145.513 145.513l7.48926 7.48926
l7.48926 -7.48926l146.583 -146.583l7.48926 -7.48926l-7.48926 -7.49023l-145.513 -145.513l-7.48926 -7.48926l-7.49023 7.48926l-146.582 146.583l-7.49023 7.48926z" />
    <glyph glyph-name="uniFEE8" unicode="&#x646;" horiz-adv-x="717" arabic-form="medial" 
d="M765 108v-6q0 -24 -1 -37t-4 -30.5t-12 -26t-23 -8.5h-10q-191 0 -275 126q-108 -126 -344 -126h-104q-39 0 -58 29.5t-19 78.5v19q0 44 19.5 70.5t57.5 26.5h99q214 0 236 116q6 33 6 79q0 49 -3 93l-5 82l-2 19l19 2l165 20l21 2l1 -21l16 -231q4 -56 24 -91.5
t56 -52.5t92 -17h8q14 0 23 -8t12 -26t4 -30.5t1 -36.5v-5v-10zM216.713 987.694l145.513 145.513l7.48926 7.48926l7.48926 -7.48926l146.583 -146.583l7.48926 -7.48926l-7.48926 -7.49023l-145.513 -145.513l-7.48926 -7.48926l-7.49023 7.48926l-146.582 146.583
l-7.49023 7.48926z" />
    <glyph glyph-name="uniFEE9" unicode="&#x647;" horiz-adv-x="942" arabic-form="isolated" 
d="M462 638q-34 -31 -62 -61t-48 -57.5t-33.5 -53.5t-20 -49.5t-6.5 -45.5q0 -75 44 -111t139 -36q97 0 141.5 36t43.5 112q0 12 -3 25.5t-9 28t-15 30t-21 32.5t-27.5 35t-34 36.5t-40.5 38.5t-48 40zM404 992q467 -340 467 -626q0 -200 -174 -308q-29 -18 -63 -30
t-73.5 -18t-84.5 -6q-126 0 -215 45q-180 90 -180 317q0 207 228 436l-29 25l-14 12l11 15l100 133l11 16z" />
    <glyph glyph-name="uniFEEA" unicode="&#x647;" horiz-adv-x="1063" arabic-form="final" 
d="M91 426q0 304 516 467l-5 28l-4 20l19 4l163 33l20 4l3 -21l83 -591q7 -50 27 -82.5t54.5 -48t84.5 -15.5h20q14 0 23 -8t12 -24t4 -27.5t1 -32.5v-24v-5q0 -24 -1 -37t-4 -31t-12 -26.5t-23 -8.5h-24q-270 0 -335 211q-58 -44 -122 -66.5t-135 -22.5q-234 0 -328 155
q-37 62 -37 149zM638 687q-166 -63 -247.5 -126.5t-81.5 -122.5q0 -26 7.5 -44.5t24.5 -31.5t44 -19.5t64 -6.5q72 0 144 44q85 52 67 170l-21 133z" />
    <glyph glyph-name="uniFEEB" unicode="&#x647;" horiz-adv-x="1395" arabic-form="initial" 
d="M95 0h-102q-39 0 -58.5 29.5t-19.5 78.5v19q0 44 20 70.5t58 26.5h258q-4 3 -7.5 6.5l-6.5 6.5t-6 6.5t-6 6.5q-82 95 -81 211q0 129 90 233q110 128 281 128q157 0 262 -99q91 -85 92 -218q0 -165 -125 -265q117 -16 155 -16q32 0 57 3.5t40 9.5q97 38 98 139
q1 111 -138 237t-422 262l-19 9l11 19l87 153l9 16l17 -8q680 -331 674 -689q-2 -156 -96 -258q-103 -116 -318 -116q-157 -1 -383 70q-243 -71 -421 -71zM607 367q62 59 65 131q0 15 -3 28t-8 23t-13 19q-49 52 -124 52q-91 0 -137 -77q-21 -36 -22 -86q0 -54 55 -103
q41 -37 96 -52q1 1 3 1.5t3.5 1.5t3.5 2t3.5 2t3.5 2t3 2q21 13 38.5 26.5t32.5 27.5z" />
    <glyph glyph-name="uniFEEC" unicode="&#x647;" horiz-adv-x="992" arabic-form="medial" 
d="M554 -287q8 252 114.5 381.5t309.5 129.5h22q10 0 17 -4t11.5 -12.5t7 -15.5t3.5 -21t1 -21.5v-22.5v-19v-5q0 -25 -0.5 -37.5t-4 -30.5t-12.5 -26.5t-23 -8.5h-24q-15 0 -28 -1q-117 -11 -167.5 -115t-31.5 -314l1 -9l-7 -7l-123 -118l-10 -10l-12 6q-337 160 -410 568
h-195q-39 0 -58.5 29.5t-19.5 78.5v19q0 44 20 70.5t58 26.5h180q23 421 167 576q88 95 218 95q44 0 81.5 -10.5t69.5 -31.5t58 -52q38 -46 56.5 -109.5t18.5 -143.5q-3 -206 -147 -375q-131 -155 -303 -173q38 -189 162 -287zM380 224q96 11 173 94q86 92 86 236
q0 59 -19.5 85.5t-60.5 27.5q-74 3 -120.5 -105.5t-58.5 -337.5z" />
    <glyph glyph-name="uniFEED" unicode="&#x648;" horiz-adv-x="900" arabic-form="isolated" 
d="M610 236q-24 299 -173 299q-82 0 -118 -107q-8 -25 -12.5 -49t-4.5 -46q0 -60 41.5 -88.5t135.5 -28.5q63 1 131 20zM478 -2q-188 0 -286.5 81t-98.5 239q0 126 54 238q99 208 302 208q218 0 311 -242q62 -161 61 -362q-2 -288 -180 -451t-526 -199l-17 -2l-4 17l-43 170
l-5 23l23 2q433 44 528 289q-32 -4 -54.5 -6t-38.5 -3.5t-26 -1.5z" />
    <glyph glyph-name="uniFEEE" unicode="&#x648;" horiz-adv-x="893" arabic-form="final" 
d="M609 224q-25 310 -172 311q-80 1 -118 -107q-17 -49 -17 -95q0 -55 39.5 -82t127.5 -27h140zM816 223h85q37 0 40 -72v-33v-10v-6q0 -24 -0.5 -37t-4 -31t-12.5 -26t-23 -8l-96 1q-86 -431 -689 -491l-17 -2l-4 17l-43 171l-5 23l23 2q437 48 527 279h-118
q-189 0 -287.5 80.5t-98.5 237.5q0 126 54 238q99 208 302 208q160 0 251 -138t116 -403z" />
    <glyph glyph-name="uniFEEF" unicode="&#x649;" horiz-adv-x="1524" arabic-form="isolated" 
d="M298 61q0 -115 48.5 -191t149 -114.5t255.5 -39.5q174 0 310 63q69 33 122 86q49 51 49 115q0 19 -12.5 28t-46.5 9l-113 1q-130 0 -199.5 55.5t-69.5 163.5q0 197 125 334q161 175 451 175h21h20v-20v-193v-20h-20h-22q-77 0 -140.5 -17.5t-112.5 -52.5
q-99 -69 -101 -167q0 -21 9 -27q11 -10 41 -10h119q62 1 110 -13t80.5 -41.5t49.5 -69t17 -95.5q0 -303 -300 -440q-173 -79 -392 -79q-327 0 -495 140t-168 417q0 219 141 537l8 18l18 -7l159 -66l19 -7l-9 -19q-121 -275 -121 -453z" />
    <glyph glyph-name="uniFEF0" unicode="&#x649;" horiz-adv-x="1523" arabic-form="final" 
d="M1529 224q10 0 17.5 -4t11.5 -12.5t6.5 -15.5t3.5 -21t1.5 -21.5t0.5 -22.5v-19v-4q0 -9 -0.5 -18.5t-0.5 -18.5t-1 -17.5t-3 -16t-5 -13.5t-7 -10.5t-10 -7t-14 -2.5h-119q29 -40 29 -93q0 -164 -190 -287q-53 -34 -111.5 -60t-121 -43.5t-130 -26t-140.5 -8.5
q-327 0 -495 135t-168 403q0 217 103 442l8 17l18 -7l159 -66l18 -7l-7 -19q-84 -211 -84 -348q0 -168 109.5 -251t337.5 -83q172 0 308 63q55 24 94 54t61 64q20 30 20 56q0 52 -65 62q-20 4 -47 4h-153h-1h-1q-72 8 -97 109q-5 23 -7.5 39t-2.5 28q0 37 24 46l3 1h4h644z
" />
    <glyph glyph-name="uniFEF1" unicode="&#x64a;" horiz-adv-x="1524" arabic-form="isolated" 
d="M298 61q0 -115 48.5 -191t149 -114.5t255.5 -39.5q174 0 310 63q69 33 122 86q49 51 49 115q0 19 -12.5 28t-46.5 9l-113 1q-130 0 -199.5 55.5t-69.5 163.5q0 197 125 334q161 175 451 175h21h20v-20v-193v-20h-20h-22q-77 0 -140.5 -17.5t-112.5 -52.5
q-99 -69 -101 -167q0 -21 9 -27q11 -10 41 -10h119q62 1 110 -13t80.5 -41.5t49.5 -69t17 -95.5q0 -303 -300 -440q-173 -79 -392 -79q-327 0 -495 140t-168 417q0 219 141 537l8 18l18 -7l159 -66l19 -7l-9 -19q-121 -275 -121 -453zM745.676 -787.306l145.513 145.513
l7.48926 7.48926l7.49023 -7.48926l146.582 -146.583l7.49023 -7.48926l-7.49023 -7.49023l-145.513 -145.513l-7.48926 -7.48926l-7.49023 7.48926l-146.582 146.583l-7.49023 7.48926zM420.412 -787.306l145.513 145.513l7.48926 7.48926l7.49023 -7.48926
l146.582 -146.583l7.49023 -7.48926l-7.49023 -7.49023l-145.513 -145.513l-7.48926 -7.48926l-7.49023 7.48926l-146.582 146.583l-7.49023 7.48926z" />
    <glyph glyph-name="uniFEF2" unicode="&#x64a;" horiz-adv-x="1523" arabic-form="final" 
d="M734.676 -801.306l145.513 145.513l7.48926 7.48926l7.49023 -7.48926l146.582 -146.583l7.49023 -7.48926l-7.49023 -7.49023l-145.513 -145.513l-7.48926 -7.48926l-7.49023 7.48926l-146.582 146.583l-7.49023 7.48926zM409.412 -801.306l145.513 145.513
l7.48926 7.48926l7.49023 -7.48926l146.582 -146.583l7.49023 -7.48926l-7.49023 -7.49023l-145.513 -145.513l-7.48926 -7.48926l-7.49023 7.48926l-146.582 146.583l-7.49023 7.48926zM1529 224q10 0 17.5 -4t11.5 -12.5t6.5 -15.5t3.5 -21t1.5 -21.5t0.5 -22.5v-19v-4
q0 -9 -0.5 -18.5t-0.5 -18.5t-1 -17.5t-3 -16t-5 -13.5t-7 -10.5t-10 -7t-14 -2.5h-119q29 -40 29 -93q0 -164 -190 -287q-53 -34 -111.5 -60t-121 -43.5t-130 -26t-140.5 -8.5q-327 0 -495 135t-168 403q0 217 103 442l8 17l18 -7l159 -66l18 -7l-7 -19q-84 -211 -84 -348
q0 -168 109.5 -251t337.5 -83q172 0 308 63q55 24 94 54t61 64q20 30 20 56q0 52 -65 62q-20 4 -47 4h-153h-1h-1q-72 8 -97 109q-5 23 -7.5 39t-2.5 28q0 37 24 46l3 1h4h644z" />
    <glyph glyph-name="uniFEF3" unicode="&#x64a;" horiz-adv-x="682" arabic-form="initial" 
d="M69 0h-76q-39 0 -58.5 29.5t-19.5 78.5v19q0 44 20 70.5t58 26.5h76q77 0 129.5 8t77.5 21q75 44 75 192q0 117 -36 260l-5 19l19 5l164 41l18 5l6 -18q49 -159 49 -309q0 -255 -148 -367q-107 -81 -349 -81zM295.676 -309.306l145.513 145.513l7.48926 7.48926
l7.49023 -7.48926l146.582 -146.583l7.49023 -7.48926l-7.49023 -7.49023l-145.513 -145.513l-7.48926 -7.48926l-7.49023 7.48926l-146.582 146.583l-7.49023 7.48926zM-29.5879 -309.306l145.513 145.513l7.48926 7.48926l7.49023 -7.48926l146.582 -146.583
l7.49023 -7.48926l-7.49023 -7.49023l-145.513 -145.513l-7.48926 -7.48926l-7.49023 7.48926l-146.582 146.583l-7.49023 7.48926z" />
    <glyph glyph-name="uniFEF4" unicode="&#x64a;" horiz-adv-x="717" arabic-form="medial" 
d="M295.676 -309.306l145.513 145.513l7.48926 7.48926l7.49023 -7.48926l146.582 -146.583l7.49023 -7.48926l-7.49023 -7.49023l-145.513 -145.513l-7.48926 -7.48926l-7.49023 7.48926l-146.582 146.583l-7.49023 7.48926zM-29.5879 -309.306l145.513 145.513
l7.48926 7.48926l7.49023 -7.48926l146.582 -146.583l7.49023 -7.48926l-7.49023 -7.49023l-145.513 -145.513l-7.48926 -7.48926l-7.49023 7.48926l-146.582 146.583l-7.49023 7.48926zM765 108v-6q0 -24 -1 -37t-4 -30.5t-12 -26t-23 -8.5h-10q-191 0 -275 126
q-108 -126 -344 -126h-104q-39 0 -58 29.5t-19 78.5v19q0 44 19.5 70.5t57.5 26.5h99q214 0 236 116q6 33 6 79q0 49 -3 93l-5 82l-2 19l19 2l165 20l21 2l1 -21l16 -231q4 -56 24 -91.5t56 -52.5t92 -17h8q14 0 23 -8t12 -26t4 -30.5t1 -36.5v-5v-10z" />
    <glyph glyph-name=".notdef" horiz-adv-x="507" 
 />
    <glyph glyph-name=".null" 
 />
    <glyph glyph-name="nonmarkingreturn" unicode="&#xd;" horiz-adv-x="507" 
 />
    <glyph glyph-name="uni0002" 
 />
    <glyph glyph-name="uni0009" unicode="&#x9;" 
 />
    <glyph glyph-name="space" unicode=" " horiz-adv-x="560" 
 />
    <glyph glyph-name="exclam" unicode="!" horiz-adv-x="641" 
d="M165 160q0 65 45.5 110.5t109.5 45.5t109.5 -45.5t45.5 -110t-45.5 -110t-109.5 -45.5q-18 0 -35.5 4t-33 12t-29.5 19q-15 13 -26.5 28.5t-18.5 32.5q-12 28 -12 59zM213 1437h218h20v-20l-25 -948v-20h-20h-167h-20v20l-26 948v20h20z" />
    <glyph glyph-name="quotedbl" unicode="&#x22;" horiz-adv-x="655" 
d="M297 1398l-30 -358l-2 -18h-18h-111h-20v20l1 348v146v20h20h140h20v-20v-136v-1v-1zM567 1398l-30 -358l-2 -18h-18h-111h-20v20l1 356v138v20h20h140h20v-20v-136v-1v-1z" />
    <glyph glyph-name="numbersign" unicode="#" horiz-adv-x="1275" 
d="M692 390h-224l-76 -394l-4 -16h-16h-143h-24l4 24l76 386h-215h-20v20v137v20h20h249l61 314h-234h-20v20v139v20h20h269l78 400l4 16h16h143h24l-4 -24l-78 -392h224l78 400l4 16h16h144h24l-4 -24l-78 -392h180h20v-20v-139v-20h-20h-215l-61 -314h201h20v-20v-137v-20
h-20h-235l-76 -394l-4 -16h-16h-144h-24l4 24zM502 567h224l61 314h-224z" />
    <glyph glyph-name="dollar" unicode="$" horiz-adv-x="1230" 
d="M879 295q17 39 17 88q0 40 -14 74q-6 16 -18 32t-28.5 31t-39 29t-50.5 27q-56 27 -139 51q-104 29 -188 68q-28 13 -53 27q-24 15 -45.5 31t-39.5 34q-56 53 -85.5 123.5t-29.5 161.5q0 85 26 155q13 35 32 66t44 57q49 52 121 85q67 28 149 40v197v20h22h161h22v-20
v-199q44 -6 83.5 -18.5t72.5 -30.5q32 -18 60 -41t51 -52q98 -121 98 -329v-19h-20h-184h-20v19q0 32 -4 60.5t-12 54.5t-20 48t-28 41q-31 36 -76.5 56.5t-105.5 20.5q-33 0 -60.5 -3.5t-50.5 -11.5t-41.5 -18.5t-32.5 -23.5q-29 -27 -44 -65q-8 -19 -11.5 -40.5
t-3.5 -45.5q0 -44 14 -78q4 -11 10.5 -21.5t15.5 -20.5t19 -20q34 -29 91 -56q11 -5 24 -10.5t27 -10.5t29 -10.5t31.5 -11t34.5 -10.5q35 -10 67.5 -21t63 -23t57.5 -25q78 -39 132 -91q54 -53 83 -122q28 -69 28 -159q0 -89 -28 -160q-29 -72 -82 -123q-54 -52 -129 -83
q-35 -14 -75.5 -23t-83.5 -14v-170v-20h-21h-161h-21v20v169q-77 9 -148 34q-76 29 -134 83q-59 55 -94 139q-34 83 -34 199v19h20h185h20v-19q0 -40 6 -72.5t17 -57.5q25 -51 65 -80q41 -30 90 -42q51 -12 102 -12q69 0 122 15t88 43q18 13 31.5 29.5t22.5 35.5z" />
    <glyph glyph-name="percent" unicode="%" horiz-adv-x="1580" 
d="M105 1090v75q0 64 22 120t63 99t101 68q19 8 40.5 13.5t45.5 8.5t49 3q78 0 140 -25t105 -68q43 -42 65 -99q23 -56 23 -120v-75q0 -31 -5.5 -61t-16.5 -58q-22 -57 -65.5 -99t-105 -67t-138.5 -25q-38 0 -73 6q-34 6 -63 19q-30 12 -55.5 29t-45.5 38q-11 10 -20 21.5
t-17 24t-15 26t-12 27.5q-22 56 -22 119zM283 1164v-73q0 -8 0.5 -15.5t1.5 -14.5t3 -14l4 -14t5 -13.5t6.5 -12.5t7 -11.5t8.5 -10.5q17 -20 44 -33q27 -12 65 -12q8 0 15 0.5t13.5 1.5t13 2.5t12 3.5t10.5 4q14 6 25 14.5t20 18.5q18 20 27 47q4 14 6.5 29t2.5 30v73
q0 30 -10 59q-9 27 -27 48q-17 20 -45 32.5t-65 12.5h-8t-8 -0.5l-8 -1t-7.5 -1t-7 -1.5t-7 -1.5t-7 -2t-6.5 -2.5l-6 -2q-13 -6 -23.5 -14.5t-19.5 -18.5q-8 -10 -14.5 -22.5t-11.5 -25.5q-3 -10 -5 -19.5t-3 -19.5t-1 -20zM836 290v76q0 31 5.5 61t16.5 58q23 58 66.5 100
t105.5 67q21 8 43.5 14t46 8.5t49.5 2.5q77 0 136.5 -25t100.5 -67q21 -21 36.5 -46t26.5 -53q22 -57 22 -120v-76q0 -64 -22 -120q-22 -57 -63 -99q-14 -14 -29.5 -26t-33.5 -22.5t-37 -18.5q-30 -12 -63 -19q-34 -6 -72 -6q-78 0 -140 25t-106 67t-67 99q-22 56 -22 120z
M1022 365v-74q0 -30 10 -59q4 -13 11 -25t16 -23q9 -10 20.5 -18t25.5 -15q28 -12 66 -12q18 0 34 3t30 9q13 6 23.5 14.5t19.5 18.5q17 21 25 48q9 28 9 59v74q0 30 -9 59q-9 27 -26 47t-44 33q-27 12 -64 12q-6 0 -11 -0.5l-10 -1t-9.5 -1t-9 -1.5t-9 -2.5t-8.5 -3
t-7 -2.5q-14 -7 -25.5 -15t-20.5 -18t-16 -22t-11 -25q-10 -29 -10 -59zM479 82l-18 11l-110 66l-17 11l11 17l744 1138l11 17l18 -11l110 -66l18 -11l-12 -17l-744 -1138z" />
    <glyph glyph-name="ampersand" unicode="&#x26;" horiz-adv-x="1273" 
d="M81 391q0 70 22 127q21 56 61 106q39 49 92 93q9 8 18.5 15.5l19 15t19.5 15t20.5 15t20.5 15.5q-30 37 -54 70l-10 14t-9.5 14l-9 14l-9 14t-8 14t-7.5 14q-11 21 -20 42.5t-15 43.5q-6 21 -9 43.5t-3 45.5q0 89 27 158q28 71 79 119q51 47 122 72q18 7 36.5 11.5
t38 7.5t40 4.5t41.5 1.5q84 0 151.5 -26.5t115.5 -70.5q48 -45 73 -105q13 -30 19.5 -61.5t6.5 -64.5q0 -28 -4 -53.5t-12 -49.5q-15 -46 -42 -87q-28 -40 -66 -75q-37 -34 -81 -68l-93 -68l291 -348q21 48 35 102q17 70 17 151v20h20h167h20v-20q0 -32 -2 -62.5t-6 -60
t-9.5 -58t-13.5 -55.5q-28 -102 -87 -186l198 -237l28 -33h-43h-222h-9l-6 7l-84 100q-33 -28 -71 -49q-47 -26 -97 -43q-25 -9 -50.5 -15.5t-52.5 -10.5q-52 -9 -103 -9q-112 0 -203 32q-91 31 -155 89q-65 57 -99 137q-34 79 -34 173zM572 151q34 0 67.5 7t65.5 20
q29 12 56 29t52 38l-330 396l-27 -20q-26 -19 -46.5 -38t-35.5 -36q-15 -18 -26.5 -34.5t-19 -31.5t-12 -28t-6.5 -24q-2 -12 -3 -21.5t-1 -16.5q0 -25 4 -48.5t12 -45.5q16 -43 49 -75q16 -17 36.5 -29.5t45.5 -22.5q51 -19 119 -19zM425 1128q0 -25 7.5 -51t22.5 -54
q27 -51 72 -108l90 63q15 11 28.5 21t24.5 20q23 20 39 42q7 10 13 21.5t9.5 24.5t5.5 28t2 33q0 26 -10 50q-3 8 -7.5 15.5t-10 14.5t-11.5 13q-20 19 -49.5 31t-67.5 12q-40 0 -68 -14q-15 -6 -27 -15.5t-22 -21.5q-20 -24 -30 -56q-11 -32 -11 -69z" />
    <glyph glyph-name="quotesingle" unicode="'" horiz-adv-x="357" 
d="M273 1424l-21 -368l-1 -19h-19h-129h-20v20l1 352v127v20h20h149h20v-20v-111v-1z" />
    <glyph glyph-name="parenleft" unicode="(" horiz-adv-x="700" 
d="M113 591q0 147 23.5 276t62.5 238.5t90 200.5q26 45 52.5 85t54.5 75q55 69 111 118q56 50 106 77l22 11l7 -23l38 -122l4 -13l-11 -9q-28 -21 -57 -51.5t-59 -68.5q-59 -77 -108 -190q-49 -114 -80 -264t-31 -338v-14q0 -188 31 -338q16 -75 36 -141t44 -123
q49 -114 108.5 -193t116.5 -125l10 -9l-4 -13l-38 -113l-8 -23l-21 11q-49 28 -105 77q-57 49 -112 119q-28 35 -54.5 74.5t-52.5 84.5t-48.5 94.5t-42 104.5t-35 114.5t-27.5 123.5q-23 129 -23 277v10z" />
    <glyph glyph-name="parenright" unicode=")" horiz-adv-x="712" 
d="M587 581q0 -74 -6 -143t-17 -134q-24 -128 -63 -238q-19 -55 -41.5 -104.5t-48.5 -94.5q-51 -89 -107 -159q-9 -12 -18.5 -23t-18.5 -21.5t-18.5 -20.5t-19 -19t-18.5 -18t-19 -17q-28 -25 -54.5 -44t-50.5 -33l-21 -11l-8 22l-39 113l-5 14l12 9q57 43 116.5 121.5
t107.5 193.5q49 115 80 266t31 339v14q0 188 -33 340q-11 51 -24 97.5t-28 89t-31 80.5q-50 115 -109 194q-20 26 -39 48t-36.5 40.5t-35.5 31.5l-10 9l4 14l39 113l8 22l21 -11q7 -4 14 -8.5t14.5 -9.5l15 -10t15 -11l15 -12t15.5 -12.5t16 -13.5q56 -49 112 -118
q28 -35 54.5 -75t52.5 -85t48.5 -95.5t41.5 -104.5q6 -16 11 -32t10 -32.5t10 -33.5t9 -34t8 -34.5t7.5 -36t7.5 -36.5q23 -129 23 -276v-10z" />
    <glyph glyph-name="asterisk" unicode="*" horiz-adv-x="882" 
d="M297 972l-275 82l-19 6l6 19l46 151l6 20l20 -7l274 -102l-8 314l-1 21h21h153h21l-1 -21l-9 -319l269 100l20 7l6 -20l46 -152l6 -19l-19 -6l-280 -83l181 -248l12 -16l-16 -12l-124 -94l-17 -13l-12 18l-169 262l-163 -255l-12 -18l-17 13l-125 91l-16 12l12 16z" />
    <glyph glyph-name="plus" unicode="+" horiz-adv-x="1161" 
d="M690 801h386h20v-20v-175v-20h-20h-386v-440v-20h-20h-186h-20v20v440h-386h-20v20v175v20h20h386v405v20h20h186h20v-20v-405z" />
    <glyph glyph-name="comma" unicode="," horiz-adv-x="402" 
d="M328 71q0 -47 -12 -99q-12 -51 -35 -100l-7.5 -15l-7 -14t-7.5 -13.5t-8 -13.5t-8.5 -13.5l-9 -13t-9.5 -13.5q-11 -15 -23.5 -29.5t-26 -27.5t-27.5 -25l-12 -9l-12 9l-105 72l-17 11l12 17q45 63 70 130q24 67 24 144v151v20h20h181h20v-20v-148z" />
    <glyph glyph-name="hyphen" unicode="-" horiz-adv-x="565" 
d="M525 523h-488h-20v20v151v20h20h488h20v-20v-151v-20h-20z" />
    <glyph glyph-name="period" unicode="." horiz-adv-x="641" 
d="M165 160q0 65 45.5 110.5t109.5 45.5t109.5 -45.5t45.5 -110t-45.5 -110t-109.5 -45.5q-18 0 -35.5 4t-33 12t-29.5 19q-15 13 -26.5 28.5t-18.5 32.5q-12 28 -12 59z" />
    <glyph glyph-name="slash" unicode="/" horiz-adv-x="844" 
d="M177 -145h-159h-29l10 27l608 1581l5 13h14h158h29l-10 -27l-607 -1581l-5 -13h-14z" />
    <glyph glyph-name="zero" unicode="0" horiz-adv-x="1230" 
d="M1114 840v-216q0 -177 -33 -299q-33 -123 -95 -200q-63 -77 -155 -111q-48 -17 -102 -25q-53 -9 -113 -9q-59 0 -112 9q-54 8 -102 25q-93 34 -157 111q-21 26 -38.5 57t-32 66.5t-25.5 76.5q-34 122 -34 299v216q0 177 33 297q34 122 96 197q32 38 70.5 65.5t86.5 44.5
q95 32 213 32q30 0 58 -2t55 -6t52.5 -10.5t49.5 -14.5q48 -16 86.5 -43.5t70.5 -65.5q62 -75 95 -197q33 -120 33 -297zM889 597v272q0 17 -0.5 33t-1 31t-1.5 29.5t-2.5 28.5t-3.5 27t-4 25l-4 24q-9 40 -22.5 72t-31.5 56q-34 47 -85 68t-119 21q-34 0 -63.5 -5.5
t-54.5 -15.5q-26 -11 -46.5 -27.5t-38.5 -40.5q-35 -49 -53 -128q-18 -81 -18 -198v-272q0 -116 18 -199q18 -81 54 -132q36 -49 86 -72q52 -23 118 -23q23 0 44 2.5t40 7.5t35 13q50 23 85 72q35 51 52 132q17 83 17 199z" />
    <glyph glyph-name="one" unicode="1" horiz-adv-x="1190" 
d="M769 0h-20h-186h-20v20v1172l-346 -124l-27 -9v27v164v13l13 5l530 194l3 1h4h29h20v-20v-1423v-20z" />
    <glyph glyph-name="two" unicode="2" horiz-adv-x="1230" 
d="M1155 0h-20h-994h-20v20v129v7l5 6l497 514q71 70 117 124q46 53 72 96t36 80t10 75q0 13 -1 24.5t-3 23t-5 23t-8 21.5q-16 43 -47.5 74t-78.5 49q-23 9 -49.5 13.5t-57.5 4.5q-25 0 -48.5 -2.5t-43.5 -7t-38 -11.5q-54 -20 -89.5 -55.5t-53.5 -86.5q-17 -51 -17 -114
v-20h-20h-185h-20v20q0 96 32 181q32 86 95 150t158 101q100 37 230 37q114 0 205 -28q31 -10 58.5 -22t50.5 -27t43 -32q60 -53 91 -127q32 -73 32 -162q0 -65 -23 -131q-23 -65 -61 -129q-19 -32 -41 -63.5t-47 -62.5q-13 -16 -27 -31.5t-28.5 -30.5l-29 -30t-29.5 -30
l-387 -379h720h20v-20v-151v-20z" />
    <glyph glyph-name="three" unicode="3" horiz-adv-x="1230" 
d="M394 838h22h143q75 0 130 17q54 17 90 46q35 29 53 69t18 88q0 57 -16 99t-46 70q-21 19 -48.5 31.5t-64 19t-80.5 6.5q-30 0 -57.5 -4t-51.5 -12q-49 -16 -83 -46q-5 -5 -10.5 -10t-10.5 -11t-9 -12l-8 -12t-7.5 -13t-7.5 -14q-9 -21 -13.5 -45t-4.5 -51v-20h-20h-185
h-20v20q0 22 2 43.5t6.5 42t10.5 40.5t15 39q33 77 95 134q21 19 44.5 35.5t49.5 30.5q27 13 58 24q93 33 207 33q111 0 202 -27q89 -27 150 -80q15 -13 28.5 -28t25.5 -31.5t22 -34.5t18 -38q34 -79 34 -182q0 -21 -3.5 -43.5t-10.5 -45.5q-15 -47 -44 -91t-74 -82
q-5 -4 -10.5 -8t-10.5 -8t-10.5 -7.5l-11 -7t-11.5 -7t-12 -6.5q24 -10 44 -21.5t38 -24.5q51 -39 82 -86.5t43 -100.5q13 -52 13 -102q0 -51 -9 -97.5t-28 -86.5q-9 -21 -20 -39.5t-23.5 -35.5t-27.5 -32.5t-31 -29.5q-65 -55 -156 -84q-95 -29 -206 -29q-26 0 -52 1.5
t-51 5t-49.5 9t-48.5 11.5q-47 14 -86 35q-39 20 -72 47q-66 54 -104.5 133.5t-38.5 181.5v20h20h186h20v-20q0 -13 1 -26t3.5 -25t5.5 -23t8 -22q9 -21 22.5 -39.5t31.5 -33.5q35 -31 87 -47q51 -17 117 -17t118 15q51 14 86.5 44t53.5 74q18 46 18 108q0 15 -1.5 29.5
t-4 27.5t-6 25t-8.5 23q-11 22 -26.5 40t-35.5 32q-20 15 -44.5 25.5t-53.5 17.5q-29 8 -62.5 11.5t-70.5 3.5h-143h-22v20v151v20z" />
    <glyph glyph-name="four" unicode="4" horiz-adv-x="1230" 
d="M982 1436v-927h182h20v-20v-151v-20h-20h-182v-298v-20h-20h-197h-21v20v298h-671h-20v20v107v6l3 4l680 992l6 9h11h209h20v-20zM744 1129l-423 -620h423v620z" />
    <glyph glyph-name="five" unicode="5" horiz-adv-x="1230" 
d="M206 715l2 17l74 706l2 18h18h786h20v-20v-171v-20h-20h-605l-41 -322q17 7 36 14t41 13q35 11 75 16t86 5q113 0 205 -35q43 -18 79 -43.5t66 -58.5q59 -65 90 -157q31 -91 31 -203q0 -106 -30 -196q-29 -90 -89 -157q-60 -66 -153 -104q-98 -37 -229 -37q-99 0 -188 25
q-87 26 -151 79q-32 26 -58.5 59t-46.5 73q-41 79 -50 185l-2 22h22h175h17l3 -17q8 -60 28 -104q23 -43 59 -72q72 -59 192 -59q17 0 32.5 1.5t30.5 4t28.5 6t26.5 9.5q17 6 32 15t28.5 19.5t25.5 23.5q36 39 54 94q18 57 18 128q0 63 -18 117q-10 27 -24 50t-32.5 42.5
t-41.5 34.5t-51 27q-54 22 -126 22q-49 0 -84 -6q-34 -6 -61 -17t-49 -27q-24 -18 -50 -38l-8 -7l-10 3l-148 38z" />
    <glyph glyph-name="six" unicode="6" horiz-adv-x="1229" 
d="M926 1457v-20v-157v-20h-20h-17q-140 0 -236 -36q-97 -36 -159 -95q-21 -20 -38 -41.5t-31.5 -45t-24.5 -49.5q-23 -56 -33 -115q26 21 54.5 37t59.5 27t63 18.5t65.5 11t68.5 3.5q61 0 114.5 -10.5t98.5 -32.5q14 -7 26.5 -15t25 -16.5t23.5 -18t21.5 -19.5t20.5 -21
t19 -22q53 -69 79 -157q12 -44 18.5 -88.5t6.5 -89.5q0 -52 -7.5 -101.5t-22.5 -95.5t-37.5 -86t-52.5 -74q-60 -69 -150 -108q-47 -20 -103 -30q-55 -10 -117 -10q-134 0 -234 50q-95 50 -156 131q-60 80 -90 181q-30 100 -30 201v84q0 20 0.5 40.5t1.5 40.5t2.5 40t3.5 40
t5 40q12 101 44 193t85 171q26 40 59.5 75t76.5 65q87 59 206 92q60 16 128 25q69 8 146 8h17h20zM707 775q-29 6 -63 6q-50 0 -95 -14q-23 -7 -44 -16.5t-40 -22.5q-13 -8 -24.5 -17t-22 -19t-20.5 -21q-27 -32 -41 -68v-62q0 -46 5.5 -86.5t17.5 -74.5q24 -69 65 -115
q40 -46 91 -69q50 -23 105 -23q21 0 41 2.5t38 7.5t35 12q50 21 84 61q9 10 16.5 21t14 23t12.5 25t10 27q17 56 17 124q0 12 -0.5 24t-2 23.5t-3.5 23t-4.5 23t-5.5 22.5q-8 28 -20.5 52.5t-29.5 45.5q-33 41 -83 66q-24 13 -53 19z" />
    <glyph glyph-name="seven" unicode="7" horiz-adv-x="1230" 
d="M1141 1331l-2 -4l-630 -1315l-5 -12h-14h-206h-31l13 28l628 1236h-797h-20v20v152v20h20h1024h20v-20v-101v-4z" />
    <glyph glyph-name="eight" unicode="8" horiz-adv-x="1230" 
d="M1050 1240q34 -77 34 -173q0 -112 -61 -200q-16 -24 -36 -45t-43 -39t-49 -34q38 -19 70 -44q48 -37 82 -83q34 -47 52.5 -102.5t18.5 -117.5q0 -102 -37.5 -181t-103.5 -133q-32 -27 -71 -47t-87 -34q-94 -27 -204 -27t-205 27q-93 28 -158 81q-33 27 -58.5 60.5
t-44.5 72.5q-37 79 -37 181q0 62 18 117.5t51 102.5q17 24 37 45t44 39q31 25 69 45q-26 15 -48.5 33.5t-41.5 39t-36 44.5q-29 44 -44 94t-15 105q0 48 8.5 91t25.5 82q33 76 94 129q60 52 147 80q90 27 194 27q52 0 100.5 -7t92.5 -21q87 -27 148 -79q30 -27 54 -59
t40 -70zM888.5 353.5q4.5 25.5 4.5 53.5q0 55 -19 101q-7 15 -15.5 28.5t-19 25.5t-22.5 23q-19 16 -41 28.5t-48 21.5q-52 18 -115 18q-64 0 -116 -18q-17 -6 -32.5 -13.5t-29 -16.5t-25.5 -20q-36 -32 -55 -77q-18 -46 -18 -101q0 -28 4.5 -53.5t13.5 -46.5
q3 -8 6.5 -14.5t7.5 -13t8.5 -12.5t9.5 -12t10.5 -11.5t11.5 -10.5q35 -30 87 -46q13 -4 27 -7t28.5 -5t30.5 -3t33 -1q66 0 118 16q17 6 32.5 12.5t29 15t25.5 18.5q36 31 55 74q9 21 13.5 46.5zM840 972q18 41 18 91q0 16 -2 31.5t-6 29.5t-10 28q-3 8 -7 15.5t-9 15
t-10 14t-11 13t-12 11.5q-16 15 -35.5 26.5t-41.5 20t-47 12.5t-52 4q-14 0 -27 -1t-25.5 -3t-24 -5t-22.5 -6q-45 -16 -77 -44q-11 -9 -20 -20t-16 -23t-13 -26q-9 -20 -13.5 -43.5t-4.5 -49.5q0 -50 18 -91q17 -40 48.5 -68t75.5 -44q23 -7 48 -11t53 -4q56 0 101 15
q44 16 75.5 44t48.5 68z" />
    <glyph glyph-name="nine" unicode="9" horiz-adv-x="1230" 
d="M325 195h18q158 0 260 36q100 36 158 96q58 59 82 137q16 59 23 122q-50 -45 -113 -75q-92 -44 -202 -44q-123 0 -212 44q-82 44 -136 114q-17 24 -31.5 49.5t-26 53t-20.5 56.5q-25 88 -25 178q0 105 30 198q30 94 89 164q59 71 150 111q48 21 104 31q55 10 117 10
q142 0 243 -52q47 -25 84.5 -59.5t67.5 -76.5q58 -83 84 -189q27 -106 27 -216v-65q0 -31 -1 -62.5t-3 -63.5t-6 -63q-3 -33 -8 -64.5t-12 -62.5t-16 -61q-28 -92 -76 -172q-50 -81 -130 -141q-87 -60 -211 -95q-123 -34 -290 -34h-18h-20v20v156v20h20zM468 685
q49 -25 116 -25q47 0 92 13q15 5 29 10.5t27 12.5t26 15.5t24.5 17.5t22.5 19t21 21q28 31 45 67v68q0 93 -22 165q-12 35 -28 64.5t-36 53.5q-39 47 -89 71q-13 6 -25.5 10.5t-25.5 7.5t-26.5 4.5t-27.5 1.5q-65 0 -114 -23q-25 -12 -46.5 -27.5t-38.5 -36.5q-7 -8 -13 -17
t-12 -18.5t-11 -19.5t-9 -20q-4 -11 -8 -23q-8 -28 -12.5 -59.5t-4.5 -65.5q0 -61 15 -118q16 -56 49 -100q17 -21 37 -38.5t45 -30.5z" />
    <glyph glyph-name="colon" unicode=":" horiz-adv-x="641" 
d="M165 1030q0 65 45.5 110.5t109.5 45.5q16 0 31 -3t29 -9t26.5 -14.5t23.5 -19.5q22 -22 33.5 -50t11.5 -60q0 -64 -45 -109q-23 -23 -50.5 -34.5t-59.5 -11.5q-11 0 -21.5 1.5t-20.5 4.5t-20 7t-19 9.5t-17 12.5q-15 13 -26.5 28.5t-18.5 32.5q-12 28 -12 59zM165 160
q0 65 45.5 110.5t109.5 45.5t109.5 -45.5t45.5 -110t-45.5 -110t-109.5 -45.5q-18 0 -35.5 4t-33 12t-29.5 19q-15 13 -26.5 28.5t-18.5 32.5q-12 28 -12 59z" />
    <glyph glyph-name="semicolon" unicode=";" horiz-adv-x="433" 
d="M132 1043q0 65 45.5 110.5t109.5 45.5t109.5 -45.5t45.5 -110t-45.5 -110t-109.5 -45.5q-18 0 -35.5 4t-33 12t-29.5 19q-15 13 -26.5 28.5t-18.5 32.5q-12 28 -12 59zM340 71q0 -47 -12 -99q-12 -51 -35 -100l-7.5 -15l-7 -14t-7.5 -13.5t-8 -13.5t-8.5 -13.5l-9 -13
t-9.5 -13.5q-11 -15 -23.5 -29.5t-26 -27.5t-27.5 -25l-12 -9l-12 9l-105 72l-17 11l12 17q45 63 70 130q24 67 24 144v151v20h20h181h20v-20v-148z" />
    <glyph glyph-name="less" unicode="&#x3c;" horiz-adv-x="1041" 
d="M317 644l580 -234l13 -6v-13v-196v-31l-28 13l-818 379l-12 5v13v146v13l12 5l818 378l28 13v-31v-196v-13l-12 -5z" />
    <glyph glyph-name="equal" unicode="=" horiz-adv-x="1124" 
d="M986 794h-834h-20v20v161v20h20h834h20v-20v-161v-20h-20zM986 379h-834h-20v20v160v20h20h834h20v-20v-160v-20h-20z" />
    <glyph glyph-name="greater" unicode="&#x3e;" horiz-adv-x="1070" 
d="M740 650l-613 240l-13 5v14v190v31l28 -13l854 -378l12 -5v-13v-146v-13l-12 -5l-854 -379l-28 -13v31v192v14l13 5z" />
    <glyph glyph-name="question" unicode="?" horiz-adv-x="967" 
d="M337 410q1 37 3.5 68.5t6.5 57.5q10 54 31 99q7 14 15.5 28.5t18.5 28.5t21 28q33 40 82 90q34 35 65 67q10 10 19.5 20t18 20.5t15.5 21.5q22 31 35 68q13 35 13 83q0 97 -50 151q-49 53 -145 53q-14 0 -27.5 -1t-26 -3.5t-25.5 -6.5q-9 -2 -18 -5.5t-17 -7.5t-15.5 -9
t-14.5 -10q-28 -22 -45 -56q-17 -33 -17 -80v-20h-20h-185h-20v20q1 90 35 160.5t92 120.5q58 49 136 74q78 26 168 26q33 0 63.5 -3t59 -9t54.5 -16q79 -28 133 -80q27 -26 47.5 -58t34.5 -69q28 -74 28 -165q0 -36 -5.5 -69.5t-16.5 -64.5q-22 -61 -59 -117
q-36 -54 -82 -103q-10 -10 -19 -19.5t-18.5 -19l-18.5 -18.5t-19 -18.5t-19 -18.5q-26 -24 -43 -50t-26 -56q-18 -61 -18 -132v-20h-20h-185h-20v20zM329 93q0 53 33 89q33 37 96 37q20 0 37.5 -4t32.5 -12t27 -21q16 -18 24.5 -40.5t8.5 -48.5q0 -53 -33 -88
q-34 -36 -97 -36t-96 36q-33 35 -33 88z" />
    <glyph glyph-name="at" unicode="@" horiz-adv-x="1839" 
d="M1755 501q-3 -62 -14 -126q-12 -65 -33 -125q-22 -60 -56 -112q-34 -53 -81 -93t-108 -62.5t-137 -22.5q-101 0 -166 48q-51 37 -79 97q-49 -65 -108 -101q-37 -22 -75.5 -33t-78.5 -11q-79 0 -139 34q-14 9 -27.5 19t-25.5 22t-22.5 25.5t-20.5 29.5q-36 60 -50 144
q-13 83 -4 185q2 19 4 37.5t5 37t6.5 36t7.5 34.5t9 33.5l10 33t11 31.5q14 36 30 68.5t34 62t38 54.5q62 78 138 120q38 21 78 31.5t81 10.5q56 0 100 -9q14 -3 27.5 -6.5t26.5 -8t24 -9.5q36 -15 66 -35q29 -20 57 -42l9 -7l-1 -11l-52 -554q-6 -70 4 -112q3 -14 7 -26
t8.5 -21t9.5 -16q6 -7 11.5 -12t11.5 -8.5t13 -6.5q11 -3 22 -5t21 -2q54 0 96 28q43 29 73 80q16 26 28 56.5t21 66.5q18 72 21 154q9 184 -24 329q-12 48 -27.5 91t-36 81t-46.5 71q-38 49 -87 87t-109 64q-122 53 -292 53q-51 0 -98.5 -6.5t-92 -19t-85.5 -32.5
q-122 -57 -210 -162q-88 -106 -139 -254q-26 -74 -40.5 -156t-18.5 -172q-4 -92 3 -174.5t26 -155.5q9 -36 21 -70t26.5 -64.5t32 -58.5t36.5 -53q80 -101 197 -155q118 -54 274 -54q43 0 87 5q15 2 29.5 4.5t29 5.5t28.5 6q42 10 80 24q37 14 67 31l21 13l8 -24l37 -115
l5 -15l-13 -8q-37 -23 -84 -40q-16 -6 -31.5 -11t-32 -9.5t-33.5 -8.5q-25 -6 -51 -10.5t-52 -6.5q-52 -6 -99 -6q-194 0 -346 66q-153 67 -257 191q-103 124 -153 301q-50 176 -41 394q9 208 74 385q65 178 178 309q29 32 60 61.5t65 55t70.5 47.5t75.5 40q158 74 350 74
q98 0 185 -17t163 -50q25 -11 49 -24t46.5 -27.5t43.5 -30.5t40.5 -33.5t37.5 -36.5t35 -40q33 -41 61 -88.5t49.5 -100t37.5 -111.5q48 -175 39 -391zM729 415q-14 -136 24 -207q35 -65 111 -65q22 0 47 10q12 4 24.5 12t25.5 19q25 21 48 57q23 34 42 83q0 5 1 9l45 487
q-18 8 -39 14q-28 7 -60 7q-49 0 -93 -25q-22 -13 -42 -32.5t-37 -45.5q-12 -18 -23 -38.5t-20.5 -44.5t-18.5 -51q-25 -81 -35 -189z" />
    <glyph glyph-name="A" unicode="A" horiz-adv-x="1416" 
d="M1162 13l-140 367h-610l-138 -367l-5 -13h-14h-198h-29l10 26l571 1417l6 13h14h176h14l6 -13l572 -1417l10 -26h-29h-197h-14zM717 1160l-229 -602h459z" />
    <glyph glyph-name="B" unicode="B" horiz-adv-x="1355" 
d="M169 0v20v1416v20h20h495q123 0 220 -23q24 -5 47 -12.5t44 -16.5q19 -9 37 -19.5t35 -22.5q32 -25 57.5 -56t42.5 -69q34 -75 34 -178q0 -13 -1 -26t-3 -25.5t-5 -24.5t-6.5 -23.5t-8.5 -23t-11 -22.5t-12.5 -21.5t-14.5 -20.5q-47 -63 -122 -104q19 -7 35.5 -16
t32.5 -20q25 -17 46 -37t38.5 -43t30.5 -49.5t22 -55t13.5 -58.5t4.5 -61q0 -103 -36 -183q-37 -81 -103 -136q-66 -54 -163 -82q-99 -27 -219 -27h-530h-20zM729 661h-328v-464h318q18 0 34.5 1t32 3t30 5.5t28.5 7.5q53 16 89 46q36 29 56 71q9 22 13.5 46t4.5 51
q0 14 -1 27t-3 25t-4.5 24t-6.5 23q-5 14 -12.5 26.5t-16.5 24t-20 20.5q-34 30 -86 46q-27 9 -59 13t-69 4zM401 1258v-403h289q63 0 115 14q51 15 87 41q35 26 54.5 63.5t19.5 85.5q0 105 -67 151q-69 48 -215 48h-283z" />
    <glyph glyph-name="C" unicode="C" horiz-adv-x="1413" 
d="M1322 502l-2 -22q-12 -106 -52 -197q-40 -93 -111 -160t-178.5 -105t-250.5 -38q-141 0 -256 49q-115 48 -193 138q-77 89 -119 213q-41 124 -41 276v142q0 152 42 276q42 125 121 215q39 44 87 79q51 35 111 59q119 49 266 49q45 0 86.5 -4t79.5 -12.5t73 -20.5
q104 -38 173 -105q18 -17 33.5 -35.5t29 -38.5t25.5 -41.5t22 -45.5q41 -92 52 -203l2 -22h-22h-193h-17l-3 17q-10 74 -34 133q-23 57 -63 97t-99 61q-59 22 -145 22q-16 0 -31.5 -1t-30.5 -3t-29.5 -4.5t-28 -6.5t-26 -8.5t-25.5 -10.5q-73 -34 -122 -96
q-25 -31 -44 -68.5t-32 -81.5q-13 -45 -19 -94.5t-6 -104.5v-142q0 -26 1.5 -50.5t4 -48t6.5 -46.5q5 -23 10 -45q23 -87 70 -153q46 -64 117 -100q70 -37 167 -37q94 0 158 21q31 10 56.5 25t45.5 34q41 38 64 95q23 58 35 133l3 17h17h193h22z" />
    <glyph glyph-name="D" unicode="D" horiz-adv-x="1423" 
d="M169 0v20v1416v20h20h423q79 0 151 -12t137 -36q130 -49 219 -138q87 -90 135 -217t48 -284v-84q0 -78 -12 -149t-36 -135q-48 -127 -136 -217q-90 -89 -225 -136q-134 -48 -299 -48h-405h-20zM612 1258h-211v-1061h193q120 0 209 35q90 34 149 97q30 32 52.5 70t38.5 83
q29 91 29 204v85q0 59 -7.5 111.5t-22.5 97.5q-31 90 -90 152q-58 62 -143 94q-86 32 -197 32z" />
    <glyph glyph-name="E" unicode="E" horiz-adv-x="1244" 
d="M1072 653h-20h-651v-456h753h20v-20v-157v-20h-20h-965h-20v20v1416v20h20h955h20v-20v-158v-20h-20h-743v-408h651h20v-20v-157v-20z" />
    <glyph glyph-name="F" unicode="F" horiz-adv-x="1212" 
d="M1052 623h-20h-631v-603v-20h-20h-192h-20v20v1416v20h20h942h20v-20v-158v-20h-20h-730v-438h631h20v-20v-157v-20z" />
    <glyph glyph-name="G" unicode="G" horiz-adv-x="1475" 
d="M1324 199l-4 -5q-11 -15 -26 -32t-34 -35q-39 -38 -102 -70t-158 -54q-95 -23 -228 -23q-37 0 -71.5 3t-68 9t-65.5 15t-63 21q-122 47 -206 137q-84 89 -130 218q-46 128 -46 290v111q0 161 39 289q20 64 49.5 118.5t67.5 99.5q78 90 197 138q120 47 273 47
q68 0 128 -8.5t111.5 -26t95.5 -41.5q42 -25 76 -56q69 -62 110 -147q40 -85 55 -185l3 -23h-23h-192h-17l-3 16q-10 57 -34 107q-23 49 -64 86q-20 18 -45 32.5t-55 25.5q-60 22 -145 22q-51 0 -95.5 -8.5t-81.5 -25.5q-73 -34 -121 -96q-48 -63 -72 -154q-9 -31 -14 -64.5
t-7.5 -69.5t-2.5 -75v-112q0 -119 30 -212q31 -92 86 -155t131 -96q39 -17 81.5 -25t89.5 -8h19.5t19 0.5t18.5 1t17.5 1t16.5 1.5t16 1.5t15 1.5t14 3q56 9 93 23t59 30q19 13 32 25v284h-335h-21v20v156v20h21h546h20v-19v-520v-7z" />
    <glyph glyph-name="H" unicode="H" horiz-adv-x="1540" 
d="M1368 0h-20h-193h-20v20v633h-734v-633v-20h-20h-192h-20v20v1416v20h20h192h20v-20v-586h734v586v20h20h193h20v-20v-1416v-20z" />
    <glyph glyph-name="I" unicode="I" horiz-adv-x="597" 
d="M415 0h-20h-192h-20v20v1416v20h20h192h20v-20v-1416v-20z" />
    <glyph glyph-name="J" unicode="J" horiz-adv-x="1210" 
d="M819 1456h20h193h20v-20v-1003q0 -109 -35 -193q-36 -86 -101 -143t-157 -87q-95 -30 -207 -30q-113 0 -207 26q-92 27 -156 82q-22 19 -40 40.5t-33.5 46.5t-26.5 53q-36 83 -36 194v20h20h192h20v-20q0 -65 19 -112q7 -15 15 -28.5t18 -25t21 -21.5q35 -29 83 -43
q50 -15 111 -15q29 0 56 4t51 13q49 16 85 48t56 80q10 25 14.5 53.5t4.5 61.5v999v20z" />
    <glyph glyph-name="K" unicode="K" horiz-adv-x="1364" 
d="M1097 8l-531 658l-165 -162v-484v-20h-20h-192h-20v20v1416v20h20h192h20v-20v-668l130 137l517 544l6 7h10h236h45l-30 -32l-585 -614l631 -779l24 -31h-40h-231h-11z" />
    <glyph glyph-name="L" unicode="L" horiz-adv-x="1182" 
d="M402 1436v-1239h710h20v-20v-157v-20h-20h-923h-20v20v1416v20h20h193h20v-20z" />
    <glyph glyph-name="M" unicode="M" horiz-adv-x="1868" 
d="M452 1456l5 -13l476 -1141l476 1141l5 13h14h250h20v-20v-1416v-20h-20h-192h-20v20v567l15 501l-453 -1076l-5 -12h-14h-153h-14l-5 12l-452 1073l16 -498v-567v-20h-20h-192h-20v20v1416v20h20h249h14z" />
    <glyph glyph-name="N" unicode="N" horiz-adv-x="1540" 
d="M1368 0h-20h-193h-11l-6 9l-736 1066v-1055v-20h-20h-193h-20v20v1416v20h20h193h11l6 -9l738 -1071v1060v20h20h191h20v-20v-1416v-20z" />
    <glyph glyph-name="O" unicode="O" horiz-adv-x="1488" 
d="M1369 772v-90q0 -163 -42 -292q-43 -129 -122 -221t-197 -141q-118 -48 -263 -48q-141 0 -259 48q-118 49 -199 141q-81 91 -125 221q-44 129 -44 292v90q0 162 44 292t124 222t198 141t259 49q72 0 138 -13q66 -12 125.5 -36.5t110.5 -59.5q48 -35 88 -81
q79 -92 122 -223q42 -130 42 -291zM1138 683v90q0 123 -26 217q-27 93 -79 156q-50 61 -123 93q-74 32 -167 32q-89 0 -162 -32q-72 -32 -124 -93q-52 -63 -80 -156q-28 -94 -28 -217v-90q0 -62 7 -116.5t21.5 -101.5t35 -86t46.5 -70q52 -62 124 -94q37 -16 77 -24t85 -8
q48 0 89.5 8t77.5 24q73 32 123 94q51 63 77 156q26 94 26 218z" />
    <glyph glyph-name="P" unicode="P" horiz-adv-x="1372" 
d="M747 550h-346v-530v-20h-20h-192h-20v20v1416v20h20h558q45 0 86.5 -4t80.5 -11.5t74 -18.5q102 -33 170 -94t103 -145q6 -14 11 -28.5t8.5 -29t6.5 -30t5 -31t3 -31.5t1 -32q0 -13 -0.5 -26t-1.5 -25.5t-3 -25t-4 -24.5t-4.5 -23.5t-6 -22.5t-7.5 -22l-8 -22
q-18 -42 -43.5 -78t-59.5 -65q-69 -57 -171 -87q-52 -15 -112 -22.5t-128 -7.5zM401 1258v-511h346q17 0 33.5 1t31.5 2.5t29.5 3.5t27.5 5t25 7q60 19 98 52q19 17 32.5 36.5t22.5 41.5q6 16 9.5 32.5t5.5 34t2 36.5q0 51 -17 98q-5 12 -10.5 23t-12.5 21t-15 19.5
t-18 18.5q-37 36 -98 57q-61 22 -146 22h-346z" />
    <glyph glyph-name="Q" unicode="Q" horiz-adv-x="1488" 
d="M1361 771v-90q0 -210 -69 -362q-63 -140 -174 -225l240 -183l19 -15l-17 -16l-131 -121l-13 -11l-13 10l-312 238q-74 -16 -155 -16q-141 0 -259 48q-118 49 -199 141q-81 91 -125 221q-44 129 -44 292v90q0 162 44 292t124 222t198 141t259 49q72 0 138 -13
q65 -12 125 -36q119 -49 199 -141t123 -223q42 -130 42 -292zM1129 683v90q0 123 -27 217q-27 93 -78 156q-17 20 -36 37.5t-41 31.5t-46 24q-73 32 -167 32q-18 0 -35.5 -1.5t-34 -4t-32 -6t-30.5 -8.5t-30 -12q-71 -32 -123 -93q-52 -63 -80 -156q-28 -94 -28 -217v-90
q0 -62 7 -116.5t21 -101.5q29 -93 81 -156q52 -62 124 -94q36 -16 76.5 -24t85.5 -8q23 0 45.5 2t43.5 6t40.5 10t37.5 14q72 32 122 94q51 63 77 156q27 94 27 218z" />
    <glyph glyph-name="R" unicode="R" horiz-adv-x="1341" 
d="M1061 11l-330 558h-330v-549v-20h-20h-193h-20v20v1416v20h20h499q270 0 414 -114q140 -114 140 -332q0 -69 -19.5 -129.5t-57.5 -112.5q-18 -23 -39 -44t-45 -39q-24 -19 -53 -34t-61 -28l336 -582l3 -4v-5v-12v-20h-20h-206h-12zM401 1258v-492h292q80 0 138 19
q59 20 97 52t57 76q10 22 15 45.5t5 49.5q0 57 -19 104q-4 11 -10 21.5t-13 20t-15 18.5t-18 17q-12 11 -27 20t-32.5 17t-37.5 14q-30 9 -66.5 13.5t-79.5 4.5h-286z" />
    <glyph glyph-name="S" unicode="S" horiz-adv-x="1295" 
d="M908 233q77 54 77 149q0 11 -1 22t-2.5 21t-4.5 19l-6 18q-15 33 -53 61q-19 15 -46 29t-62 27q-70 28 -179 56q-23 6 -45.5 12.5t-44 13.5t-42 14t-40.5 14.5t-39 15.5q-96 39 -159 91q-65 52 -100 120t-35 155q0 43 9.5 83.5t28.5 77.5q12 25 28 47.5t35.5 42.5
t41.5 39q69 54 170 84q100 31 223 31q67 0 127.5 -9.5t113.5 -28.5q35 -13 67 -29q30 -15 56 -33.5t49 -39.5q69 -64 104 -148q18 -42 27 -85.5t9 -87.5v-20h-20h-193h-20v20q0 19 -2 37.5t-6 35.5t-11 33q-19 48 -58 83t-99 54q-30 10 -66 15t-78 5q-40 0 -74 -4t-63 -13
q-56 -16 -92 -44q-18 -14 -31.5 -30t-21.5 -35q-18 -38 -18 -83q0 -40 19 -73q6 -11 14.5 -21.5t19.5 -20.5t24 -19q21 -15 48 -28.5t60 -26.5q34 -13 74.5 -25.5t87.5 -24.5q134 -34 232 -76q94 -42 155 -97q62 -55 92 -123.5t30 -155.5q0 -91 -38 -164q-19 -37 -46 -68.5
t-62 -57.5q-70 -52 -171 -80q-103 -28 -229 -28q-73 0 -146.5 13t-140.5 38q-68 26 -122 65q-55 38 -96 90q-41 51 -64 115.5t-23 140.5v20h20h193h20v-20q0 -70 28 -119q29 -49 78 -82t114 -48q66 -16 139 -16q155 0 236 56z" />
    <glyph glyph-name="T" unicode="T" horiz-adv-x="1302" 
d="M1255 1258h-20h-461v-1238v-20h-21h-203h-21v20v1238h-460h-20v20v158v20h20h1166h20v-20v-158v-20z" />
    <glyph glyph-name="U" unicode="U" horiz-adv-x="1408" 
d="M1274 1456v-20v-959q0 -124 -45 -217q-22 -47 -52.5 -86t-68.5 -70q-75 -62 -181 -93t-222 -31q-61 0 -118 8t-109 23q-106 31 -180 93q-37 31 -66 70t-50 86t-31.5 101t-10.5 116v959v20h20h190h20v-20v-956q0 -78 24 -136q24 -56 67.5 -93.5t104.5 -55.5
q31 -9 65.5 -13.5t73.5 -4.5q26 0 50.5 2t47 6t42.5 10q16 5 30.5 10.5t27.5 12.5t25 15t22 18q44 37 68 93q8 19 13 40.5t7.5 45.5t2.5 50v956v20h20h193h20z" />
    <glyph glyph-name="V" unicode="V" horiz-adv-x="1383" 
d="M285 1443l415 -1147l416 1147l5 13h15h210h28l-10 -26l-554 -1417l-6 -13h-14h-178h-15l-5 13l-554 1417l-10 26h29h209h14z" />
    <glyph glyph-name="W" unicode="W" horiz-adv-x="1897" 
d="M535 443v-1l13 -89l18 72l297 1016l4 15h16h167h16l4 -15l290 -1016v-1l18 -74l15 93v1l233 996l3 16h16h193h26l-6 -24l-357 -1417l-4 -15h-16h-180h-16l-4 15l-310 1061v1l-3 16l-4 -16v-1v-1l-321 -1061l-4 -14h-16h-180h-17l-3 15l-356 1417l-6 24h25h192h16l4 -16
l237 -997v0z" />
    <glyph glyph-name="X" unicode="X" horiz-adv-x="1364" 
d="M349 1447l352 -531l349 531l6 9h12h228h36l-19 -30l-466 -692l476 -704l20 -30h-36h-229h-12l-6 9l-359 542l-362 -542l-6 -9h-11h-228h-37l20 30l478 704l-467 692l-20 30h37h226h12z" />
    <glyph glyph-name="Y" unicode="Y" horiz-adv-x="1310" 
d="M288 1445l379 -697l381 697l6 11h13h218h34l-17 -29l-513 -884v-523v-20h-21h-202h-21v20v523l-514 884l-16 29h34h220h13z" />
    <glyph glyph-name="Z" unicode="Z" horiz-adv-x="1306" 
d="M1190 1288l-816 -1091h832h20v-20v-157v-20h-20h-1100h-20v20v139v7l4 5l811 1087h-782h-20v20v158v20h20h1055h20v-20v-137v-6z" />
    <glyph glyph-name="bracketleft" unicode="[" horiz-adv-x="543" 
d="M523 1492h-171v-1632h171h20v-20v-152v-20h-20h-377h-20v20v1976v20h20h377h20v-20v-152v-20h-20z" />
    <glyph glyph-name="backslash" unicode="\" horiz-adv-x="840" 
d="M40 1476h176h14l5 -13l608 -1581l10 -27h-29h-176h-14l-5 13l-608 1581l-10 27h29z" />
    <glyph glyph-name="bracketright" unicode="]" horiz-adv-x="543" 
d="M9 1684h378h20v-20v-1976v-20h-20h-378h-20v20v152v20h20h173v1632h-173h-20v20v152v20h20z" />
    <glyph glyph-name="asciicircum" unicode="^" horiz-adv-x="856" 
d="M426 1157l-171 -435l-5 -13h-14h-172h-30l12 28l299 727l5 12h13h127h13l6 -12l298 -727l11 -28h-30h-171h-14l-5 13z" />
    <glyph glyph-name="underscore" unicode="_" horiz-adv-x="924" 
d="M920 -171h-916h-20v20v151v20h20h916h20v-20v-151v-20h-20z" />
    <glyph glyph-name="grave" unicode="`" horiz-adv-x="633" 
d="M474 1220h-159h-9l-6 7l-258 294l-29 33h44h223h11l6 -9l194 -294l20 -31h-37z" />
    <glyph glyph-name="a" unicode="a" horiz-adv-x="1194" 
d="M856 0l-6 11q-6 12 -10 25.5t-8 30.5q-1 6 -2.5 13t-2.5 13q-17 -14 -35 -26q-37 -26 -81 -46q-44 -19 -96 -30q-26 -5 -53 -8t-55 -3q-24 0 -46.5 1.5t-44 5t-42 8.5t-37.5 11q-72 26 -122 70q-51 45 -78.5 105.5t-27.5 129.5q0 89 36 158q18 34 44 63t60 52
q66 46 165 69q34 8 70 13t74.5 7.5t80.5 2.5h178v60q0 42 -14 74t-42 55q-19 16 -43.5 26.5t-57 16t-70.5 5.5q-14 0 -26.5 -1t-25 -2.5t-24 -4t-21.5 -5.5q-15 -4 -28 -9.5t-24.5 -11.5t-21.5 -13t-18.5 -15t-15.5 -16.5t-12 -17.5q-16 -26 -16 -55v-20h-20h-186h-20v20
q0 63 33 124q32 61 91 109t146 77q90 30 200 30q100 0 184 -23q28 -8 54 -18q24 -10 45 -23t40 -29q56 -46 88 -116q16 -35 24 -75t8 -86v-485q0 -51 9 -108q10 -56 27 -96l2 -4v-4v-15v-20h-20h-194h-12zM446 193q38 -12 90 -12q51 0 96 12q45 13 82 33t64 45q24 23 39 48
v186h-146q-42 0 -79.5 -3t-69.5 -8.5t-58.5 -13.5t-48.5 -19q-81 -41 -81 -125q0 -33 12 -62q3 -7 6.5 -13.5t8 -12.5t10 -11.5t11.5 -10.5q26 -20 64 -33z" />
    <glyph glyph-name="b" unicode="b" horiz-adv-x="1229" 
d="M1136 549v-20q0 -117 -29 -217t-85 -174q-57 -74 -139 -116q-45 -21 -96 -31q-51 -11 -108 -11q-121 0 -210 39q-65 29 -113 77l-6 -77l-1 -19h-19h-170h-20v20v1496v20h20h185h20v-20v-522q47 43 108 70q30 13 62.5 21.5t67.5 12.5t74 4q23 0 45 -1.5t43 -5t41.5 -8.5
t39.5 -12q19 -6 37 -15q83 -40 140 -114q55 -73 84 -174q15 -50 22 -106t7 -117zM911 530v20v18t-0.5 18.5t-1.5 18t-2 17.5t-2 17.5t-2.5 17l-3 17t-3.5 16.5q-15 65 -49 113q-17 24 -38.5 42.5t-48.5 32.5q-54 27 -133 27h-12.5t-13 -0.5t-12.5 -1t-11.5 -1.5t-11.5 -1.5
t-11.5 -2t-10.5 -2.5l-10 -2q-42 -12 -74.5 -32t-56.5 -47q-11 -13 -21 -27q-9 -15 -17 -30v-434q16 -30 40 -57t57 -47t74 -31.5t93 -11.5q76 0 128 27q53 27 88 73q34 48 50 112q16 66 16 141z" />
    <glyph glyph-name="c" unicode="c" horiz-adv-x="1152" 
d="M535 178.5q36 -7.5 81 -7.5q17 0 33 1.5t31.5 5t30.5 8.5q23 7 43 17.5t37 23.5q34 25 55 60q19 35 23 76l2 18h18h175h21l-1 -21q-4 -77 -42 -146q-37 -69 -98 -121q-61 -51 -143 -82q-87 -31 -185 -31q-137 0 -240 44q-98 44 -161 119q-62 74 -93 172
q-10 33 -16.5 66.5t-10 68.5t-3.5 71v40q0 36 3.5 71t10 68.5t17 66t24 63t31 58t37.5 51.5q63 75 160 119q103 44 240 44q54 0 102.5 -8t92.5 -23q30 -11 54.5 -24t46.5 -28.5t42 -34.5q30 -27 53 -60t40 -71q34 -75 38 -162l1 -21h-21h-175h-18l-2 18q-4 47 -22 87
q-19 40 -51.5 70t-78 47.5t-102.5 17.5q-29 0 -55 -3.5t-48 -10t-41 -16.5t-35.5 -22t-30.5 -26t-25 -30q-36 -50 -49 -113q-14 -64 -14 -128v-40q0 -33 3.5 -65.5t10.5 -64.5q13 -63 48 -112q17 -24 40 -43.5t52 -34.5q28 -15 64 -22.5z" />
    <glyph glyph-name="d" unicode="d" horiz-adv-x="1235" 
d="M95 529v21q0 122 31 223q32 101 90 174q29 37 64.5 65.5t78.5 48.5q45 20 95 30q50 11 105 11q113 0 197 -35q12 -5 24 -11t23 -12t21.5 -13t20.5 -15q9 -7 18 -15v515v20h20h185h20v-20v-1496v-20h-20h-170h-19l-1 18l-5 71q-48 -45 -112 -72q-87 -37 -204 -37
q-108 0 -198 42q-84 41 -143 116q-29 37 -51.5 80.5t-38.5 93.5q-31 100 -31 217zM320 550v-20q0 -75 16 -141q4 -16 9.5 -31t12 -29t14.5 -27t16 -25q36 -46 90 -73t129 -27q50 0 89.5 10t70.5 29q16 9 30 20t27 23q23 25 39 53v462q-6 10 -12 18.5t-12 16.5l-15 15
q-24 25 -55.5 43t-70.5 28q-13 3 -27 5.5t-29.5 3.5t-32.5 1q-25 0 -48.5 -3t-44 -9t-38.5 -15q-54 -28 -89 -75q-36 -49 -53 -113q-16 -66 -16 -140z" />
    <glyph glyph-name="e" unicode="e" horiz-adv-x="1165" 
d="M718 -15.5q-41 -4.5 -86 -4.5q-127 0 -230 39q-101 39 -169 109q-22 24 -41.5 50t-35 55.5t-27.5 61.5q-36 95 -36 209v40q0 131 41 235q41 103 109 175q23 23 48.5 43t52.5 37q30 16 62 29q97 39 201 39q65 0 122 -11q57 -10 105 -30q30 -14 56 -31.5t48.5 -38
t41.5 -44.5q57 -72 84 -170q14 -48 20.5 -100.5t6.5 -108.5v-81v-19h-20h-752q4 -57 23 -106q7 -20 17 -37.5t22 -33t26 -29.5q21 -21 46.5 -37.5t55.5 -29.5q59 -24 134 -24q34 0 64 4t56.5 12.5t48.5 20.5q68 38 116 101l12 16l16 -12l113 -88l15 -12l-10 -15
q-9 -14 -19.5 -27.5t-22 -27t-24.5 -26.5q-39 -39 -90 -70q-26 -15 -56 -27q-31 -13 -67 -22t-77 -13.5zM673 904.5q-30 5.5 -66 5.5q-19 0 -36.5 -2t-34 -6t-32.5 -9l-18 -8t-18 -9t-17 -10t-16 -11.5t-15 -12.5q-19 -17 -34.5 -38t-28.5 -47q-10 -21 -18 -46
q-7 -24 -12 -51h539q-4 45 -17 89q-4 15 -11 29t-15.5 27.5t-18.5 25.5q-30 35 -78 57q-23 11 -53 16.5z" />
    <glyph glyph-name="f" unicode="f" horiz-adv-x="791" 
d="M231 0v20v879h-151h-20v20v143v20h20h151v94q0 91 26 161q26 72 80 121q59 49 143 74q81 25 167 25q22 0 44 -2t44 -6t44 -10l16 -4l-1 -16l-10 -150l-2 -23l-22 4q-20 4 -45.5 6.5t-50.5 2.5q-81 0 -126 -46q-52 -47 -52 -137v-94h221h20v-20v-143v-20h-20h-221v-879
v-20h-24h-211h-20z" />
    <glyph glyph-name="g" unicode="g" horiz-adv-x="1229" 
d="M96 529v21q0 24 1 47.5t3.5 46.5t6 44.5t8.5 43t11 41.5q31 101 89 174q58 74 142 114q91 41 203 41q117 0 204 -38q64 -28 112 -74l5 73l1 19h19h169h20v-20v-1025q0 -108 -35 -192q-35 -88 -99 -148q-22 -20 -46 -37t-50 -31q-28 -13 -59.5 -23.5t-65.5 -17.5
t-70 -10.5t-74 -3.5q-48 0 -109 10q-15 2 -30.5 5.5t-31 7.5t-31 8.5t-30.5 10.5q-60 22 -113 60q-26 19 -49.5 42.5t-42.5 51.5l-8 12l10 12l96 111l16 18l15 -18q6 -9 12.5 -16.5t13.5 -14t13.5 -13t13.5 -12.5t14 -11q9 -7 18.5 -13t19 -11.5t18.5 -10t19 -8.5
q18 -8 37 -13.5t38 -9.5q19 -3 38.5 -5t38.5 -2q33 0 63.5 4.5t57.5 12.5q53 17 90 51q19 17 33 38t24 46q19 50 19 117v45q-23 -20 -50 -36t-57 -28q-43 -18 -92.5 -26.5t-106.5 -8.5q-110 0 -201 42q-83 41 -141 116q-58 74 -89 174t-31 217zM322 550v-20q0 -75 16 -141
q4 -16 9.5 -31t12 -29t14 -27t16.5 -25q35 -46 89 -73t129 -27q10 0 20 0.5t19 1.5l18 2t17 2.5t16 4.5q40 10 71 28q16 10 30 20.5t26 23.5q23 24 39 53v459q-6 10 -12 18.5t-12.5 16.5t-14.5 16q-12 13 -26 23.5t-30 19.5q-31 19 -70 29q-13 3 -27 5.5t-29.5 3.5t-32.5 1
q-76 0 -130 -27q-27 -14 -49.5 -32.5t-39.5 -42.5q-36 -49 -53 -113q-16 -66 -16 -140z" />
    <glyph glyph-name="h" unicode="h" horiz-adv-x="1208" 
d="M365 1516v-534q52 48 119 78q94 42 209 42q30 0 58 -2.5t55 -7.5q26 -5 48 -13q35 -11 64 -28.5t53.5 -42.5t43 -56t30.5 -69q26 -75 26 -180v-683v-20h-20h-185h-20v20v680q0 58 -13 97q-6 20 -16.5 35t-23.5 27q-26 23 -66 34q-41 12 -96 12q-13 0 -25.5 -1t-25 -2.5
t-24 -4t-23 -6t-22 -8t-21 -9.5t-20.5 -11q-34 -21 -61 -49q-26 -27 -44 -61v-733v-20h-20h-185h-20v20v1496v20h20h185h20v-20z" />
    <glyph glyph-name="i" unicode="i" horiz-adv-x="537" 
d="M381 0h-20h-185h-20v20v1042v20h20h185h20v-20v-1042v-20zM174 1260q-33 36 -33 89q0 26 8 48.5t25 40.5q33 38 96 38t97 -38q33 -36 33 -89t-33 -89q-34 -36 -97 -36t-96 36z" />
    <glyph glyph-name="j" unicode="j" horiz-adv-x="529" 
d="M371 1082v-20v-1171q0 -158 -75 -242q-76 -86 -228 -86q-28 0 -61 5q-34 6 -59 14l-13 5v14v148v26l25 -7q18 -4 40 -6q23 -1 39 -1q19 0 34 3.5t26.5 9.5t19.5 14q8 9 14 22.5t9.5 34t3.5 46.5v1171v20h20h185h20zM159 1261q-32 35 -32 88q0 52 32 89q34 38 96 38
q63 0 97 -38q33 -36 33 -89t-33 -89q-34 -36 -97 -36t-96 37z" />
    <glyph glyph-name="k" unicode="k" horiz-adv-x="1118" 
d="M861 8l-395 482l-100 -98v-372v-20h-20h-185h-20v20v1496v20h20h185h20v-20v-874l67 77l1 1l366 356l7 6h9h231h46l-31 -32l-431 -425l481 -594l24 -31h-40h-218h-11z" />
    <glyph glyph-name="l" unicode="l" horiz-adv-x="537" 
d="M381 0h-20h-185h-20v20v1496v20h20h185h20v-20v-1496v-20z" />
    <glyph glyph-name="m" unicode="m" horiz-adv-x="1875" 
d="M353 1082l1 -19l3 -73q49 45 112 73q44 20 94 29.5t107 9.5t107.5 -11t94.5 -33q26 -12 48 -29t40.5 -38t33.5 -46q54 65 133 106q47 26 102.5 38.5t119.5 12.5q31 0 59.5 -2.5t55.5 -8t50 -13.5q72 -23 122 -72.5t75 -124.5t25 -176v-685v-20h-20h-185h-20v20v681
q0 31 -4 56.5t-11 45.5q-15 38 -42.5 61t-66.5 32q-43 9 -94 9q-28 0 -52 -4t-45 -12q-14 -5 -27 -11.5t-24 -14t-21 -16.5l-9.5 -9.5t-9 -9.5t-8 -10t-7.5 -10.5t-7 -11.5l-6 -12q-18 -36 -23 -78v-686v-20h-21h-193h-20v20v680q0 15 -1 28t-3 25t-5 23t-7 20
q-15 39 -43 62q-6 5 -11.5 9.5t-12 8t-13.5 7t-14.5 6t-15.5 4.5q-41 12 -93 12q-96 0 -153 -38q-28 -18 -49 -42t-35 -53v-752v-20h-20h-185h-20v20v1042v20h20h175h19z" />
    <glyph glyph-name="n" unicode="n" horiz-adv-x="1210" 
d="M354 1082l1 -19l4 -87q52 50 122 82q94 44 212 44q30 0 58 -2.5t55 -7.5q26 -5 48 -13q35 -11 64 -28.5t53.5 -42.5t43 -56t30.5 -69q26 -75 26 -180v-683v-20h-20h-185h-20v20v680q0 58 -13 97q-6 20 -16.5 35t-23.5 27q-26 23 -66 34q-41 12 -96 12q-13 0 -25.5 -1
t-25 -2.5t-24 -4t-23 -6t-22 -8t-21 -9.5t-20.5 -11q-34 -21 -61 -49q-26 -27 -44 -61v-733v-20h-20h-185h-20v20v1042v20h20h175h19z" />
    <glyph glyph-name="o" unicode="o" horiz-adv-x="1248" 
d="M91 529v21q0 117 36 217q17 51 42.5 94.5t58.5 80.5q67 75 166 117q34 14 71 24q36 9 75.5 14t81.5 5q128 0 231 -42q99 -43 166 -117q67 -75 102 -175t35 -217v-22q0 -58 -9 -112.5t-26 -104.5q-7 -20 -15.5 -39t-18 -37t-20 -35t-23 -32.5t-25.5 -30.5
q-67 -74 -166 -116q-102 -42 -229 -42t-229 42q-99 42 -166 116q-67 73 -102 174q-36 100 -36 217zM317 550v-20q0 -75 18 -141q7 -21 15.5 -41t19.5 -38t24 -34.5t28 -30t32 -25.5t36 -21t40 -15.5t44.5 -9.5t49.5 -3q76 0 134 28t96 76q38 49 58 114q19 66 19 141v20
q0 74 -19 140q-6 22 -15 42t-20 38t-24 35q-38 48 -96 77q-29 14 -62.5 21t-72.5 7q-38 0 -71 -7t-61 -21q-9 -4 -16.5 -8.5t-15 -9.5t-14.5 -10.5t-13.5 -11t-13 -11.5t-12.5 -12.5t-11 -13.5q-13 -17 -24 -35t-19.5 -38t-15.5 -42q-6 -22 -10 -45t-6 -46.5t-2 -48.5z" />
    <glyph glyph-name="p" unicode="p" horiz-adv-x="1229" 
d="M1134 549v-20q0 -117 -29 -217t-84 -174q-57 -74 -139 -116q-45 -21 -96 -31q-51 -11 -108 -11t-107.5 8.5t-94.5 25.5q-63 24 -111 63v-473v-20h-20h-185h-20v20v1458v20h20h169h19l1 -19l5 -73q5 5 10 9.5t10.5 8.5t10.5 8q5 5 11 8.5t11.5 7.5t11.5 7.5t12 6.5t12.5 6
l13 6t12.5 6q45 19 96.5 28.5t109.5 9.5q14 0 28 -0.5t28 -2t27 -3.5t26 -4.5t25.5 -6t24.5 -7.5t24 -8.5t23 -9.5q28 -13 53 -30.5t46.5 -38.5t40.5 -45q56 -73 85 -174q14 -51 21 -106.5t7 -116.5zM909 529v20q0 25 -2 49t-5.5 47t-8.5 45q-9 32 -22.5 60t-32.5 52
q-18 24 -40.5 43t-50.5 33q-27 13 -60 20t-72 7q-8 0 -15.5 -0.5l-15 -1l-15 -1t-14.5 -1.5t-13.5 -2.5t-13.5 -3.5q-9 -2 -18.5 -5t-18 -6.5l-17 -7t-15.5 -8.5q-16 -9 -29.5 -19t-26.5 -22q-22 -23 -38 -49v-481q8 -13 17 -25q10 -12 21 -24q24 -24 55 -41t71 -26
q19 -5 41.5 -7.5t46.5 -2.5q39 0 71 7t59 21q28 14 50.5 33t40.5 42q10 12 18 25.5t14.5 27.5t12 29.5t10.5 31.5q8 33 12 68.5t4 72.5z" />
    <glyph glyph-name="q" unicode="q" horiz-adv-x="1244" 
d="M95 529v21q0 122 30 222q30 102 88 175t143 114q46 20 98 30q52 11 110 11q112 0 198 -35q12 -5 24.5 -11t24 -12.5t22.5 -13.5t20.5 -15t18.5 -16l5 64l1 19h19h170h20v-20v-1458v-20h-20h-185h-20v20v469q-47 -37 -107 -60q-85 -33 -193 -33q-115 0 -206 42
q-85 41 -143 116q-57 74 -88 174q-30 100 -30 217zM320 550v-20q0 -75 16 -142q6 -22 14 -42t18 -37.5t23 -34.5q36 -47 91 -75q54 -28 130 -28q93 0 154 36q60 35 96 89v492q-17 25 -40 46q-12 12 -26 22t-29 18q-32 17 -70 26q-37 10 -83 10q-39 0 -71.5 -7t-59.5 -21
q-56 -29 -92 -77q-19 -24 -32.5 -52.5t-22.5 -61.5q-16 -67 -16 -141z" />
    <glyph glyph-name="r" unicode="r" horiz-adv-x="733" 
d="M703 872l-23 4q-6 1 -11.5 2t-11 1.5t-10.5 1t-10 1.5q-20 1 -45 1q-90 0 -145 -37q-54 -35 -82 -96v-730v-20h-20h-185h-20v20v1042v20h20h180h20v-20l2 -66q33 38 75 64q68 42 164 42q22 0 49 -5q8 -1 13.5 -2t10.5 -2.5t9.5 -3t8.5 -3.5l11 -6v-12v-172v-24z" />
    <glyph glyph-name="s" unicode="s" horiz-adv-x="1136" 
d="M807 275.5q3 12.5 3 25.5q0 26 -8 48q-7 21 -31 40q-27 20 -77 38q-26 9 -60.5 18t-77.5 17q-100 18 -181 43q-11 4 -22.5 8t-21 8t-19 8.5t-18.5 9t-17.5 9t-16.5 9.5t-15 11q-54 37 -84 89q-29 52 -29 121q0 66 31 125q30 59 85 103t136 69q22 7 44.5 12t46 8.5t48 5
t50.5 1.5q110 0 197 -28q29 -9 53 -20.5t45.5 -25.5t40.5 -30q56 -49 86 -114.5t30 -139.5v-20h-20h-186h-20v20q0 29 -14 58q-14 30 -43 54t-71 39t-98 15q-31 0 -56 -3t-46 -9q-40 -12 -65 -31q-8 -6 -15 -13t-12 -14t-9 -15q-11 -23 -11 -48q0 -13 2 -24t7 -20
q8 -18 34 -34q28 -17 78 -32q13 -4 28 -7.5t32 -7.5t36 -8t40 -8q110 -23 190 -51q76 -29 127 -68t77 -91q12 -26 18.5 -56t6.5 -63q0 -24 -3.5 -47t-10.5 -44.5t-18 -41.5q-31 -61 -90 -104q-19 -14 -41 -26t-46 -22t-53 -18q-87 -24 -194 -24q-122 0 -216 31
q-88 32 -147 84t-90 119.5t-31 138.5v20h20h185h19l1 -19q1 -26 7.5 -47.5t17.5 -38.5q12 -17 27 -31t34 -25q37 -22 82 -31q45 -10 91 -10q30 0 56 2.5t48 8.5q11 2 21 5.5t19.5 7t17.5 7.5t15 9q28 17 41 40q7 12 10 24.5z" />
    <glyph glyph-name="t" unicode="t" horiz-adv-x="709" 
d="M431 1344v-20v-242h182h20v-20v-143v-20h-20h-182v-623q0 -36 9 -57q8 -20 20 -30q5 -4 9.5 -6.5t9.5 -4.5t11 -3q9 -2 19.5 -3t20.5 -1q7 0 14.5 0.5t15 1.5t15.5 2q25 4 39 7l24 5v-24v-143v-15l-15 -4q-11 -3 -25.5 -6.5t-32.5 -7.5q-37 -7 -89 -7q-27 0 -52.5 4
t-50.5 11q-50 16 -87 52q-37 35 -59 92q-21 57 -21 138v622h-177h-20v20v143v20h20h177v242v20h20h185h20z" />
    <glyph glyph-name="u" unicode="u" horiz-adv-x="1209" 
d="M852 19l-2 61q-46 -40 -111 -65q-45 -18 -99 -26.5t-116 -8.5q-92 0 -165 24q-69 23 -119 73q-26 25 -45 57t-32 71q-27 76 -27 183v674v20h20h185h20v-20v-671q0 -66 16 -109q16 -41 44 -64q26 -23 61 -32q36 -9 75 -9q30 0 56.5 2.5t50 7.5t44 12t37.5 16q11 6 21.5 13
t20 14.5t17.5 16t16 16.5q7 9 12.5 18.5t10.5 19.5v749v20h20h185h20v-20v-1042v-20h-20h-176h-19z" />
    <glyph glyph-name="v" unicode="v" horiz-adv-x="1072" 
d="M270 1068l276 -773l268 773l5 14h15h189h28l-10 -26l-400 -1043l-5 -13h-16h-152h-15l-5 13l-405 1043l-10 26h29h189h14z" />
    <glyph glyph-name="w" unicode="w" horiz-adv-x="1619" 
d="M910 1068l246 -759l197 758l4 15h16h185h26l-7 -25l-318 -1043l-5 -14h-15h-156h-15l-5 14l-253 760l-247 -760l-4 -14h-16h-156h-15l-5 14l-317 1043l-7 25h27h184h15l4 -15l202 -742l241 743l4 14h16h155h15z" />
    <glyph glyph-name="x" unicode="x" horiz-adv-x="1095" 
d="M323 1072l237 -366l241 366l6 10h12h217h38l-21 -30l-357 -505l368 -517l21 -30h-38h-214h-12l-6 9l-252 378l-251 -378l-6 -9h-12h-216h-37l21 30l368 517l-357 505l-21 30h37h216h12z" />
    <glyph glyph-name="y" unicode="y" horiz-adv-x="1049" 
d="M272 1068l271 -752l252 752l5 14h14h198h29l-10 -26l-451 -1210q-17 -41 -43 -89q-28 -50 -72 -92q-44 -43 -105 -72q-64 -30 -144 -30q-12 0 -28 2q-15 2 -30.5 4.5t-28.5 5.5q-14 3 -22 5l-15 4v15v150v26l25 -7q3 0 8 -1q7 0 14 -1h7.5t7.5 -1h8q45 0 79 8
q32 8 59 26.5t47 48.5q21 32 39 81l41 100l-395 1027l-10 26h28h202h15z" />
    <glyph glyph-name="z" unicode="z" horiz-adv-x="1095" 
d="M993 925l-615 -734h629h20v-20v-151v-20h-20h-899h-20v20v130v6l4 6l605 727h-580h-20v20v153v20h20h860h20v-20v-125v-7z" />
    <glyph glyph-name="braceleft" unicode="{" horiz-adv-x="693" 
d="M627 -385q-106 30 -177 79t-115 112q-21 31 -36.5 66t-24.5 72q-18 75 -18 155v206q0 26 -3 49t-8 44q-11 40 -34 67q-6 7 -12 13t-13.5 11.5t-15.5 10t-17 8.5q-37 15 -89 15h-20v20v145v20h20q102 0 146 56q46 59 46 161v207q0 81 18 155q18 75 61 139q15 21 32.5 40.5
t38 37.5t44.5 34q71 48 177 78l18 5l6 -18l38 -115l6 -19l-19 -6q-55 -18 -92 -49q-19 -16 -34 -34.5t-26 -39.5t-19.5 -45t-13.5 -50q-10 -54 -10 -113v-207q0 -106 -42 -191q-17 -36 -44 -66t-62 -53q18 -12 33.5 -25.5t28.5 -28t24 -31t20 -35.5q42 -85 42 -190v-206
q0 -60 10 -113q10 -52 33 -95q23 -42 60 -74q18 -15 41 -27.5t51 -21.5l19 -6l-6 -19l-38 -115l-6 -18z" />
    <glyph glyph-name="bar" unicode="|" horiz-adv-x="499" 
d="M324 -290h-149h-20v20v1726v20h20h149h20v-20v-1726v-20h-20z" />
    <glyph glyph-name="braceright" unicode="}" horiz-adv-x="693" 
d="M13 -232q55 18 93 49q12 11 23 22.5t20 24.5t17 27q23 43 33 95q10 53 10 113v206q0 18 1.5 35.5t4 34.5t6 33t8.5 31.5t11.5 30.5t13.5 29q13 24 30 45t37.5 38.5t45.5 32.5q-75 44 -113 115q-22 42 -33.5 91t-11.5 104v207q0 30 -2.5 58t-7.5 55q-3 17 -8 33.5t-11 32
t-14 29.5t-17 27t-20 24.5t-23 22t-26.5 19.5t-31 16.5t-34.5 13.5l-19 6l6 19l38 115l6 18l18 -5q106 -30 177 -78q71 -49 115 -112q15 -21 26.5 -43.5t20.5 -46.5t14 -49q18 -74 18 -155v-207q0 -26 3 -49t8 -44q2 -5 3.5 -10t3 -9.5t3.5 -9t4 -8.5t4.5 -8l5 -8t5 -7.5
t5.5 -6.5q22 -27 58 -42q18 -7 40.5 -11t48.5 -4h20v-20v-145v-20h-20q-13 0 -25.5 -1t-23.5 -3t-21 -5t-19 -6q-18 -8 -32.5 -18.5t-25.5 -24.5q-23 -27 -34 -67q-11 -42 -11 -93v-206q0 -80 -18 -155q-8 -37 -23.5 -72t-37.5 -66q-44 -63 -115 -112t-177 -79l-18 -5l-6 18
l-39 115l-6 19z" />
    <glyph glyph-name="asciitilde" unicode="~" horiz-adv-x="1393" 
d="M1283 777q0 -80 -25 -152q-25 -71 -71 -125q-45 -54 -108 -86q-32 -16 -67 -24t-73 -8q-46 0 -86 10q-40 9 -77 27t-74 45q-35 27 -74 62q-26 23 -49 40.5t-43 29.5q-12 8 -25.5 13t-27.5 7.5t-29 2.5q-35 0 -60.5 -11.5t-43.5 -34.5q-38 -48 -38 -135v-20h-20l-161 -2
h-20v20q0 81 25 152q24 70 70 122q15 18 32 32.5t36.5 27t39.5 22.5q63 30 140 30q45 0 86 -10q6 -2 12 -3.5t11.5 -3t11 -3.5l11 -4t11 -4.5l11 -5t10.5 -5.5q37 -18 74 -45q36 -26 73 -60q27 -25 50 -43q11 -9 21.5 -16t21 -12.5t20 -9.5t19.5 -7q20 -5 42 -5q34 0 62 13
q3 2 6.5 4t6.5 4l6 4t6 4.5l6 5t5.5 5.5t5 5.5t5.5 6.5q20 25 31 59q11 36 11 80v20h20l153 1h20v-20z" />
    <glyph glyph-name="uni00A0" unicode="&#xa0;" horiz-adv-x="560" 
 />
    <glyph glyph-name="exclamdown" unicode="&#xa1;" horiz-adv-x="499" 
d="M170 704h168h20v-20l13 -1044v-20h-20h-194h-20v20l13 1044v20h20zM378 996q0 -53 -33 -89q-33 -38 -96 -38t-97 38q-33 36 -33 89t33 89q34 36 97 36q20 0 37.5 -4t32.5 -12t26 -20q17 -18 25 -40.5t8 -48.5z" />
    <glyph glyph-name="cent" unicode="&#xa2;" horiz-adv-x="1121" 
d="M587 151q15 0 30 1.5t29 5t28 8.5q21 7 39.5 17.5t34.5 23.5q31 25 51 60q19 35 23 76l2 18h18h175h21l-1 -21q-3 -67 -33 -129q-29 -62 -78 -111t-114 -84q-57 -30 -122 -44v-217v-20h-20h-186h-20v20v218q-46 10 -85 26t-73 40q-74 51 -124 125t-73 165q-24 91 -24 191
v42q0 99 24 190q25 91 73 165q49 74 124 125q68 46 158 66v210v20h20h186h20v-20v-206q18 -4 34.5 -8.5t33 -10t31.5 -12.5t30 -15q66 -36 113 -89t74.5 -121.5t30.5 -144.5l1 -21h-21h-175h-18l-2 18q-4 47 -22 87t-48 70t-72 47.5t-94 17.5q-41 0 -74 -8t-58 -23
q-11 -6 -20.5 -13.5t-18.5 -15t-17 -16.5t-15 -18.5t-14 -19.5q-32 -52 -45 -118q-14 -68 -14 -136v-42q0 -35 3.5 -69.5t10.5 -68.5q13 -66 45 -117q16 -26 37 -46.5t47 -36.5q26 -15 59.5 -23t74.5 -8z" />
    <glyph glyph-name="sterling" unicode="&#xa3;" horiz-adv-x="1190" 
d="M470 602l7 -200q0 -36 -4 -70.5t-12 -68.5q-11 -47 -31 -86h698h20v-20l-1 -157v-20h-20h-1032h-20v20v157v20h20h75q8 3 15 8.5t14 15.5q16 24 26 57q10 34 14.5 72.5t4.5 70.5l-7 201h-146h-20v20v157v20h20h139l-8 240q0 107 35 192q18 43 42 79t55.5 65.5t68.5 52
t80 37.5q84 31 184 31q101 0 181 -30q20 -7 38.5 -16t35.5 -19.5t33 -22.5t29 -26q56 -54 86 -129q29 -75 29 -166v-20h-20h-191h-20v20q0 30 -4.5 54.5t-13.5 43.5q-18 40 -48 65t-69 36q-13 4 -26.5 6.5t-28 4t-28.5 1.5q-23 0 -43.5 -4t-40.5 -13q-10 -4 -19 -9
t-17.5 -11.5t-16 -13.5t-15.5 -15q-14 -16 -25.5 -36t-20.5 -45q-17 -48 -17 -112l8 -240h300h20v-20v-157v-20h-20h-293z" />
    <glyph glyph-name="currency" unicode="&#xa4;" horiz-adv-x="1460" 
d="M1101 85q-73 -57 -161 -89q-96 -36 -205 -36q-54 0 -105 9t-99 26q-87 32 -160 88l-122 -123l-14 -15l-14 15l-130 135l-14 14l14 14l127 130q-23 37 -40 75.5t-30 81.5q-28 93 -28 198q0 54 7.5 105.5t22.5 99.5q28 87 76 162l-135 139l-14 14l14 14l130 136l14 15
l14 -15l135 -138q72 52 155 81q93 33 196 33t197 -33q84 -30 156 -82l137 140l14 15l14 -15l132 -137l14 -14l-14 -14l-139 -142q24 -38 42 -78t32 -84q30 -95 30 -202q0 -103 -28 -196q-25 -84 -69 -156l132 -133l14 -14l-14 -14l-132 -136l-14 -15l-14 15zM331 608
q0 -91 32 -171q16 -39 38 -74t49 -64q55 -60 128 -94t157 -34q83 0 156 34q18 9 35 19t33 21.5t31 25t29 28.5q55 59 86.5 138.5t31.5 170.5q0 90 -31.5 169.5t-86.5 138t-128 92.5t-156 34q-21 0 -41 -2t-40 -6.5t-38.5 -10.5t-37.5 -15q-36 -17 -68 -40t-60 -52
q-55 -59 -87 -138q-16 -40 -24 -82.5t-8 -87.5z" />
    <glyph glyph-name="yen" unicode="&#xa5;" horiz-adv-x="1240" 
d="M614 824l346 642l6 10h12h219h35l-18 -30l-400 -690h277h20v-20v-125v-20h-20h-364v-125h364h20v-20v-124v-20h-20h-364v-302v-20h-20h-193h-20v20v302h-358h-20v20v124v20h20h358v125h-358h-20v20v125v20h20h278l-400 690l-18 30h35h220h12l6 -11z" />
    <glyph glyph-name="brokenbar" unicode="&#xa6;" horiz-adv-x="491" 
d="M127 -270v791v20h20h186h20v-20v-791v-20h-20h-186h-20v20zM333 678h-186h-20v20v758v20h20h186h20v-20v-758v-20h-20z" />
    <glyph glyph-name="section" unicode="&#xa7;" horiz-adv-x="1256" 
d="M1165 431q0 -34 -6 -65t-17.5 -59t-29.5 -53q-21 -30 -50.5 -55.5t-65.5 -45.5q55 -45 86 -104q38 -72 38 -177q0 -92 -37 -164t-105 -123q-33 -24 -73 -43t-87 -32q-18 -5 -37.5 -9t-40 -7t-41.5 -5t-42.5 -3t-44.5 -1q-98 0 -195 23q-97 22 -174 74q-77 53 -125 140
t-48 214v20h20l186 2h20v-20q0 -74 28 -123q14 -25 32 -45t40 -36q45 -30 102 -44q57 -13 114 -13q10 0 19.5 0.5l19 1t18.5 1.5t17.5 2t16.5 3t16 3.5t16 4.5q53 15 89 42q34 25 52 60t18 75q0 41 -15 72q-15 30 -51 56q-39 27 -104 53q-33 13 -75 27t-91 29
q-112 29 -199 64q-89 37 -152 88t-97 122q-17 36 -25.5 78.5t-8.5 91.5q0 99 51 174q42 62 115 103q-6 6 -11.5 11t-11 10.5t-10.5 11t-9.5 11t-9 11.5l-9 12t-8 12t-7.5 12.5t-7 13.5q-38 72 -38 177q0 44 9 84t27.5 75.5t44.5 66.5t60 56q67 50 161 77q93 27 207 27
q39 0 75.5 -3t71 -10t65.5 -16q95 -30 162 -87q67 -58 102 -143q36 -84 36 -192v-20h-20h-185h-20v20q0 54 -19 102q-18 47 -54 82t-89 55q-54 21 -125 21q-38 0 -70.5 -4t-59.5 -12q-54 -16 -88 -43q-33 -26 -49 -60q-16 -35 -16 -74q0 -46 13 -78q13 -30 48 -55
q9 -7 19.5 -13.5t23.5 -13t27.5 -13t31.5 -12.5q66 -25 171 -54q113 -31 201 -66q90 -37 153 -87q63 -51 96.5 -121t33.5 -168zM597 672q-88 23 -161 49q-35 -9 -60 -24t-40 -36q-9 -12 -15 -24t-10.5 -25.5t-6.5 -28t-2 -30.5q0 -24 3.5 -44t9.5 -36q5 -10 11.5 -19.5
t16 -19t21.5 -18.5q38 -27 104 -52q33 -13 76.5 -27t96.5 -29q46 -13 86 -25q37 -11 71 -24q68 19 104 62q18 23 27.5 49.5t9.5 57.5q0 41 -15 73q-5 10 -12.5 19.5t-17.5 19.5t-23 19q-39 28 -105 55q-17 7 -36.5 14t-40.5 14t-44 14.5t-48 15.5z" />
    <glyph glyph-name="dieresis" unicode="&#xa8;" horiz-adv-x="856" 
d="M82 1371q0 53 33 89q33 37 96 37t97 -37q33 -36 33 -89t-33 -89q-34 -36 -97 -36t-96 36t-33 89zM512 1369q0 53 33 89q33 38 96 38t97 -38q33 -36 33 -89t-33 -89q-34 -36 -97 -36t-96 36t-33 89z" />
    <glyph glyph-name="copyright" unicode="&#xa9;" horiz-adv-x="1609" 
d="M1139 597q0 -83 -24 -145q-13 -32 -30.5 -58.5t-41.5 -47.5q-46 -42 -111 -63q-65 -20 -144 -20q-21 0 -41 2t-39 5.5t-37 9t-35 13.5q-68 29 -116 84q-16 18 -29.5 38.5t-24.5 43t-19 47.5q-13 38 -19 78.5t-6 85.5v116q0 45 6 85.5t19 77.5q25 75 73 129t116 85
q34 15 72 22.5t80 7.5q26 0 51 -2t48 -7t45 -11q65 -21 111.5 -63t71.5 -106q13 -31 19 -67t6 -77v-20h-20h-146h-20v20q0 23 -3 43t-8 35.5t-12.5 27.5t-17.5 21q-42 37 -125 37q-12 0 -22.5 -1t-20 -3t-18.5 -5.5t-17 -7.5q-17 -8 -31 -20t-25 -27q-24 -31 -36 -75
q-12 -45 -12 -98v-117q0 -27 3 -52t9 -47t15 -41t20.5 -34t25.5 -27t31 -20q16 -9 35.5 -13t42.5 -4q84 0 125 37q40 36 40 128v20h20h146h20v-20zM226 729q0 -43 5 -84.5t15 -80.5t26 -76q45 -112 123 -194t183 -129q52 -24 108 -35.5t115 -11.5q119 0 223 47t182 129
t123.5 193.5t45.5 241.5q0 129 -45.5 240t-123.5 192.5t-182 128.5q-52 23 -108 34.5t-115 11.5q-119 0 -223 -46q-21 -10 -41 -20.5t-39 -22.5t-36.5 -25.5t-34 -28.5t-32.5 -31q-78 -82 -123 -193q-16 -37 -26 -76t-15 -80t-5 -84zM71 729q0 109 26 208t73.5 184
t114 154.5t148 118t174.5 75.5t194 27t194 -27t174 -75.5t147 -118.5q8 -7 15 -15l14 -16t13.5 -16.5l13 -17l13 -17t12.5 -17.5t11.5 -18t11 -18.5t10.5 -18.5q24 -43 42.5 -89t31.5 -95q26 -99 26 -208t-26 -207.5t-73.5 -184.5t-114.5 -155q-33 -35 -70 -65t-77 -55
q-81 -49 -174 -76t-194 -27t-194 27t-174.5 76.5t-148 119t-114 155.5t-73.5 184q-9 33 -14.5 67.5t-8.5 69.5t-3 71z" />
    <glyph glyph-name="ordfeminine" unicode="&#xaa;" horiz-adv-x="915" 
d="M599 698q-7 19 -11 39q-14 -11 -28.5 -20.5t-31.5 -17.5q-55 -28 -132 -28q-63 0 -113 17q-25 9 -46.5 21.5t-39 29t-30.5 36.5t-22 43q-18 45 -18 100q0 121 92 187q45 33 111.5 48.5t155.5 15.5h88v32q0 20 -3 37t-8.5 29t-13.5 21q-25 28 -79 28q-32 0 -56 -6t-41 -18
q-16 -10 -23.5 -25t-7.5 -36v-22l-21 2l-161 12l-19 1v19q0 56 24 103q24 46 68 80q44 33 104 52q60 18 133 18q67 0 123 -19q29 -9 53.5 -23t44.5 -33q14 -12 26 -27t21.5 -31.5t16.5 -34.5q11 -28 16.5 -60t5.5 -68v-314q0 -24 1.5 -46.5t4.5 -43.5q6 -43 19 -85l8 -26
h-27h-165h-14zM435 848q39 0 79 18q18 8 33 17.5t27 20.5v113h-87q-43 0 -74 -8q-15 -4 -27.5 -9.5t-21.5 -12.5q-17 -13 -26 -30q-2 -5 -4 -10.5t-3 -11.5t-1 -13q0 -35 23 -54q24 -20 82 -20z" />
    <glyph glyph-name="guillemotleft" unicode="&#xab;" horiz-adv-x="1184" 
d="M431 9q-83 124 -137.5 208t-97 153.5t-62 111t-19.5 62.5q0 44 75.5 155.5t242.5 321.5l6 7h9h200h42l-26 -32q-147 -187 -227 -307t-80 -146q0 -14 32 -73.5t104 -175.5t170 -262l20 -31h-37h-198h-11zM859 9q-112 166 -176.5 266.5t-102 171t-37.5 97.5q-1 44 75 156
t243 321l6 7h10h200h41l-25 -32q-146 -186 -226.5 -305.5t-80.5 -143.5t80 -161.5t225 -353.5l21 -31h-38h-198h-11z" />
    <glyph glyph-name="logicalnot" unicode="&#xac;" horiz-adv-x="1134" 
d="M958 355h-186h-20v20v244h-625h-20v20v161v20h20h831h20v-20v-425v-20h-20z" />
    <glyph glyph-name="uni00AD" unicode="&#xad;" horiz-adv-x="565" 
d="M525 523h-488h-20v20v151v20h20h488h20v-20v-151v-20h-20z" />
    <glyph glyph-name="registered" unicode="&#xae;" horiz-adv-x="1610" 
d="M70 729q0 109 26 208t73.5 184t114 154.5t148 118t174.5 75.5t194 27t194 -27t174 -75.5t147 -118.5q17 -17 32.5 -35.5t30 -37.5t27.5 -39.5t24 -41.5q24 -43 42.5 -89t31.5 -95q26 -99 26 -208t-26 -207.5t-73.5 -184.5t-114.5 -155q-22 -23 -45.5 -44t-49 -40
t-52.5 -36q-81 -49 -174 -76t-194 -27t-194 27t-174.5 76.5t-148 119t-114 155.5t-73.5 184q-13 50 -19.5 102t-6.5 106zM225 729q0 -43 5 -84.5t15 -80.5t26 -76q45 -112 123 -194t183 -129q52 -24 108 -35.5t115 -11.5q119 0 223 47t182.5 129t123.5 193.5t45 241.5
q0 129 -45 240q-23 56 -53.5 104t-70 89t-85 72.5t-97.5 55.5q-26 11 -53 20t-55 14.5t-56.5 8.5t-58.5 3q-119 0 -223 -46q-35 -16 -67 -35.5t-61 -42.5t-55 -50q-78 -82 -123 -193q-23 -56 -34.5 -115.5t-11.5 -124.5zM673 634v-318v-20h-20h-141h-20v20v849v20h20h276
q38 0 73 -4t66 -13q63 -17 108 -50q15 -12 28 -25.5t23.5 -29t19 -33.5t14 -37.5t8 -40t2.5 -43.5q0 -69 -36 -121q-26 -37 -70 -66q16 -10 29 -21l12 -12t11.5 -12.5t10 -14t8.5 -14.5q16 -29 23 -63t7 -71v-55q0 -37 3 -69q1 -6 2 -11.5l2 -11t2.5 -10.5t3 -9t2.5 -8l2 -4
v-4v-16v-20h-20h-145h-14l-5 13q-5 15 -9 37q-3 21 -4.5 42.5t-1.5 41.5v30v53q0 17 -2 31t-5.5 25.5t-8.5 20.5t-12 16q-13 13 -37.5 20.5t-61.5 7.5h-143zM673 802h136q4 0 8.5 0.5t8.5 0.5t8 1t8 1.5t7.5 1t7.5 1.5l8 2q13 4 24 9t21 12q9 6 16 13.5t13 17.5q10 17 10 42
q0 33 -8 56q-8 20 -24 32q-17 13 -47 19q-16 4 -36.5 5.5t-45.5 1.5h-115v-216z" />
    <glyph glyph-name="macron" unicode="&#xaf;" horiz-adv-x="938" 
d="M834 1273h-714h-20h-20v20v20v143v20v20h20h20h714h20h20v-20v-20v-143v-20v-20h-20h-20z" />
    <glyph glyph-name="degree" unicode="&#xb0;" horiz-adv-x="765" 
d="M110 1216q0 57 22 108t59 89.5t87 60.5q51 22 107 22t106 -22q49 -22 85.5 -60.5t57.5 -89.5q22 -51 22 -108q0 -14 -1.5 -28t-4 -28t-6.5 -27t-10 -25q-10 -25 -24.5 -47t-33.5 -41q-7 -7 -15 -14t-16 -13t-17 -11.5t-18.5 -10.5t-18.5 -9q-25 -11 -51.5 -16.5
t-54.5 -5.5t-54.5 5.5t-51.5 16.5q-50 21 -87.5 58.5t-59.5 86.5q-11 26 -16.5 53t-5.5 56zM275 1216q0 -24 9 -43q4 -10 10 -18.5t13.5 -16t16 -13t18.5 -9.5t20.5 -6t22.5 -2t22.5 2t20.5 6q20 8 35 22q7 7 12.5 15.5t9.5 18.5q8 20 8 44q0 12 -2 23.5t-6 21.5
q-3 7 -6.5 13.5t-7.5 12t-9 10.5q-7 8 -15.5 13.5t-18.5 10t-20.5 6.5t-22.5 2q-23 0 -42.5 -8.5t-34.5 -23.5t-24 -36t-9 -45z" />
    <glyph glyph-name="plusminus" unicode="&#xb1;" horiz-adv-x="1095" 
d="M670 875h343h20v-20v-152v-20h-20h-343v-394v-20h-20h-167h-20v20v394h-366h-20v20v152v20h20h366v392v20h20h167h20v-20v-392zM970 -19h-835h-20v20v151v20h20h835h20v-20v-151v-20h-20z" />
    <glyph glyph-name="twosuperior" unicode="&#xb2;" horiz-adv-x="751" 
d="M683 647h-599h-20v20v108v9l6 6l288 271q22 20 39.5 38t30.5 33.5t21 28.5q24 40 24 67q0 40 -26 65t-78 25q-66 0 -96 -32t-30 -81v-20h-20h-157h-20v20q0 58 22 109.5t64 89.5q41 38 100 61q30 11 63 16.5t70 5.5q70 0 126 -17q57 -18 97 -52t62 -82q21 -48 21 -106
q0 -44 -15 -83q-14 -37 -40 -74q-3 -5 -6.5 -9.5l-7 -9t-7.5 -9l-8 -9l-8 -9l-8 -9t-8.5 -9l-8.5 -8.5q-9 -9 -18.5 -18t-19.5 -18.5t-20.5 -19.5t-22.5 -20v0l-133 -110h343h20v-20v-128v-20h-20z" />
    <glyph glyph-name="threesuperior" unicode="&#xb3;" horiz-adv-x="751" 
d="M265 1145h84q17 0 32 2t27 5t21.5 8t16.5 11q15 12 22 27.5t7 35.5q0 8 -1 14.5t-3 12.5t-5 11.5t-7 11t-9 9.5q-12 11 -34 17.5t-54 6.5q-25 0 -47 -6q-21 -5 -36 -16q-3 -2 -5.5 -4l-5 -4t-4.5 -4.5t-3.5 -5t-3.5 -4.5q-7 -12 -7 -28v-20h-20h-157h-20v20q0 28 6 53.5
t18 47.5q25 44 67 76q21 16 45.5 27.5t52.5 20.5q55 16 118 16q17 0 33 -1t31.5 -3t30.5 -4.5t29 -6.5q19 -5 36.5 -12t33 -15.5t29.5 -18.5q43 -32 66 -78q12 -23 18 -49.5t6 -56.5q0 -20 -4.5 -40t-13 -38t-21.5 -35q-25 -32 -65 -55q17 -8 30.5 -16.5t25 -19.5t21.5 -23
q40 -52 40 -128q0 -20 -3 -39t-8.5 -36.5t-14.5 -33.5q-26 -47 -70 -78q-45 -31 -103.5 -47.5t-126.5 -16.5q-29 0 -57.5 3.5t-56.5 10.5q-57 14 -102 45q-23 15 -41.5 35t-32.5 44q-28 49 -28 115v20h20h158h20v-20q0 -18 7.5 -32.5t24.5 -26.5q16 -13 39.5 -19.5
t54.5 -6.5q63 0 94 25q29 24 29 66q0 51 -34 71q-39 24 -106 24h-84h-20v20v116v20h20z" />
    <glyph glyph-name="acute" unicode="&#xb4;" horiz-adv-x="642" 
d="M316 1554h224h45l-30 -33l-268 -294l-6 -7h-9h-149h-37l20 31l193 294l6 9h11z" />
    <glyph glyph-name="mu" unicode="&#xb5;" horiz-adv-x="1160" 
d="M359 1082v-622q0 -20 0.5 -39t2 -36t3.5 -32.5t4.5 -29t5.5 -25.5q8 -31 19 -54t24 -39q27 -32 61 -43q37 -12 80 -12q102 0 159 37q55 36 82 99v796v20h20h186h20v-20v-1082v-20h-20h-166h-18l-2 18l-6 65q-36 -40 -82 -65q-70 -38 -165 -38q-38 0 -72 4.5t-63 13.5
q-20 6 -38.5 15t-34.5 19v-428v-20h-20h-185h-20v20v1498v20h20h185h20v-20z" />
    <glyph glyph-name="paragraph" unicode="&#xb6;" horiz-adv-x="1001" 
d="M626 0v500h-67q-123 0 -218 36q-96 37 -162 102q-32 33 -57 72t-42 84q-33 89 -33 194q0 26 2 51t6 49t10.5 47.5t14.5 45.5q34 90 99 156q22 22 47.5 40.5t54 34t60.5 27.5q95 37 218 37h273h20v-20v-1456v-20h-20h-186h-20v20z" />
    <glyph glyph-name="periodcentered" unicode="&#xb7;" horiz-adv-x="534" 
d="M127 729q0 18 3.5 34.5t11 31.5t19.5 27q11 13 27 22t34 13t39 4q66 0 101 -38t35 -94q0 -55 -35 -92q-35 -38 -101 -38t-100 38q-34 37 -34 92z" />
    <glyph glyph-name="cedilla" unicode="&#xb8;" horiz-adv-x="507" 
d="M304 -4l-7 -33q5 -1 10 -2.5l10 -3t9.5 -3.5t9.5 -4q31 -13 56 -36t39.5 -57.5t14.5 -81.5q0 -52 -21.5 -94.5t-64.5 -73.5q-6 -5 -12.5 -9t-13 -7.5t-13.5 -7t-14.5 -6.5t-15.5 -6t-16 -5.5t-16 -4.5q-59 -16 -136 -16h-19l-1 19l-7 107l-1 21h21q32 0 61 5q6 1 11 2.5
l10 3t9.5 3t8.5 3.5l8 4q18 9 28 24q10 14 10 34t-7 32q-2 3 -5 6.5t-7 6.5t-9 6q-4 2 -8.5 4t-10.5 4t-12.5 3.5t-13.5 2.5q-30 6 -71 10l-23 2l6 23l32 134l3 15h16h133h25z" />
    <glyph glyph-name="onesuperior" unicode="&#xb9;" horiz-adv-x="697" 
d="M495 654h-157h-20v20v575l-191 -50l-25 -7v26v128v14l14 5l355 117l3 1h3h18h20v-20v-789v-20h-20z" />
    <glyph glyph-name="ordmasculine" unicode="&#xba;" horiz-adv-x="931" 
d="M102 1123q0 20 1.5 39.5t4.5 38t8 36.5t11 35q9 23 19.5 43.5t24 39.5t29.5 36q47 50 115 78q34 13 71 20t78 7q84 0 151 -27q68 -28 115 -78q24 -25 42 -55t30 -64q25 -68 25 -149v-80q0 -81 -25 -149q-6 -17 -13.5 -33t-16.5 -31t-19.5 -28.5t-22.5 -26.5
q-47 -50 -114 -77q-34 -14 -71.5 -21t-78.5 -7q-83 0 -150 27q-34 14 -62.5 33.5t-52.5 44.5q-16 17 -29.5 36t-24.5 39.5t-20 43.5q-25 68 -25 149v80zM305 1043q0 -43 10 -80q10 -35 30 -60t50 -39.5t71 -14.5q40 0 69.5 14.5t48.5 39.5q7 8 12.5 17.5t9.5 20.5l8 22
q10 37 10 80v80q0 14 -1 27.5t-3.5 26.5t-5.5 25q-10 35 -30 60t-49 40q-15 7 -32.5 10.5t-38.5 3.5q-14 0 -26 -1.5t-23 -5t-21 -7.5q-14 -8 -26.5 -17.5t-22.5 -22.5t-17.5 -28t-12.5 -32q-10 -37 -10 -79v-80z" />
    <glyph glyph-name="guillemotright" unicode="&#xbb;" horiz-adv-x="1184" 
d="M736 1h-198h-37l20 31q98 146 170 262t104 175.5t32 73.5q0 26 -80 146t-227 307l-26 32h41h201h9l6 -7q167 -210 242.5 -321.5t75.5 -155.5q-1 -39 -75 -162.5t-241 -372.5l-6 -8h-11zM308 1h-198h-38l21 31q98 146 169 261.5t103.5 177t32.5 76.5q0 24 -80.5 143.5
t-226.5 305.5l-25 32h41h200h10l6 -7q167 -209 243 -321t75 -156q0 -27 -37.5 -97.5t-102 -171t-176.5 -266.5l-6 -8h-11z" />
    <glyph glyph-name="onequarter" unicode="&#xbc;" horiz-adv-x="1500" 
d="M1338 319h87h20v-20v-130v-20h-20h-87v-149v-20h-20h-157h-20v20v149h-355h-19l-1 19l-6 102v7l4 6l377 518l6 8h10h161h20v-20v-470zM979 319h162v205zM458 644h-157h-20v20v575l-191 -50l-25 -7v26v128v14l14 5l355 117l3 1h3h18h20v-20v-789v-20h-20zM432 101l-104 66
l-16 11l10 17l711 1138l11 17l17 -11l104 -66l16 -11l-10 -17l-711 -1138l-11 -17z" />
    <glyph glyph-name="onehalf" unicode="&#xbd;" horiz-adv-x="1589" 
d="M1481 -20h-599h-20v20v108v9l6 6l288 271q33 29 55.5 54.5t35.5 45.5q24 40 24 67q0 14 -3 26t-8.5 21.5t-14.5 17.5q-13 12 -32 18.5t-46 6.5q-66 0 -96 -32t-30 -81v-20h-20h-157h-20v20q0 58 22 109q11 26 27 48.5t37 41.5q41 38 100 61q30 11 63 16.5t70 5.5
q23 0 45 -2t42 -6t39 -9q28 -9 52.5 -22t44.5 -30q40 -34 62 -82q10 -24 15.5 -50.5t5.5 -55.5q0 -22 -3.5 -42.5t-11.5 -40.5q-5 -12 -11 -24.5t-13.5 -25t-15.5 -24.5q-13 -18 -28.5 -36t-33.5 -36q-12 -12 -25 -24.5t-27 -25t-29 -26.5v0l-133 -110h343h20v-20v-128v-20
h-20zM453 644h-157h-20v20v575l-191 -50l-25 -7v26v128v14l14 5l355 117l3 1h3h18h20v-20v-789v-20h-20zM388 101l-104 66l-16 11l10 17l711 1138l11 17l17 -11l104 -66l16 -11l-10 -17l-711 -1138l-11 -17z" />
    <glyph glyph-name="threequarters" unicode="&#xbe;" horiz-adv-x="1593" 
d="M1430 319h87h20v-20v-130v-20h-20h-87v-149v-20h-20h-157h-20v20v149h-355h-19l-1 19l-6 102v7l4 6l377 518l6 8h10h161h20v-20v-470zM1071 319h162v205zM314 1146h84q34 0 58.5 6.5t38.5 19.5q10 8 16.5 17.5t9.5 21t3 24.5q0 19 -6 33.5t-19 25.5q-12 11 -34 17.5
t-54 6.5q-25 0 -47 -6q-21 -5 -36 -16q-5 -3 -9 -6.5t-7 -7.5l-6 -8q-7 -12 -7 -28v-20h-20h-157h-20v20q0 28 6 53.5t18 47.5q25 44 67 76q21 16 45.5 27.5t52.5 20.5q55 16 118 16q68 0 124 -15q29 -8 54 -19.5t45 -26.5q43 -32 66 -78q8 -15 13.5 -32.5t8 -35.5t2.5 -38
q0 -31 -10 -59.5t-29 -53.5q-25 -32 -65 -55q25 -12 44 -26t33 -33q40 -52 40 -128q0 -30 -6.5 -57.5t-19.5 -51.5q-26 -47 -70 -78t-104 -48q-58 -16 -126 -16q-29 0 -57.5 3.5t-56.5 10.5q-19 5 -36.5 11.5t-34 15t-31.5 18.5q-9 6 -17.5 13t-16.5 14.5t-15 16t-13 17
t-12 18.5q-28 49 -28 115v20h20h158h20v-20q0 -18 7.5 -32.5t24.5 -26.5q16 -13 39.5 -19.5t54.5 -6.5q63 0 94 25q29 24 29 66q0 51 -34 71q-39 24 -106 24h-84h-20v20v116v20h20zM559 101l-104 66l-16 11l10 17l711 1138l11 17l17 -11l104 -66l16 -11l-10 -17l-711 -1138
l-11 -17z" />
    <glyph glyph-name="questiondown" unicode="&#xbf;" horiz-adv-x="969" 
d="M608 680q0 -25 -1.5 -47t-3.5 -41.5t-5 -37.5q-10 -52 -31 -96q-21 -43 -55 -84q-32 -39 -78 -90q-32 -35 -63 -66q-28 -31 -50 -64q-22 -32 -35 -70q-13 -36 -13 -84q0 -51 13 -89t39 -63q52 -52 153 -52q40 0 78 12q37 11 65 34t45 57q8 17 12.5 37t4.5 44v20h20h185
h20v-20q-1 -90 -35 -161t-91 -122q-15 -12 -30.5 -23t-32.5 -20.5t-35.5 -17.5t-37.5 -15q-78 -26 -168 -26q-101 0 -180 27q-80 26 -136 78t-85 127q-29 74 -29 168q0 71 23 135q22 62 58 117q35 55 80 105q45 49 90 93q50 48 67 104q17 59 17 131v20h20h185h20v-20z
M616 997q0 -53 -33 -89q-33 -38 -96 -38t-97 38q-33 36 -33 89q0 52 33 88q34 36 97 36t96 -36t33 -88z" />
    <glyph glyph-name="uni02BC" unicode="&#x2bc;" horiz-adv-x="409" 
d="M347 1408q0 -24 -3 -49t-9 -51q-12 -52 -35.5 -101.5t-56.5 -94.5l-14 -18t-14.5 -17.5t-15.5 -16t-16.5 -15t-16.5 -15.5l-12 -9l-12 9l-105 72l-17 11l12 17q45 63 69 130q23 66 23 145v131v20h20h183h20v-20v-128z" />
    <glyph glyph-name="circumflex" unicode="&#x2c6;" horiz-adv-x="964" 
d="M794 1262v-10v-20h-20h-153h-9l-6 7l-135 153l-134 -153l-6 -7h-9h-153h-20v20v12v8l5 5l246 272l6 7h9h112h9l6 -7l247 -274l5 -5v-8z" />
    <glyph glyph-name="caron" unicode="&#x2c7;" horiz-adv-x="909" 
d="M448 1395l135 153l6 7h9h160h20v-20v-10v-8l-5 -6l-254 -274l-6 -6h-9h-113h-9l-6 6l-251 274l-5 6v8v10v20h20h157h9l6 -7z" />
    <glyph glyph-name="breve" unicode="&#x2d8;" horiz-adv-x="874" 
d="M748 1495q0 -63 -22 -116t-65 -91q-41 -38 -101 -60q-29 -10 -62 -15.5t-69 -5.5q-24 0 -46.5 2.5t-44 7t-40.5 11.5q-60 22 -101 60q-43 38 -65 91q-12 27 -17.5 56t-5.5 60v20h20h151h20v-20q0 -27 7 -51q7 -23 22 -41q7 -8 16.5 -14.5t21.5 -12.5q25 -10 62 -10
q36 0 61 10q24 11 39 28t22 40q3 12 5 24.5t2 26.5v20h20h150h20v-20z" />
    <glyph glyph-name="dotaccent" unicode="&#x2d9;" horiz-adv-x="497" 
d="M121 1367q0 26 8 48.5t25 40.5q33 38 96 38t97 -38q33 -36 33 -89t-33 -89q-34 -36 -97 -36t-96 36t-33 89z" />
    <glyph glyph-name="ring" unicode="&#x2da;" horiz-adv-x="685" 
d="M101 1408q0 23 4.5 45.5t13.5 43.5q18 42 50 73t74 49q22 8 45 12.5t48 4.5q49 0 92 -17q14 -6 27.5 -13.5t25 -16.5t22.5 -19q32 -31 50 -73t18 -89q0 -48 -18 -89q-9 -20 -21.5 -38t-28.5 -33t-35 -27t-40 -20q-43 -17 -92 -17q-50 0 -92 17q-9 3 -17 7t-15.5 8.5
t-15 9.5t-14 10.5t-13.5 11.5q-16 15 -28.5 33t-21.5 38q-18 41 -18 89zM240 1408q0 -18 7 -35.5t20 -30.5t30 -21q9 -4 18.5 -6t20.5 -2h7t6.5 0.5t6.5 1.5t6 1.5t6 1.5t6 3q10 4 17.5 9t14 11.5t11 14t8.5 16.5q7 17 7 36q0 10 -2 19.5t-5 17.5q-7 18 -20 32q-6 7 -14 12
t-16.5 9t-18 6t-20.5 2q-6 0 -11 -0.5t-10 -1.5t-9.5 -2.5t-8.5 -3.5q-6 -2 -11 -5.5t-10 -7.5t-9 -8q-13 -14 -20 -32q-3 -8 -5 -17.5t-2 -19.5z" />
    <glyph glyph-name="ogonek" unicode="&#x2db;" horiz-adv-x="554" 
d="M394 -16q-32 -24 -62 -49q-15 -12 -28 -24.5t-25 -25.5q-22 -26 -36 -53q-12 -26 -12 -54q0 -5 0.5 -9t1 -7.5t1.5 -7t2.5 -6l3 -5t3.5 -4.5q3 -4 8.5 -6.5t15 -4.5t22.5 -2q30 0 52 8q12 4 22 8t17 8l26 13l3 -29l13 -121l1 -12l-10 -7q-26 -16 -66 -31
q-41 -16 -105 -16q-44 0 -82 13q-40 13 -68 40q-15 14 -26 30.5t-19 36.5q-17 39 -17 90q0 44 16 87q5 14 12.5 28.5t16.5 28.5t20 27q34 41 84 78q50 36 120 68l10 5l10 -7l75 -56l21 -16z" />
    </font>
</defs>
</svg>
